<?xml version="1.0" encoding="iso-8859-1"?>
<!-- Generator: Adobe Illustrator 19.0.0, SVG Export Plug-In . SVG Version: 6.00 Build 0)  -->
<!-- License: CC0. Made by SVG Repo: https://www.svgrepo.com/svg/262154/hydro-power-water -->
<svg version="1.1" id="Layer_1" xmlns="http://www.w3.org/2000/svg" xmlns:xlink="http://www.w3.org/1999/xlink" x="0px" y="0px"
	 viewBox="0 0 512.001 512.001" style="enable-background:new 0 0 512.001 512.001;" xml:space="preserve">
<g>
	<g>
		<g>
			<path d="M10.323,414.019c7.78,0,11.155,1.701,15.823,4.056c5.537,2.792,12.428,6.267,25.119,6.267
				c12.691,0,19.582-3.475,25.119-6.267c4.669-2.354,8.043-4.056,15.825-4.056c7.781,0,11.156,1.701,15.826,4.056
				c5.537,2.792,12.428,6.267,25.12,6.267c12.692,0,19.583-3.475,25.12-6.266c4.67-2.355,8.044-4.057,15.827-4.057
				c7.781,0,11.155,1.701,15.825,4.056c5.537,2.792,12.429,6.267,25.12,6.267s19.581-3.475,25.118-6.267
				c4.669-2.354,8.043-4.056,15.822-4.056c7.781,0,11.155,1.701,15.826,4.056c5.537,2.792,12.428,6.267,25.12,6.267
				c12.693,0,19.584-3.475,25.121-6.267c4.67-2.354,8.044-4.056,15.826-4.056c7.782,0,11.157,1.701,15.827,4.057
				c5.537,2.791,12.429,6.266,25.121,6.266s19.584-3.475,25.121-6.266c4.67-2.355,8.044-4.057,15.827-4.057
				c7.783,0,11.159,1.701,15.829,4.057c5.538,2.791,12.43,6.266,25.123,6.266c12.694,0,19.586-3.475,25.124-6.266
				c4.67-2.355,8.045-4.057,15.829-4.057c5.7,0,10.323-4.622,10.323-10.323s-4.622-10.323-10.323-10.323
				c-0.5,0-0.974,0.014-1.456,0.025V55.045c0-5.7-4.622-10.323-10.323-10.323h-41.29c-5.7,0-10.323,4.622-10.323,10.323v22.71
				H76.996v-22.71c0-5.7-4.621-10.323-10.323-10.323h-41.29c-5.701,0-10.323,4.622-10.323,10.323v338.504
				c-1.486-0.113-3.059-0.177-4.738-0.177C4.621,393.372,0,397.995,0,403.695S4.621,414.019,10.323,414.019z M458.932,65.367h20.645
				v332.785c-1.062,0.502-2.065,1.005-3.022,1.487c-4.67,2.355-8.047,4.057-15.83,4.057c-0.629,0-1.219-0.016-1.793-0.037V65.367z
				 M185.503,362.024c2.358,4.352,3.915,7.227,3.915,14.138c0,6.911-1.558,9.785-3.914,14.137c-0.642,1.185-1.317,2.45-1.981,3.814
				c-2.752-0.457-5.851-0.74-9.422-0.74c-9.525,0-15.782,1.957-20.653,4.114c2.495-4.866,5.003-11.121,5.003-21.325
				c0.001-12.143-3.552-18.701-6.407-23.972c-2.358-4.352-3.914-7.227-3.914-14.137c0-6.909,1.558-9.784,3.914-14.134
				c2.855-5.269,6.408-11.827,6.408-23.97s-3.553-18.7-6.408-23.97c-2.358-4.351-3.914-7.226-3.914-14.135
				c0-6.909,1.558-9.785,3.914-14.135c1.916-3.536,4.146-7.652,5.406-13.646h30.006c-0.557,1.239-1.215,2.453-1.951,3.811
				c-2.855,5.269-6.408,11.827-6.408,23.97c0,12.143,3.553,18.7,6.408,23.97c2.358,4.351,3.914,7.226,3.914,14.135
				c0,6.909-1.558,9.785-3.914,14.135c-2.855,5.269-6.408,11.827-6.408,23.969C179.096,350.195,182.649,356.753,185.503,362.024z
				 M148.129,213.417c-5.701,0-10.323,4.622-10.323,10.323c0,6.909-1.558,9.784-3.914,14.134c-0.326,0.602-0.662,1.224-1,1.866
				h-7.472v-41.29h92.903v41.29H207.43c1.501-4.068,2.634-9.143,2.634-16c0-5.701-4.621-10.323-10.323-10.323H148.129z
				 M305.548,223.739c0,6.909-1.558,9.784-3.914,14.134c-0.326,0.602-0.662,1.224-1,1.866h-7.473v-41.29h92.903v41.29h-10.892
				c1.501-4.068,2.634-9.143,2.634-16c0-5.701-4.622-10.323-10.323-10.323h-51.613C310.171,213.417,305.548,218.039,305.548,223.739
				z M353.245,362.024c2.358,4.352,3.915,7.227,3.915,14.138c0,6.911-1.558,9.785-3.915,14.137c-0.758,1.399-1.564,2.894-2.34,4.557
				c-3.57-0.888-7.802-1.482-13.028-1.482c-6.635,0-11.676,0.954-15.776,2.259c2.16-4.603,4.092-10.516,4.092-19.47
				c0.001-12.145-3.551-18.702-6.406-23.973c-2.358-4.352-3.915-7.227-3.915-14.137c0-6.909,1.558-9.784,3.914-14.134
				c2.855-5.269,6.408-11.827,6.408-23.97s-3.553-18.7-6.408-23.97c-2.357-4.351-3.914-7.226-3.914-14.135
				c0-6.909,1.558-9.785,3.915-14.135c1.915-3.536,4.146-7.652,5.405-13.646h30.006c-0.556,1.239-1.215,2.453-1.951,3.811
				c-2.855,5.269-6.408,11.827-6.408,23.97c0,12.143,3.553,18.7,6.408,23.97c2.357,4.351,3.914,7.226,3.914,14.135
				c0,6.909-1.558,9.785-3.915,14.135c-2.854,5.269-6.407,11.827-6.407,23.969C346.838,350.195,350.39,356.753,353.245,362.024z
				 M76.997,141.159h180.645c5.7,0,10.323-4.622,10.323-10.323c0-5.7-4.622-10.323-10.323-10.323H76.997V98.399h361.289v22.114
				h-82.501c-5.7,0-10.323,4.622-10.323,10.323c0,5.7,4.622,10.323,10.323,10.323h82.501v255.441
				c-4.554-1.777-10.323-3.226-18.514-3.226c-12.692,0-19.584,3.475-25.121,6.266c-4.67,2.355-8.044,4.057-15.827,4.057
				c-3.717,0-6.425-0.391-8.753-1.054c0.406-0.806,0.849-1.627,1.325-2.508c2.855-5.27,6.407-11.828,6.407-23.972
				c0-12.144-3.552-18.702-6.407-23.973c-2.358-4.352-3.915-7.227-3.915-14.137c0-6.909,1.558-9.784,3.914-14.134
				c2.855-5.269,6.408-11.827,6.408-23.97s-3.553-18.7-6.408-23.97c-2.357-4.351-3.914-7.226-3.914-14.135
				c0-0.51,0.011-0.991,0.028-1.459h28.876c5.7,0,10.323-4.622,10.323-10.323v-61.935c0-5.7-4.622-10.323-10.323-10.323H282.839
				c-5.7,0-10.323,4.622-10.323,10.323v61.935c0,5.7,4.622,10.323,10.323,10.323h12.414c-0.011,0.482-0.027,0.958-0.027,1.459
				c0,12.143,3.553,18.7,6.408,23.97c2.357,4.351,3.914,7.226,3.914,14.135c0,6.909-1.558,9.785-3.915,14.135
				c-2.854,5.269-6.407,11.827-6.407,23.969c0,12.143,3.552,18.701,6.407,23.972c2.358,4.352,3.915,7.227,3.915,14.138
				c0,6.911-1.558,9.785-3.915,14.137c-1.887,3.483-4.072,7.54-5.341,13.388c-7.322-0.093-10.648-1.759-15.186-4.047
				c-5.537-2.791-12.428-6.266-25.119-6.266c-12.691,0-19.581,3.475-25.118,6.267c-4.669,2.354-8.043,4.056-15.822,4.056
				c-5.607,0-8.925-0.887-12.089-2.261c0.225-0.423,0.457-0.854,0.7-1.302c2.855-5.27,6.408-11.828,6.408-23.972
				c0-12.145-3.553-18.702-6.408-23.973c-2.358-4.352-3.914-7.227-3.914-14.137c0-6.909,1.558-9.784,3.914-14.134
				c2.855-5.269,6.408-11.827,6.408-23.97s-3.553-18.7-6.408-23.97c-2.358-4.351-3.914-7.226-3.914-14.135
				c0-0.51,0.011-0.991,0.028-1.459h28.873c5.701,0,10.323-4.622,10.323-10.323v-61.935c0-5.7-4.621-10.323-10.323-10.323H115.097
				c-5.701,0-10.323,4.622-10.323,10.323v61.935c0,5.7,4.621,10.323,10.323,10.323h12.414c-0.011,0.482-0.027,0.958-0.027,1.459
				c0,12.143,3.553,18.7,6.408,23.97c2.358,4.351,3.914,7.226,3.914,14.135s-1.558,9.785-3.914,14.135
				c-2.855,5.269-6.408,11.827-6.408,23.969c0,12.143,3.553,18.701,6.407,23.972c2.358,4.352,3.915,7.227,3.915,14.138
				c0,6.911-1.558,9.785-3.914,14.137c-1.861,3.436-4.014,7.432-5.29,13.156c-4.769-0.545-7.63-1.979-11.272-3.814
				c-5.537-2.792-12.428-6.267-25.12-6.267c-6.33,0-11.216,0.865-15.212,2.078V141.159z M35.706,65.367h20.645v338.027
				c-1.48,0.195-3.146,0.301-5.086,0.301c-7.631,0-11.027-1.639-15.559-3.923V65.367z"/>
			<path d="M501.677,436.311c-12.693,0-19.585,3.475-25.123,6.266c-4.67,2.355-8.047,4.057-15.83,4.057s-11.159-1.701-15.829-4.057
				c-5.538-2.791-12.43-6.266-25.123-6.266c-12.692,0-19.584,3.475-25.121,6.266c-4.67,2.355-8.044,4.057-15.827,4.057
				c-7.782,0-11.157-1.701-15.827-4.057c-5.537-2.791-12.429-6.266-25.121-6.266s-19.583,3.475-25.12,6.266
				c-4.67,2.355-8.044,4.057-15.827,4.057c-7.781,0-11.156-1.701-15.826-4.057c-5.537-2.791-12.428-6.266-25.119-6.266
				c-12.691,0-19.581,3.475-25.118,6.267c-4.669,2.354-8.043,4.056-15.822,4.056c-7.781,0-11.156-1.701-15.826-4.057
				c-5.537-2.791-12.428-6.266-25.119-6.266c-12.692,0-19.583,3.475-25.12,6.266c-4.67,2.355-8.044,4.057-15.827,4.057
				c-7.781,0-11.156-1.701-15.826-4.056c-5.537-2.792-12.428-6.267-25.12-6.267c-12.691,0-19.582,3.475-25.119,6.267
				c-4.669,2.354-8.043,4.056-15.825,4.056c-7.78,0-11.155-1.701-15.823-4.056c-5.537-2.792-12.428-6.267-25.119-6.267
				c-5.701,0-10.323,4.622-10.323,10.323c0,5.7,4.621,10.323,10.323,10.323c7.78,0,11.155,1.701,15.823,4.056
				c5.537,2.792,12.428,6.267,25.119,6.267c12.691,0,19.582-3.475,25.119-6.267c4.669-2.354,8.043-4.056,15.825-4.056
				s11.156,1.701,15.826,4.056c5.537,2.792,12.428,6.267,25.12,6.267c12.692,0,19.583-3.475,25.12-6.266
				c4.67-2.355,8.044-4.057,15.827-4.057c7.781,0,11.155,1.701,15.825,4.056c5.537,2.792,12.429,6.267,25.12,6.267
				c12.691,0,19.581-3.475,25.118-6.267c4.669-2.354,8.043-4.056,15.822-4.056c7.781,0,11.155,1.701,15.826,4.056
				c5.537,2.792,12.428,6.267,25.12,6.267c12.693,0,19.584-3.475,25.121-6.267c4.67-2.354,8.044-4.056,15.826-4.056
				c7.782,0,11.157,1.701,15.827,4.057c5.537,2.791,12.429,6.266,25.121,6.266s19.584-3.475,25.121-6.266
				c4.67-2.355,8.044-4.057,15.827-4.057c7.783,0,11.159,1.701,15.829,4.057c5.538,2.791,12.43,6.266,25.123,6.266
				c12.694,0,19.586-3.475,25.124-6.266c4.67-2.355,8.045-4.057,15.829-4.057c5.7,0,10.323-4.622,10.323-10.323
				C512.001,440.934,507.378,436.311,501.677,436.311z"/>
			<path d="M304.172,141.159h3.097c5.7,0,10.323-4.622,10.323-10.323c0-5.7-4.622-10.323-10.323-10.323h-3.097
				c-5.7,0-10.323,4.622-10.323,10.323C293.85,136.536,298.472,141.159,304.172,141.159z"/>
		</g>
	</g>
</g>
</svg>
