<?xml version="1.0" encoding="UTF-8"?>
<svg viewBox="0 0 205 205" xmlns="http://www.w3.org/2000/svg">
<path d="m203 2v201h-201v-201zm-196 5v191h191v-191zm87 134.62c0 1.11-2.77 1.38-14 1.38-11.34 0-14-0.27-14-1.4 0-0.77 1.35-1.88 3.01-2.45 1.75-0.61 3.41-2.14 4-3.67 1.26-3.32 1.33-70.45 0.07-73.76-0.5-1.32-2.3-2.98-4-3.69-1.69-0.7-3.08-1.89-3.08-2.65 0-1.11 2.77-1.38 14-1.38 11.99 0 14 0.22 14 1.55 0 0.86-1.36 2.03-3.02 2.61s-3.46 1.87-4 2.88-0.98 8.83-0.98 17.39v15.57h2.85c4.16 0 8.55-3.38 17.41-13.41 12-13.59 14.31-20.01 8.21-22.78-1.36-0.62-2.47-1.73-2.47-2.47 0-1.06 3.07-1.34 14.61-1.34 12.91 0 14.53 0.18 14 1.58-0.34 0.87-0.61 1.77-0.61 2s-0.66 0.42-1.47 0.42c-0.8 0-3.07 1.41-5.03 3.14-5.36 4.7-28.5 30.5-28.5 31.77 0 0.61 2.4 4.59 5.33 8.85s8.62 12.64 12.65 18.63c8.96 13.31 12.13 17 16.02 18.61 1.65 0.68 3 1.86 3 2.62 0 1.11-2.77 1.38-14 1.38-11.49 0-14-0.26-14-1.43 0-0.79 0.9-1.72 2-2.07 1.16-0.37 2-1.51 2-2.73 0-2.29-17.53-29.98-22.02-34.79-2.09-2.24-3.68-2.98-6.38-2.98h-3.6v16.93c0 9.32 0.41 18.02 0.92 19.35 0.5 1.32 2.3 2.98 4 3.69 1.69 0.7 3.08 1.89 3.08 2.65z" fill="#010102"/>
</svg>
