<?xml version="1.0" encoding="utf-8"?>
<!-- Generator: Adobe Illustrator 23.0.1, SVG Export Plug-In . SVG Version: 6.00 Build 0)  -->
<svg version="1.1" xmlns="http://www.w3.org/2000/svg" xmlns:xlink="http://www.w3.org/1999/xlink" x="0px" y="0px"
	 viewBox="0 0 800 600" style="enable-background:new 0 0 800 600;" xml:space="preserve">
<style type="text/css">
	.st0{fill:none;stroke:#000000;stroke-width:0.5;stroke-linecap:round;stroke-linejoin:round;}
	.st1{font-family:'Roboto-Regular';}
	.st2{font-size:14px;}
</style>
<g id="Mongolia">
	<path class="st0" d="M695.871,206.121l-4.862,10.904l-0.349,0.838l-4.83,10.99l-4.83,10.921l-0.097,0.622l0.323,1.212l0.009,0.626
		l-0.456,1.128l-5.24,8.255l-0.212,0.574l-0.107,0.723v0.694l0.523,6.893l-0.214,1.093l-0.67,0.63l-5.392,2.585l-0.511,0.604
		l0.007,0.329l0.72,4.443l0.369,2.054l0.319,0.805l0.556,0.766l5.815,6.227l1.422,0.74l1.343-0.859l2.563-3.349l2.237-1.461
		l1.433-0.456l4.255,0.951l1.628-0.042l5.796-1.295l1.619-0.074l0.718,0.143l2.75,1.182l1.714,0.623l0.513,0.319l5.691,5.338
		l1.006,0.109l0.899-1.189l0.841-1.532l0.837-0.915l1.25-1.001l4.933-6.554l0.58-0.534l1.11-0.402l3.625,0.238l0.561-0.072
		l1.538-0.673l1.346-0.273l1.379-0.024l0.547,0.169l1.105,0.703l0.592,0.163l4.434,0.298l1.598,0.797l1.449,1.771l2.486,4.15
		l1.245,1.282l4.72,2.087l2.001,0.74l0.549,0.407l0.31,0.511l0.168,0.644l0.283,2.445l0.128,0.582l0.271,0.389l0.544,0.336
		l2.15,0.842l0.92,0.291l0.439,0.282l0.176,0.476l-0.119,0.336l-0.547,0.786l-0.159,0.486l0.891,0.266l3.573,3.322l0.338,0.409
		l0.304,0.61l0.209,0.56l0.278,0.402l1.432,0.422l0.968,0.754l1.622,1.914l0.666,1.044l0.576,1.156l0.151,0.67l0.027,1.995
		l0.075,0.393l0.053,0.193l0.065,0.173l0.326,0.495l0.762,0.789l0.328,0.43l0.119,0.289l0.065,0.266l0.088,0.252l0.202,0.251
		l0.245,0.057l0.374,0.03l0.315,0.089l0.081,0.233l-0.138,0.348l-0.126,0.247l-0.081,0.271l-0.005,0.414l0.043,0.172l0.086,0.134
		l0.111,0.1l0.119,0.068l0.14,0.137l-0.018,0.17l-0.074,0.205l-0.021,0.231l0.015,0.75l-0.294,1.074l-0.064,0.573l0.094,0.293
		l0.372,0.6l0.084,0.271l-0.065,0.315l-0.143,0.244l-0.176,0.23l-0.407,0.722l-0.419,0.455l-0.46,0.292l-0.395-0.022l-0.483-0.242
		l-0.323,0.107l-0.281,0.404l-0.359,0.642l-0.326,0.373l-0.474,0.353l-0.503,0.262l-0.406,0.109l-0.491-0.152l-0.812-0.675
		l-0.49-0.112l-0.605,0.017l-1.716-0.296l-1.111,0.017l-2.062,0.484l-1.066,0.046l-5.855-1.651l-0.585-0.261l-0.526-0.489
		l-0.67-1.383l-0.407-0.534l-0.465,0.111l-0.574,0.727L747,313.766l-0.38-0.139l-0.251-0.463l-0.102-0.559l-0.178-0.482l-0.482-0.24
		l-0.696,0.245l-0.553,0.685l-0.883,1.564l-0.776,0.483l-0.815-0.225l-0.856-0.478l-0.875-0.27l-0.327,0.092l-0.631,0.446
		l-0.363,0.133l-1.821,0.003l-0.865-0.184l-1.472-0.765l-0.82-0.275l-0.799-0.09l-0.732,0.064l-0.706,0.253l-0.742,0.485
		l-0.851,0.752l-0.311,0.132l-1.232,0.05l-0.416,0.161l-1.802,1.383l-0.754,0.119l-1.127,0.275l-0.532,0.254l-0.513,0.376
		l-0.437,0.539l-0.611,1.254l-0.361,0.512l-0.447,0.241l-2.332,0.268l-0.525-0.126l-1.108-0.656l-0.406-0.498l-0.587-1.387
		l-0.319-0.387l-0.273,0.065l-1.063,0.774l-0.19,0.041l-0.231-0.061l-0.435-0.187l-1.819,0.445l0.376,1.056l0.055,0.507
		l-0.162,0.462l-0.834,1.173l-0.269,0.911l-0.102,2.299l-0.359,0.741l-0.823,0.238l-7.909-0.543l-2.903-0.665l-0.392-0.012
		l-0.231,0.128l-0.454,0.567l-1.445,1.24l-0.338,0.149l-1.429,0.192l-0.958,0.305l-0.497,0.376v-0.013l-1.914-2.238l-4.698-7.707
		l-0.347-0.395l-0.371-0.268l-0.435-0.167l-9.766,0.44l-4.343,0.925l-10.593,0.365l-2.03,0.593l-3.916,1.994l-2.734-5.147
		l-1.381-2.046l-0.68-0.766l-0.692-0.631l-0.668-0.479l-0.706-0.398l-2.601-1.055l-0.395-0.226l-0.349-0.344l-0.29-0.511
		l-0.212-0.669l-0.135-0.848l0.078-2.732l0.799-6.145l-0.207-0.897l-0.314-0.388l-0.475-0.434l-4.037-2.199l-10.498-8.462
		l-13.969-3.089l-4.443-2.115l-1.224-0.25l-0.678-0.005l-0.68,0.084l-0.746,0.219l-3.946,2.177l0.247-4.098l-0.212-3.135
		l-0.989-4.306l-0.953-2.013l-0.314-0.494l-1.189-2.342l-0.556-5.89l0.311-2.333l0.544-1.457l0.059-2.053l-0.309-1.928l-0.399-1.399
		l-1.386-3.536l-4.455-8.332l-0.892-2.131l-0.395-1.239l0.247-0.759l0.537-1.719l0.021-0.712l-0.119-0.932l-0.835-2.598
		l-0.763-4.765l-0.086-1.562l0.093-0.184l0.102-0.142l0.352-0.381l0.207-0.328l0.1-0.214l-0.012-0.154l-0.109-0.246l-1.662-2.448
		l-0.079-0.121l7.035-3.16l0.944-0.176l2.553,0.277l2.004,1.076l0.692,0.165l0.742-0.053l0.998-0.304l2.092-1.073l1.336-1.237
		l0.487-0.339l0.516-0.246l0.53-0.147l1.17-0.051l0.395-0.262l0.247-0.772l0.059-1.265l0.069-0.556l0.238-0.654l1.593-3.202
		l0.597-0.876l0.685-0.715l4.671-3.582l0.616-0.846l0.373-0.401l1.193-0.85l0.402-0.422l1.191-0.971l3.97-2.101l0.48-0.109
		l0.982,0.171l0.483-0.002l0.299-0.135l2.836-2.862l0.464-0.293l0.963-0.297l0.464-0.247l1.448-1.458l1.883-1.145l1.983-0.744
		l1.074,0.164l2.116,1.097l1.106,0.281l4.293-0.625l2.163,0.547l5.603,3.301l0.411,0.412l0.295,0.465l0.497,1.042l0.316,0.478
		l3.376,3.789l3.647,2.726l0.44,0.155l1.434-0.013l0.525,0.155l0.818,0.011l1.602-0.245l2.42,0.57l0.756-0.004l0.796-0.256
		l6.963-4.056l1.88-0.572l1.892,0.02l1.907,0.747l6.324,2.546l0.96,0.873l0.832,1.195L695.871,206.121z"/>
	<path class="st0" d="M105.413,314.421l0.029-0.448l-0.247-1.249l-0.682-1.132l-0.823-0.83l-0.323-0.48l-0.124-0.689l0.064-0.268
		l0.269-0.513l0.048-0.256l-0.086-0.349l-0.159-0.197l-0.188-0.16l-0.174-0.235l-0.226-0.616l-0.152-0.589l-0.197-0.558
		l-0.352-0.526l-0.468-0.434l-0.49-0.307l-0.521-0.153l-0.544,0.017l-0.908-0.186l-0.697-0.77l-5.599-9.953l-0.055-0.252l0.05-0.244
		l0.155-0.23l0.238-0.496l0.102-0.575l-0.064-0.555l-0.276-0.438l-0.623-0.44l-0.147-0.901l0.043-1.097l-0.055-1.03l-0.321-0.46
		l-0.751-0.617l-0.299-0.467l-0.68-1.702l-0.312-0.494l-0.254-0.691l0.231-0.476l0.278-0.369l-0.109-0.371l-0.49-0.393l-0.492-0.285
		l-2.125-0.589l-1.065-0.488l-1-0.688l-0.853-0.888l-0.281-0.47l-0.273-0.673l-0.152-0.726l0.088-0.624l0.193-0.744l-0.103-0.624
		l-0.351-0.376l-0.969-0.021l-0.905-0.284l-0.379,0.188l-0.176,0.423l-0.032,0.456l-0.074,0.455l-0.301,0.417l-0.743,0.267
		l-2.427,0.199l-0.742-0.199l-0.254-0.406l-0.209-0.98l-0.178-0.46l-0.371-0.373l-0.811-0.173l-0.385-0.197l-0.262-0.444
		l-0.178-0.577l-0.202-0.493l-0.321-0.193l-0.388-0.103l-0.307-0.325l-0.175-0.481l0.013-0.579l-0.1-0.948l-0.692-0.363
		l-0.877,0.035l-0.651,0.242l-1.148,0.045l-0.373-0.051l-0.92-0.517l-0.344-0.021l-0.46,0.22l-1.117,0.921l-0.393,0.428
		l-0.566,0.444l-0.581,0.112l-1.186-0.241l-2.127-0.009l-0.662-0.297l-0.002-0.004h-0.006l-2.604-3.577l-0.357-0.31l-0.634-0.171
		l-1.33,0.199l-0.599-0.028l-0.692-0.503l-1.521-1.579l-0.656-0.23l-0.58,0.064l-0.452-0.161l-0.91-0.753l-0.355-0.494l-0.168-0.612
		l-0.107-0.673l-0.175-0.659l-0.057-0.685l0.327-1.288l-0.181-0.611l-1.436-1.716l-0.542-0.263l-0.46,0.07l-0.448,0.153
		l-0.528-0.013l-0.765-0.505l-1.18-1.571l-0.626-0.521l-1.593-0.839l-0.409-0.063l-0.79,0.078l-0.403-0.034l-0.407-0.195
		l-0.749-0.595l-0.632-0.333l-0.378-0.442l-0.214-0.142l-0.242-0.011l-0.544,0.124l-0.269-0.006l-0.773-0.435l-0.718-0.795
		l-0.207-0.845l0.751-0.592l0.326-0.266l0.188-0.383l0.128-0.377l0.156-0.258l1.032-0.697l0.203-0.32l-0.102-0.888l-0.59-0.733
		l-1.341-0.937l-0.53-0.179l-1.032,0.079l-1.516-0.716l-0.474-0.312l-0.349-0.429l-0.086-0.314l-0.038-0.724l-0.102-0.331
		l-0.197-0.238l-0.247-0.161l-0.506-0.213l-0.388-0.423L30,239.194l0.182-0.646l0.305-0.532l1.816-0.894l0.845-0.775l-0.008-1.264
		l-0.352-0.404l-0.44-0.169l-0.366-0.292l-0.137-0.767l0.118-0.745l0.197-0.497l0.136-0.517l-0.071-0.814l-0.331-1.059l-0.04-0.416
		l0.476,0.205l0.418,0.036l2.337-0.349l0.43-0.244l0.402-0.56l0.846-0.839l1.812-1.123l0.815-0.821l0.102-0.911l-0.442-1.036
		l-0.314-1.082l0.466-1.042l0.226-0.393l0.371-1.164l0.299-0.486l0.58-0.371l4.113-0.759l0.533-0.002l1.132,0.379l0.559,0.053
		l1.457-0.102l0.439-0.161l0.964-0.631l0.332-0.137l0.037-0.005l0.409,0.06L51,218.189l0.598,0.842l0.483,0.455l0.547,0.143
		l3.478,0.245l0.108-0.205l-0.471-1.136l0.03-1.332l0.059-0.562l0.218-0.381l0.477-0.126l0.447,0.203l0.247,0.452l0.181,0.558
		l0.245,0.516l0.229,0.355l0.164,0.388l0.183,0.344l0.291,0.223l0.891-0.166l3.373-1.493l0.794-0.666l0.468-0.848l-0.323-0.892
		l-0.537-0.988l0.21-0.835l0.669-0.444l0.823,0.18l1.346,1.288l0.661,0.438l0.748-0.031l0.596-0.614l0.478-0.895l0.529-0.688
		l0.776,0.006l1.034-0.701l2.208-0.792l1.518-0.814l0.462-0.414l0.235-0.541l-0.256-0.64l-0.41-0.285l-1.029-0.51l-0.288-0.447
		l0.021-0.313l0.335-0.403l0.037-0.383l-0.106-0.212l-0.411-0.365l-0.132-0.245l-0.001-0.45l0.133-1.385l0.064-0.334l0.215-0.187
		l0.793-0.691l1.22-0.445l3.352-0.107l1.236-0.29l1.133-0.58l0.617-0.919l0.02-0.39l0.54,0.274l1.251,0.754l0.25,0.231l0.136,0.187
		l0.14,0.24l0.58,1.539l0.659,2.227l0.223,1.1l0.029,0.221l0.021,0.866l0.029,0.231l0.078,0.448l0.143,0.306l1.51,2.439l0.34,0.787
		l0.392,1.73l0.064,0.188l0.176,0.351l0.15,0.367l0.121,0.396l0.145,0.363l0.155,0.213l0.207,0.242l0.639,0.605l4.243,2.151
		l2.47,2.048l0.264,0.565l0.195,0.57l-0.107,0.364l-0.05,0.231l0.043,0.263l0.04,0.15l0.128,0.369l0.378,0.87l0.097,0.153
		l0.102,0.119l0.606,0.326l1.348,0.047l2.287,0.323l0.571,0.083l0.162,0.116l0.124,0.193l0.09,0.383l0.107,0.991l-0.005,0.208
		l-0.019,0.194l-0.069,0.37l-0.019,0.197l0.005,0.206l0.024,0.214l0.076,0.265l0.145,0.304l1.445,2.271l0.176,0.202l0.214,0.165
		l0.078,0.134l0.54,1.54l1.357,3.112l0.368,0.325l0.563,0.391l1.683,0.554l0.292,0.168l0.162,0.169l0.178,0.234l0.542,0.905
		l0.711,0.724l0.228,0.298l0.119,0.213l0.333,0.786l0.747,2.87l0.114,0.258l0.078,0.276l0.036,0.277l-0.143,0.862l0.014,0.695
		l-1.16,0.02l-2.256-0.542l-2.323,0.49l-6.925,3.243l-2.458,0.487l-0.071,0.413l0.06,0.3l0.169,0.317l0.278,0.292l1.562,0.698
		l0.423,0.383l0.302,0.624l0.844,2.616l0.112,0.675l-0.105,0.501l-0.925,1.374l-0.262,0.806l-0.064,0.831l0.121,1.045l0.228,0.961
		l0.504,2.974l0.076,0.817l0.078,0.485l0.164,0.582l0.385,0.409l1.134,0.835l0.385,0.374l0.673,0.789l0.243,0.359l0.259,0.601
		l0.873,3.257l1.947,5.678l0.635,1.212l0.461,0.535l0.502,0.717l0.395,0.875l1.557,4.74l0.143,0.693l0.05,0.866l-0.043,0.654
		l-0.197,0.61l-0.157,0.409l-0.093,0.5l0.064,0.621l0.59,1.013l3.126,3.889l1.498,2.269l-0.074,1.103l-1.077,2.777l-0.186,0.756
		l-0.093,0.745l0.024,0.689l0.243,0.781l0.504,0.918l1.032,0.853l0.692,0.454l0.887,0.375l1.89,1.302l2.335,2.178l1.652,2.366
		l1.864,1.205l-0.062,0.819l-0.124,0.636l-0.542,0.519l-0.428,0.206l-3.371-0.46l-2.858,0.357l-0.383-0.183l-0.67-0.464
		l-0.428,0.111l-0.309,0.294l-0.257,0.519l-0.466,1.239l-0.387,0.476l-0.599,0.218l-0.723-0.157l-0.744-0.543l-0.535-0.69
		l-0.896-1.485l-0.513-0.461l-0.67-0.012l-0.675,0.099l-0.732-0.05l-1.498-0.674l-1.728-0.386L105.413,314.421z"/>
	<path class="st0" d="M152.835,370.057l-0.541,0.056l-0.445-0.136l-0.442-0.054l-0.447,0.03l-0.449,0.119l-0.687-0.037l-0.663-0.284
		l-1.27-0.759l-0.309-0.04l-0.768,0.17l-0.352,0.023l-1.063-0.156l-2.627,0.728l-1.529,0.084l-2.23,0.506l-0.371-0.015l-1.039-0.434
		l-0.399-0.061l-1.129,0.178l-0.376-0.007l-1.051-0.38h-0.402l-1.127,0.306l-0.58-0.143l-1.961-1.421l-0.754-0.348l-0.751-0.194
		l-0.773-0.046l-0.789,0.093l-1.289,0.254l-3.958-0.224l-0.513,0.056l-0.944,0.311l-0.476,0.054l-2.277-0.574l-0.269,0.059
		l-0.207,0.115l-0.214,0.024l-0.281-0.207l-1.512-1.955l-0.404-0.283l-0.497,0.015l-0.395,0.286l-0.371,0.413l-0.392,0.325
		l-0.456,0.017l-2.244-0.521l-1.491-0.787l-0.335-0.317l-0.506-0.772l-0.292-0.348l-0.775-0.418l-1.025-0.224l-1.046-0.045
		l-0.832,0.133l-1.602,0.943l-0.742-0.007l-0.359-0.943l0.062-0.542l0.128-0.356l0.017-0.36l-0.281-0.557l-0.397-0.307l-0.934-0.419
		l-0.128-0.375l-0.012-1.092l-0.285-0.903l-0.357-0.861l-0.214-0.962l-0.352-0.681l-1.51-1.113l-0.487-0.573l1.046-7.789
		l0.326-0.731l4.795-6.534l1.286-1.233l0.254-0.192l0.373-0.951l0.069-1.533l-0.219-1.513l-0.478-0.89l-0.606-0.921l-1.141-3.77
		l-0.069-0.678l0.226-0.508l0.685-0.885l0.906-2.423l0.252-0.624l0.352-1.328l0.292-0.606l0.494-1.199l0.223-0.736l0.05-0.513
		l-0.345-0.452l-0.487-0.181l-0.354-0.311l0.05-0.858l0.314-1.43l0.059-0.902l0.547-0.013l1.728,0.386l1.498,0.674l0.732,0.05
		l0.675-0.099l0.67,0.012l0.513,0.461l0.896,1.485l0.535,0.69l0.744,0.543l0.723,0.157l0.599-0.218l0.387-0.476l0.466-1.239
		l0.257-0.519l0.309-0.294l0.428-0.111l0.67,0.464l0.383,0.183l2.858-0.357l3.371,0.46l0.428-0.206l0.542-0.519l0.124-0.636
		l0.062-0.819l-1.864-1.205l-1.652-2.366l-2.335-2.178l-1.89-1.302l-0.887-0.375l-0.692-0.454l-1.032-0.853l-0.504-0.918
		l-0.243-0.781l-0.024-0.689l0.093-0.745l0.186-0.756l1.077-2.777l0.074-1.103l-1.498-2.269l-3.126-3.889l-0.59-1.013l-0.064-0.621
		l0.093-0.5l0.157-0.409l0.197-0.61l0.043-0.654l-0.05-0.866l-0.143-0.693l-1.557-4.74l-0.395-0.875l-0.502-0.717l-0.461-0.535
		l-0.635-1.212l-1.947-5.678l-0.873-3.257l-0.259-0.601l-0.243-0.359l-0.673-0.789l-0.385-0.374l-1.134-0.835l-0.385-0.409
		l-0.164-0.582l-0.078-0.485l-0.076-0.817l-0.504-2.974l-0.228-0.961l-0.121-1.045l0.064-0.831l0.262-0.806l0.925-1.374l0.105-0.501
		l-0.112-0.675l-0.844-2.616l-0.302-0.624l-0.423-0.383l-1.562-0.698l-0.278-0.292l-0.169-0.317l-0.06-0.3l0.071-0.413l2.458-0.487
		l6.925-3.243l2.323-0.49l2.256,0.542l1.16-0.02l1.044-0.428l1.31-1.127l2.254-3.02l1.422-2.438l0.746-0.727l2.266-1.406
		l1.051-0.435l0.849-0.139l0.785,0.168l0.582,0.377l0.368,0.395l0.288,0.597l1.574,6.064l0.447,0.258l0.404,0.033l0.571-0.271
		l0.428-0.062l0.556,0.111l0.632,0.726l0.497,0.996l0.815,2.36l0.454,0.906l0.475,0.396l0.549-0.077l1.048-0.825l0.366-0.158
		l8.361,2.031l2.534,0.596l1.124-0.419l1.067-0.966l0.946-1.104l1.148-0.901l0.889-0.324l0.718-0.079l1.174,0.22l0.24,0.108
		l0.15,0.118l0.109,0.119l0.318,0.235l1.859,1.025l0.435,0.475l0.121,0.216l0.093,0.205l0.062,0.187l0.045,0.208l0.097,0.893
		l0.162,0.859l0.114,0.387l0.071,0.176l0.164,0.295l0.095,0.137l0.021,0.026l0.528,0.39l1.486,1.588l0.504,0.434l2.102,1.134
		l0.704,0.538l0.273,0.293l0.043,0.129l0.04,0.236l-0.033,0.156l-0.038,0.114l-0.064,0.104l-0.064,0.134l-0.112,0.329l-0.038,0.263
		l-0.019,0.336l0.002,0.609l-0.045,0.311l-0.064,0.239l-0.357,0.773l-0.754,1.07l-2.729,2.939l-1.189,1.026l-1.666,1.073
		l0.949,3.184l0.513,1.278l0.262,1.236l0.074,0.943l-0.01,0.957l0.243,0.648l2.755,3.808l2.049,3.63l0.067,1.826l0.071,0.527
		l0.147,0.659l0.913,1.281l1.731,1.648l4.847,4.437l3.195,2.084l1.581,0.744l0.335,0.55l0.135,0.704l-0.05,0.879l0.007,0.955
		l0.257,1.227l0.461,1.262l1.296,2.419l2.073,3.075l0.83,1.685l-0.04,1.253l-0.209,0.609l-0.623,0.894l-0.949,0.758l-4.712,2.141
		l-2.044,1.286l-2.527,2.432l-1.286,0.429l-0.673,0.119l-2.425-0.257l-0.528-0.132l-0.504,0.018l-0.314,0.3l0.055,0.709l0.243,0.593
		l1.476,2.894l0.364,1.052l0.162,1.081l-0.088,1.062l-0.366,0.928l-2.634,4.762l-2.197,5.564l-0.095,0.594l0.219,1.681l-0.01,0.62
		l-0.316,0.555l-0.582,0.367l-0.283,0.455l-0.844,1.844l-0.48,0.65l-0.537,0.495l-2.637,1.58l-0.594,0.595l-0.437,0.767
		l-0.171,1.135l0.585,7.225l-0.143,3.93l-1.196,10.363l-0.031,0.157L152.835,370.057z"/>
	<path class="st0" d="M693.517,327.513l-0.314,0.238l-0.461,1.051l-0.2,0.602l-0.333,0.479l-3.863,4.026l-3.312,6.537l-0.14,0.902
		l0.319,1.028l0.487,0.754l0.219,0.781l-0.49,1.104l-1.391,2l-0.597,0.477l-1.129,0.596l-0.371,0.104l-0.354,0.002l-1.182-0.172
		l-0.226,0.099l-0.445,0.524l-4.957,4.257l-1.724,2.008l-0.575,0.481l-0.68,0.325l-3.792,1.035l-3.121,0.593l-4.852,0.008
		l-4.312,0.677l-0.773-0.13l-3.863-1.549l-0.782-0.069l-0.782,0.142l-3.119,1.222l-0.228,0.171l-0.1,0.306l-0.178,1.487
		l-0.216,0.729l-0.673,1.439l-1.246,1.885l-4.764,4.542l-1.108,0.717l-0.328,0.328l-0.233,0.355l-0.433,0.844l-0.716,1.023
		l-0.782,0.689l-0.88,0.432l-1.01,0.259l-1.365,0.126l-0.563,0.233l-1.189,1.31l-2.346,1.686l-1.453,1.548l-0.861,0.71l-0.697,0.213
		l-1.664-0.181l-0.352-0.137l-0.649-0.542l-0.361-0.144l-8.473-0.767l-2.023-0.866l-1.006-0.005l-5.168-1.428l-3.088-1.414
		l-0.649-0.487l-0.495-0.653l-0.934-1.604l-1.899-1.924l-0.656-0.444l-0.763-0.153l-6.257,0.109l-2.211-0.655l-0.618,0.011l0-0.007
		l-0.01-0.15l-0.121-1.868v-1.484l0.102-1.607l-0.064-0.714l-0.221-0.623l-0.583-0.76l-0.483-0.446l-0.601-0.418l-0.528-0.46
		l-0.421-0.67l-0.247-2.047l-0.264-0.811l-0.747-0.668l-0.62-0.383l-0.354-0.417l-0.135-0.234l-0.021-1.032l0.404-8.721
		l-0.319-1.672l-0.49-1.531l-2.083-4.551l-0.34-1.309l-0.261-0.619l-0.421-0.492l-8.508-3.919l-0.133-1.02l0.1-0.422l0.231-0.571
		l1.453-2.15l0.209-0.517l0.107-0.656l-0.069-0.679l-0.147-0.721l-0.718-2.494l-0.219-1.095l-0.071-0.721l0.078-2.64l0.361-1.28
		l0.568-1.204l2.123-3.744l1.617-3.21l0.618-2.293l0.749-6.323l0.271-0.979l0.357-0.847l0.794-1.366l2.315-2.719l0.713-0.616
		l0.998-0.66l1.001-0.443l0.369-0.086l0.428-0.015l2.919,0.572l2.748,0.181l-0.442-2.016l-0.143-1.565l0.017-1.066l0.147-1.685
		l0.102-0.698l0.131-0.545l0.181-0.515l0.228-0.462l0.333-0.501l0.406-0.487l0.485-0.464l1.317-0.908l7.068-2.71l1.174-0.118
		l0.33-0.12l0.566-0.368l0.164-0.058l1.688-0.317l0.212,3.135l-0.247,4.098l3.946-2.177l0.746-0.219l0.68-0.084l0.678,0.005
		l1.224,0.25l4.443,2.115l13.969,3.089l10.498,8.462l4.037,2.199l0.475,0.434l0.314,0.388l0.207,0.897l-0.799,6.145l-0.078,2.732
		l0.135,0.848l0.212,0.669l0.29,0.511l0.349,0.344l0.395,0.226l2.601,1.055l0.706,0.398l0.668,0.479l0.692,0.631l0.68,0.766
		l1.381,2.046l2.734,5.147l3.916-1.994l2.03-0.593l10.593-0.365l4.343-0.925l9.766-0.44l0.435,0.167l0.371,0.268l0.347,0.395
		l4.698,7.707l1.914,2.238V327.513z"/>
	<path class="st0" d="M587.77,367.389l-0.26,0.004l-0.347,0.081l-0.238,0.222l-0.216,0.285l-0.271,0.262l-0.471,0.22l-0.991,0.256
		l-0.456,0.22l-1.307,1.007l-0.594,0.627l-0.509,0.748l-4.305,8.858l-0.238,0.807l-0.021,0.518l0.1,1.102l-0.014,0.544l-0.128,0.576
		l-0.186,0.414l-0.487,0.776l-0.58,1.296l-0.242,0.358l-0.055,0.065l-0.552,0.561l-0.523,0.898l-0.409,1.017l-0.214,0.937
		l-0.014,1.312l0.326,0.66l1.441,0.875l0.399,0.521l0.174,0.584l0.128,1.243l0.361,1.192l0.561,1.021l2.085,2.909l0.775,0.787
		l2.589,1.764l0.706,0.7l0.63,0.815l2.111,3.786l0.316,1.076l0.083,0.937l-0.064,1.054l-0.271,0.867l-0.528,0.371l-0.395,0.076
		l-1.091,0.499l-1.683-0.076l-0.433,0.194l-3.602,4.44l-0.68,0.661l-0.751,0.374l-2.446,0.215l-0.628,0.267l-1.445,1.183
		l-5.577,2.264l-2.822,1.615l-0.913,0.88l-3.145,4.383l-2.689,2.875l-0.331,0.638l-0.568,1.561l-0.756,1.355l-0.953,1.072
		l-2.147,1.747l-0.552,0.551l-0.566,1.633l-0.416,0.521l-6.138,2.693l-0.787,0.499l-0.288,0.276l-0.205,0.244l-0.216,0.204
		l-0.338,0.162l-0.402,0.075l-1.274-0.016l-1.716,0.239l-5.644,2.494l-3.428,2.548l-0.183,0.081l-0.126-0.006l-0.112,0.05
		l-0.143,0.253l-0.086,0.122l-0.114,0.062l-3.602,0.275l-1.11,0.379l-0.618,0.074l-5.956-0.735l-0.763,0.062l-2.268,1.205
		l-0.786,0.275l-0.729,0.052l-5.99-1.145l-4.984,0.08l-1.955-0.546l-1.321-0.132l-2.937,0.474l0-0.008l-0.72-14.961l0.06-0.763
		l0.33-1.34l0.262-1.469l0.143-1.421l-0.014-1.223l-0.107-1.22l-1.134-6.051l-0.261-2.9l-0.069-3.803l-0.166-4.779l-4.805-14.737
		l-2.049-4.137l-0.207-0.71l-0.1-0.578l0.057-0.968l0.925-4.624l1.21-0.882l0.328-0.603l0.357-0.957l0.661-5.263l0.326-1.229
		l0.435-0.591l0.582-0.266l1.731-0.158l8.161-1.049l2.242-1.36l1.072-2.1l0.713-1.133l0.856-0.649l0.399-0.143l0.376-0.039
		l0.892,0.032l0.49-0.163l0.193-0.363l-0.009-0.69l-0.49-1.781l-1.688-10.597l-0.442-6.694l0.086-2.445l0.556-3.35l1.305-3.947
		l-0.863-0.058l-3.126,1.124l-0.661-0.319l-0.628-0.685l-0.832-1.475l-0.297-0.428l-0.266-0.467l-0.226-1.157l0.088-1l0.649-4.96
		l0.071-2.226l-0.064-0.676l-0.216-0.988l-0.566-1.616l-0.894-1.395l-3.654-3.927l-0.397-0.595l-0.052-0.451l0.212-0.491
		l0.516-0.637l2.23-1.913l0.209-0.286l-1.136-0.163l-1.588-0.014l-0.946-0.221l-0.711-0.307l-0.635-0.609l-0.492-0.64l-0.345-1.475
		l1.048-0.616l1.108-0.321l1.49-0.283l2.028-0.023l3.54,0.7l2.819,0.345l3.659-1.738l1.647-0.958l0.811-0.789l0.297-0.373
		l1.595-3.932l2.791,1.267l0.425,1.332l0.1,0.522l0.067,0.691l-0.114,2.401l0.069,0.229l0.242,0.236l0.2-0.061l0.164-0.116
		l0.799-1.225l0.409-0.408l0.402-0.187l0.406,0.109l0.335,0.468l0.233,0.909l0.128,0.961l0.036,0.905l-0.052,0.689l-0.169,0.866
		l-0.399,1.089l-1.714,3.234l-0.223,0.663l-0.135,0.718l-0.043,0.422v0.641l0.036,0.316l0.164,0.56l0.107,0.285l0.744,1.553
		l2.114,2.119l0.585,1.066l0.77,1.891l0.487,0.74l0.611,0.628l3.395,2.377l2.315,0.27l5.725-0.609l0.996-0.364l1.11-0.687
		l3.604-3.003l0.176-0.28l0.716-1.684l0.894-3.06l0.086-0.606l-0.014-0.625l-0.632-3.064l0.012-1.027l0.266-0.399l0.946-0.117
		l1.343,0.084l0.554,0.317l0.63,0.666l0.68,1.285l1.281,1.999l3.754,3.912l0.449,0.695l0.437,0.982l0.644,2.001l0.72,1.255
		l2.009,1.95l4.807,2.957l1.54,0.588l1.298,0.031l1.564-1.116l4.391-4.061l8.508,3.919l0.421,0.492l0.261,0.619l0.34,1.309
		l2.083,4.551l0.49,1.531l0.319,1.672l-0.404,8.721l0.021,1.032l0.135,0.234l0.354,0.417l0.62,0.383l0.747,0.668l0.264,0.811
		l0.247,2.047l0.421,0.67l0.528,0.46l0.601,0.418l0.483,0.446l0.583,0.76l0.221,0.623l0.064,0.714l-0.102,1.607v1.484l0.121,1.868
		l0.01,0.15L587.77,367.389z"/>
	<path class="st0" d="M228.52,442.883l-0.197-0.049l-0.164-0.514l-0.309-3.937l-0.15-0.729l-0.276-0.639l-0.561-0.729l-8.874-8.857
		l-0.785-1.028l-0.447-1.183l-0.219-1.326l-0.093-1.456l-0.197-1.152l-3.228-7.031l-2.375-7.609l-1.241-2.816l-0.575-0.685
		l-0.813-0.24l-1.201-0.064l-2.189-0.577l-0.197-0.334l-0.005-0.756l0.219-1.841l-0.157-1.608l0.029-0.315l0.102-0.323l0.309-0.617
		l0.159-0.879l0.281-0.542l0.68-0.929l0.195-0.634l-0.421-0.213l-7.881,1.033l-0.989-0.143l-2.025-1.119l-4.253-1.336l-0.521-0.248
		l-0.328-0.422l-0.262-0.552l-0.354-0.484l-1.59-1.523l-2.938-1.844l-0.694-0.36l-1.467,0.005l-0.642-0.252l-0.38-0.513
		l-0.609-1.399l-0.414-0.587l-1.897-2.093l-0.302-0.211l-0.38-0.162l-0.376-0.044l-1.041,0.503l-1.039,0.012l-1.921-0.281
		l-1.096-0.419l-1.217-1.336l-3.692-5.198l-0.592-0.535l-3.749-1.956l-2.408-0.124l-0.475-0.178l-0.887-0.58l-0.468-0.21
		l-0.547-0.034l-1.11,0.188l-0.57-0.047l-1.804-0.849l-0.611-0.072l-1.454,0.152l0.001-0.007l0.031-0.157l1.196-10.363l0.143-3.93
		l-0.585-7.225l0.171-1.135l0.437-0.767l0.594-0.595l2.637-1.58l0.537-0.495l0.48-0.65l0.844-1.844l0.283-0.455l0.582-0.367
		l0.316-0.555l0.01-0.62l-0.219-1.681l0.095-0.594l2.197-5.564l2.634-4.762l0.366-0.928l0.088-1.062l-0.162-1.081l-0.364-1.052
		l-1.476-2.894l-0.243-0.593l-0.055-0.709l0.314-0.3l0.504-0.018l0.528,0.132l2.425,0.257l0.673-0.119l1.286-0.429l2.527-2.432
		l2.044-1.286l4.712-2.141l0.949-0.758l0.623-0.894l0.209-0.609l0.04-1.253l-0.83-1.685l-2.073-3.075l-1.296-2.419l-0.461-1.262
		l-0.257-1.227l-0.007-0.955l0.05-0.879l-0.135-0.704l-0.335-0.55l-1.581-0.744l-3.195-2.084l-4.847-4.437l-1.731-1.648
		l-0.913-1.281l-0.147-0.659l-0.071-0.527l-0.067-1.826l5.61-0.658l2.867-1.108l3.036-1.626l2.152-1.503l0.675-0.164l0.803,0.026
		l1.203,0.251l0.984,0.417l0.594,0.371l0.742,0.64l0.283,0.177l0.25,0.073l1.605,0.24l2.698,0.954l3.029,0.298l2.684-0.087
		l0.387-0.088l0.868-0.339l0.2-0.035l0.718,0.054l0.689-0.042l1.976,0.618l0.682,0.349l0.433,0.474l0.511,0.706l0.395,0.649
		l0.297,0.665l0.271,0.395l0.262,0.301l0.409,0.333l0.818,0.131l0.953-0.584l0.663-0.273l5.853,0.347l0.939,0.749l0.82,0.396
		l0.732,0.24l0.24,0.122l1.441,1.388l1.521,1.125l8.394,5.367l0.625,0.315l0.335,0.095l0.773,0.419l0.492,0.531l0.342,0.482
		l0.499,1.728l0.542,1.234l1.357,1.724l0.478,0.842l0.478,2.348l0.506,1.417l0.333,0.755l0.19,1.986l0.801,0.044l5.972-1.853
		l0.815,0.098l0.792,0.545l1.964,0.957l0.223,2.14l0.185,0.881l0.433,1.071l0.656,1.081l1.629,1.845l0.207,0.532l-0.097,1.159
		l0.14,0.488l0.117,0.313l1.136,0.173l2.494,0.055l0.169,0.028l0.342,0.148l0.559,0.324l0.226,0.057l0.304,0.021l0.57-0.069
		l0.378-0.099l0.792-0.493l1.215-1.087l0.202-0.263l0.307-0.577l0.109-0.13l0.173-0.093l0.402-0.125l1.001,0.012l1.103,0.736
		l1.671,1.084l1.847,0.459l0.252,2.317l-0.188,2.707l0.048,0.806l0.14,0.79l0.216,0.769l0.54,1.514l0.207,0.394l0.357,0.399
		l1.029,0.58l0.466,0.366l0.385,0.664l0.483,1.521l0.447,0.601l2.002,1.449l0.632,0.707l0.87,1.217l0.487,0.417l0.521,0.252
		l1.139,0.38l0.713,0.113l0.628,0.214l0.39,0.196l0.834,0.989l4.393,6.209l0.63,1.414l0.414,1.968l1.298,9.27l-0.107,1.316
		l-0.288,1.696l-2.627,9.153l-0.732,1.467l-0.321,0.343l-0.889,0.78l-0.335,0.37l-0.333,0.61l-0.204,0.737l-0.081,1.148l0.017,1.057
		l0.44,4.246l-0.057,3.352l-0.131,0.938l-0.373,1.495l-0.364,0.978l-0.542,0.905l-0.347,0.421l-0.502,0.491l-1.122,0.841
		l-2.948,1.588l-0.335,0.446l-0.147,0.69l-0.021,2.873l0.832,8.201v0.97l-1.077,8.773l0.242,2.866l-0.033,0.975l-0.2,1.004
		l-1.747,5.864l-1.143,2.473l-0.188,0.841l-0.012,0.989l1.203,16.489l0,0.005l-7.553-1.005l-7.553-1.006l-0.06,0.006l-8.235,0.86
		l-8.235,0.86l-2.194,0.363L228.52,442.883z"/>
	<path class="st0" d="M303.405,446.808l-3.391,1.038l-9.341-1.241l-9.342-1.241l-9.341-1.242l-9.341-1.243l0-0.005l-1.203-16.489
		l0.012-0.989l0.188-0.841l1.143-2.473l1.747-5.864l0.2-1.004l0.033-0.975l-0.242-2.866l1.077-8.773v-0.97l-0.832-8.201l0.021-2.873
		l0.147-0.69l0.335-0.446l2.948-1.588l1.122-0.841l0.502-0.491l0.347-0.421l0.542-0.905l0.364-0.978l0.373-1.495l0.131-0.938
		l0.057-3.352l-0.44-4.246l-0.017-1.057l0.081-1.148l0.204-0.737l0.333-0.61l0.335-0.37l0.889-0.78l0.321-0.343l0.732-1.467
		l2.627-9.153l0.288-1.696l0.107-1.316l-1.298-9.27l-0.414-1.968l-0.63-1.414l-4.393-6.209l-0.834-0.989l-0.39-0.196l-0.628-0.214
		l-0.713-0.113l-1.139-0.38l-0.521-0.252l-0.487-0.417l-0.87-1.217l-0.632-0.707l-2.002-1.449l-0.447-0.601l-0.483-1.521
		l-0.385-0.664l-0.466-0.366l-1.029-0.58l-0.357-0.399l-0.207-0.394l-0.54-1.514l-0.216-0.769l-0.14-0.79l-0.048-0.806l0.188-2.707
		l-0.252-2.317l-0.055-1.898l0.135-0.701l0.982-2.406l3.54-11.175l0.221-1.01l0.086-1.054l0.164-0.926l0.366-0.678l0.694-0.401
		l0.789-0.125l2.152-0.014l1.455-0.33l1.322-0.626l1.933-2.812l0.628-1.359l0.3-0.978l-0.121-0.716l-0.202-0.623l0.033-0.785
		l0.321-0.552l1.01-1.128l0.697-1.086l0.392-0.815l0.271-0.714l0.147-0.58l0.136-0.956l0.005-0.349l-0.017-0.252l-0.078-0.296
		l1.512-1.386l0.887-0.578l2.304-0.661l1.852-0.244l0.406,0.044l0.399,0.141l0.376,0.22l0.307,0.255l0.321,0.376l0.525,1.46
		l0.052,2.224l0.252,0.616l0.471,0.52l4.003,2.639l0.611,0.227l0.704,0.012l2.819-0.042l1.892-0.319l0.697-0.276l0.383-0.21
		l0.461-0.355l1.16-1.505l0.468-0.362l0.597-0.2l1.488-0.241l0.466-0.263l0.404-0.379l0.418-0.522l0.601-0.612l1.633-0.972
		l0.551-0.058l-0.043,2.701l0.169,1.014l0.33,0.858l0.38,0.53l0.692,0.688l1.726,1.395l0.571,0.787l0.288,0.875l0.095,0.85
		l-0.045,0.868l-0.197,1.683l-0.029,0.855l0.121,0.934l0.2,0.608l0.269,0.634l0.121,0.504l0.026,0.486l-0.055,0.631l-0.009,0.687
		l0.135,0.823l0.288,0.538l0.416,0.297l0.452,0.047l2.08-0.509l8.042-2.444l0.718-0.115l0.473,0.06l0.25,0.304l0.257,2.1
		l0.359,0.814l0.544,0.952l0.283,0.808l0.335,1.217l0.212,0.336l0.231,0.122l1.215,0.301l0.716,0.297l0.775,0.596l0.38,0.668
		l0.487,1.541l0.321,0.788l0.319,0.435l0.485,0.313l1.752-0.028l1.657-0.607l0.839-0.024l2.537,0.452l1.06-0.056l2.869-0.645
		l0.525,0.231l1.431,1.442l0.82,1.722l0.302,0.427l2.608,2.584l2.149,2.72l0.2,2.688l0.114,0.572l0.204,0.575l0.295,0.457
		l0.145,0.493l-0.124,0.583l-2.009,2.62l-0.411,0.914l0.247,0.596l0.335,0.318l0.29,0.583l0.235,0.745l0.185,1.718l-0.036,1.364
		l-0.119,0.606l-0.176,0.418l-0.409,0.558l-0.604,0.489l-0.689,0.37l-1.241,0.478l-0.464,0.406l-0.404,0.588l-0.361,0.694
		l-0.3,0.762l-0.157,0.814l0.071,2.818l0.29,1.719l0.107,1.112l-0.057,1.292l-0.982,3.536l0.033,1.734l-0.019,0.802l-0.849,2.08
		l-1.051,1.506L338,355.816l-0.231,0.434l-0.131,0.522l0.012,0.621l0.29,1.692l0.038,0.729l-0.071,1.007l0.05,0.46l0.119,0.545
		l0.278,3.447l0.185,1.254l0.316,1.476l0.226,0.705l0.278,0.627l0.459,0.534l0.597,0.385l2.86,0.902l1.445,0.892l0.908,0.781
		l2.078,1.31l0.461,0.896l-0.573,1.842l-0.896,2.235l-0.102,0.35l-0.04,0.472l0.119,0.58l0.292,0.817l1.048,2.327l0.685,1.891
		l3.763,15.118l-11.411,7.038l-1.113,0.404l-0.554,0.084l-17.704-0.268l-2.066,0.418l-1.578-0.573l-3.381-3.43l-2.563-3.482
		l-3.93-3.604l-0.316-0.224l-0.297-0.061l-0.326,0.023l-6.92,1.839l-0.214,0.22l-0.095,0.425l-0.069,2.007l1.096,26.37l2.38,18.948
		L303.405,446.808z"/>
	<path class="st0" d="M497.259,451.749l-9.828,1.584l-9.828,1.582l-9.828,1.581l-10.342,4.552l-10.342,4.541l-9.08,4.734
		l-1.636,0.889l-1.025,0.793l-0.314,0.146l-0.428,0.136l-1.184,0.655l-1.293,0.217l-0.399,0.153l-4.28,4.537l-0.943,0.308
		l-0.883-1.116l-0.5-0.49l-0.491-0.198l-6.696-0.021l-2.216-0.342l-0.159-0.284l0.064-6.317l-8.968,1.776l-8.968,1.774l-0.68-0.113
		l-6.747-3.616l-6.747-3.623l-0.009-0.002l-0.711-0.337l-7.969-1.859l-7.969-1.861l-7.969-1.863l-1.379-0.723l-2.018-2.179
		l-3.476-5.702l-2.249-1.693l-2.591-0.687l-2.627-0.231l-4.417,0.469l-9.214-1.527l-9.214-1.528l-9.214-1.529l-1.045,0.007
		l-8.043,2.465l-0.001-0.008l-2.38-18.948l-1.096-26.37l0.069-2.007l0.095-0.425l0.214-0.22l6.92-1.839l0.326-0.023l0.297,0.061
		l0.316,0.224l3.93,3.604l2.563,3.482l3.381,3.43l1.578,0.573l2.066-0.418l17.704,0.268l0.554-0.084l1.113-0.404l11.411-7.038
		l1.788-0.791l6.704-2.14l11.582-0.897l8.565,0.704l0.04-0.544l-0.188-0.837l-1.431-3.937l-0.014-1.034l0.295-0.908l1.129-1.013
		l0.34-0.53l0.423-0.908l0.383-1.564l0.347-1.04l3.98-8.631l0.663-1.227l4.738-2.585l3.923-3.02l0.663-0.744l0.502-0.704
		l1.598-3.125l0.228-0.587l0.135-0.516l7.569,0.145l0.471,0.686l0.119,0.237l0.021,0.146v0.189l-0.059,0.598l-0.007,0.43l0.078,1.26
		v0.207l-0.033,0.19l-0.052,0.17l-0.204,0.466l-0.04,0.18l-0.024,0.198l-0.005,0.212l0.012,0.212l0.078,0.355l0.095,0.291
		l0.045,0.25v0.379l-0.114,0.766l-0.105,0.365l-0.021,0.242l0.007,0.348l0.941,1.931l0.552,0.705l0.587,0.493l1.695,0.538
		l10.223,1.648l9.471,1.016l6.557,0.653l1.374,0.359l0.456,0.308l2.907,5.372l1.526,2.127l0.649,1.317l0.292,0.787l-0.021,0.62
		l0.031,0.688l0.326,0.819l0.406,0.67l1.838,1.503l1.776,1.045l1.769,0.782l0.694,0.172l7.194-1.129l2.042-0.346l1.058-0.316
		l1.695-0.752l2.011-1.648l1.636-0.854l13.177-4.552l0.67-0.03l1.053,0.168l1.664,0.823l0.442,0.053l2.296-0.318l3.725-1.203
		l-0.925,4.624l-0.057,0.968l0.1,0.578l0.207,0.71l2.049,4.137l4.805,14.737l0.166,4.779l0.069,3.803l0.261,2.9l1.134,6.051
		l0.107,1.22l0.014,1.223l-0.143,1.421l-0.262,1.469l-0.33,1.34l-0.06,0.763l0.72,14.961L497.259,451.749z"/>
	<path class="st0" d="M287.665,122.027l0.571,0.454l0.276,1.205l0.466,0.827l0.699,0.478l3.994,1.456l0.784,0.461l0.533,0.61
		l0.43,0.688l0.475,0.595l0.656,0.348l5.358,1.595l2.817,0.104l0.698,0.301l1.709,1.6l1.488,1.796l1.593,1.482l2.025,0.659
		l2.123-0.257l2.577,0.462l6.914-0.025l1.385,0.82l1.56,0.474l9.904,5.135l1.094,0.947l0.96,0.245l0.965,0.011l0.939,0.212
		l0.877,0.835l0.822,1.071l0.799,0.485l0.865-0.004l2.168-0.824l1.02-0.109l1,0.212l1.699,0.738l1.217-0.087l0.623,0.069
		l0.426,0.212l1.222,0.939l0.609,0.214l1.842-0.129l0.433,0.149l0.803,0.71l0.428,0.242l1.771,0.133l0.54,0.324l0.382,0.375
		l2.13,1.501l0.219,0.614l-0.324,0.764l-1.012,1.696l-0.034,0.346l0.135,0.364l0.183,0.672l0.055,0.633l-0.029,0.609l-0.152,1.245
		l0.1,1.363l0.434,1.467l0.612,1.353l0.63,1.021l0.237,0.489l0.032,0.525l-0.126,0.517l-0.238,0.458l0.557,0.945l-0.175,1.005
		l-0.44,1.021l-0.223,0.998l0.316,1.11l0.664,0.731l1.423,1.111l0.503,1.069l-0.21,0.824l-0.539,0.769l-0.481,0.898l-0.1,1.061
		l0.25,1.099l0.472,0.968l0.568,0.664l1.036,0.43l2.281,0.316l0.949,0.768l1.69,3.195l0.718,0.576l0.04,0.011l-0.029,0.014
		l-1.255,0.779l-1.462,0.809l-1.008,0.915l-0.887,1.039l-0.19,0.337l-0.285,0.748l-0.128,0.439l-0.29,1.497l-0.447,1.114
		l-0.216,0.301l-0.792,0.899l-0.502,0.438l-0.44,0.501l-0.59,0.575l-0.625,0.862l-0.1,0.485l-1.02,1.413l-0.937,0.995l-0.461,0.873
		l-0.188,0.66l-0.029,0.578l0.098,0.569l0.112,0.266l0.228,0.336l0.359,0.308l1.279,0.743l1.88,0.872l1.888,0.585l2.972,1.412
		l1.652,0.492l1.873,0.883l1.861,1.083l0.668,0.597l0.811,0.931l-1.897,1.488l-0.761,0.421l-0.266,0.067l-0.528-0.003l-1.262-0.229
		l-0.461-0.02l-0.464,0.089l-0.459,0.265l-0.197,0.211l-0.24,0.422l-0.732,2.064l-0.663,1.299l-0.266,0.432l-0.903,1.033
		l-1.02,0.915l-0.426,0.262l-1.046,0.499l-1.852,0.618l-0.956,0.106l-1.122,0.388l-1.678,0.404l-1.36,0.555l-0.506,0.35
		l-0.447,0.414l-0.872,1.045l-1.07,0.806l-0.181,0.521l-0.271,0.513l-0.616,0.666l-0.514,0.317l-0.376,0.129l-0.949,0.151
		l-0.784,0.877l-0.33,0.564l-0.806,2.194l-0.162,0.581l-0.062,0.59l0.048,0.887l0.39,2.259l0.057,0.27l-4.667,0.991l-2.541-0.161
		l-0.78-0.415l-5.342-3.927l-7.082-3.808l-0.639-0.35l-0.585,0.126l-0.273,0.289l-0.107,0.195l-0.114,0.167l-0.074,0.153
		l-0.038,0.171l-0.04,0.678l-0.081,0.287l-0.29,0.476l-0.402,0.487l-0.865,0.627l-0.373,0.447l-0.036,0.236l-0.012,0.312
		l-0.126,0.272l-2.696,0.655l-0.485-0.04l-0.43-0.499l-0.321,0.327l-0.095,0.428l-0.045,0.477l-0.071,0.201l0.078,0.364l0.176,0.219
		l0.25,0.207l2.731,1.516l0.452,0.708l0.007,0.112l-0.009,0.195l-0.176,0.346l-0.143,0.201l-0.509,0.434l-0.162,0.098l-0.171,0.049
		l-0.135-0.005l-0.271,0.087l-0.285,0.136l-0.922,0.665l-0.342,0.139l-0.473,0.28l-0.059,0.181l0.021,0.17l0.088,0.146l0.007,0.223
		l-0.14,0.214l-0.307,0.379l-0.428,0.424l-0.347,0.576l-0.133,0.292l0.033,0.17l0.347,0.157l0.086,0.115l0.029,0.128l-0.114,0.146
		l-0.452,0.408l-0.086,0.162l-0.014,0.157l0.064,0.164l0.043,0.188l-0.017,0.319l-0.178,0.346l-0.226,0.621l-0.093,0.404
		l-0.069,0.445l0.038,0.238l0.252,0.566l0.026,0.381l0.078,0.498l0.114,0.365l0.226,0.482l0.171,0.243l0.109,0.109l0.128,0.098
		l0.307,0.119l0.442,0.065l0.145,0.075l0.133,0.1l0.24,0.248l0.504,0.729l-1.008,0.786l-2.018,0.657l-2.163,0.4l-0.604,0.418
		l-0.238,0.637l0.138,0.732l0.04,0.641l-0.311,0.811l-0.666,0.37l-0.851,0.099l-0.697-0.128l-0.62-0.229l-3.461-2.059l-0.844-0.362
		l-2.163-0.118l-0.487,0.177l-0.511,0.368l-0.254,0.518l-0.202,0.71l-0.319,2.862l-0.25,0.749l-0.342,0.377l-0.464,0.121
		l-5.133,0.465l-0.54-0.118l-0.504-0.23l-0.471-0.286l-0.452-0.177l-0.304,0.111l-0.283,0.311l-0.316,0.488l-0.421,0.541
		l-0.68,0.532l-0.637,0.143l-0.525-0.068l-0.732-0.457l-1.985-2.146l-0.159-2.271l-1.4-4.981l-0.226-1.273l-0.074-1.028l0.048-0.761
		l0.102-0.556l0.164-0.471l1.659-2.707l0.404-0.892l0.364-0.999l0.433-1.6l0.021-0.449l-0.235-0.664l-0.554-1.806l-0.345-2.096
		l-0.418-4.282l-0.178-0.81l-0.178-0.482l-0.416-0.4l-7.158,0.752l-1.103,2.413l-1.222,1.761l-1.305,0.864l-0.604,0.154
		l-0.875,0.085l-0.49-0.116l-0.532-0.277l-1.001-0.776l-0.841-0.515l-1.633-0.573l-3.193-0.421l-2.246,0.163l-0.642,0.192
		l-0.735,0.339l-1.493,0.424l-1.079-0.087l-0.509-0.241l-6.996-5.167l-1.334-0.614l-2.37-0.07l-4.348-0.285l-1.888-0.511
		l-1.162-0.755l-4.805-4.497l-0.601-0.837l-0.345-1.312l-0.033-0.59l0.007-0.838l0.228-1.08l0.178-0.583l0.316-0.795l0.307-0.516
		l1.117-1.394l1.84-1.709l2.028-1.383l0.521-0.524l0.212-0.437l-0.128-0.381l-0.854-1.269l-0.185-0.379l-0.133-0.363l-0.109-0.387
		l-0.062-0.317l-0.014-0.164l0.342,0.13l0.454,0.304l0.209,0.635l0.551,0.911l1.198,0.576l1.317,0.283l0.906,0.02l0.958-0.307
		l1.091-0.544l1.928-1.397l1.567-1.214l0.711-0.883l0.176-1.086l-0.219-0.671l-0.197-0.436l0.078-0.28l1.74-0.473l2.102-1.012
		l0.523-0.113l0.487,0.19l0.763,0.894l0.442,0.281l0.402-0.242l0.625-0.853l0.727-0.684l3.262-1.788l1.324-1.462l3.609-7.899
		l0.157-0.562l0.069-0.705l-0.05-0.611l-0.19-1.136l0.102-1.199l0.735-2.146l0.055-1.18l0.002-0.002v-0.004l-0.166-0.929
		l-0.416-0.69l-0.554-0.466l-0.592-0.256l-1.431-0.254l-0.63-0.228l-1.745-1.374l-0.497-0.51l-0.349-0.691l-1.122-2.945
		l-0.701-1.865l0.078-0.782l0.984-1.443l-0.128-0.412l-0.727-0.58l-0.328-0.422l-0.209-0.445l-0.235-0.394l-1.091-0.718
		l-0.835-0.862l-0.625-1.087l-0.05-1.12l1.467-3.135l0.357-1.22l0.209-1.237l0.128-0.535l0.661-1.711l0.062-0.565l-0.083-0.774
		l-0.271-1.265l-0.014-0.542l0.164-0.657l0.252-0.49l0.654-0.872l0.283-0.484l1.06-2.455l0.44-0.816l0.257-0.337l0.364-0.105
		l1.027-0.571l0.609-0.043l1.9,0.394l0.219-0.653l0.09-0.874l-0.219-1.608l0.09-0.866l0.24-0.669l0.568-1.249l0.233-0.728
		l1.35-2.355l2.135-1.036l4.455-1.28l0.751-0.626l0.72-0.818l0.654-0.954l1.507-3.168l0.347-1.769l0.195-0.569l0.882-1.216
		l0.183-0.526l0.055-0.635l0.017-1.266l0.138-0.62l0.708-0.819l0.949-0.039L287.665,122.027z"/>
	<path class="st0" d="M372.355,185.47l3.291,0.873l2.865,2.157l0.926,0.432l1.075,0.264l3.586-0.486l1.649,0.437l0.885,1.893
		l0.297,1.057l0.544,0.626l0.686,0.256l2.312-0.247l0.727,0.169l0.811,0.381l1.379,1.013l1.552,0.727l1.533,0.083l2.696-1.972
		l1.384,0.052l2.957,1.292l1.507,0.271l1.89-0.254l1.758-0.781l1.135-1.314l0.495-0.801l1.205-0.914l0.647-0.632l-0.004,0.016
		l2.254,1.971l1.731,2.398l0.262,0.568l0.359,1.175l0.095,0.604l0.074,1.247l1.376,1.447l-0.152,0.293l-0.221,0.264l-0.404,0.223
		l-0.48,0.115l-1.06,0.065l-0.038,1.951l0.064,1.144l0.14,0.742l0.278,0.706l0.882,1.229l2.572,2.848l0.535,0.804l0.571,1.146
		l-1.398,1.435l-0.024,3.699l-0.078,1.192l-0.114,0.758l-0.497,1.893l-0.604,1.091l-0.473,1.344l-0.373,2.308l-0.59,2.393
		l-0.359,2.677l-0.411,1.728l-1.141-0.585l-0.597-0.212l-0.93-0.116l-0.602,0.062l-0.561,0.194l-0.245,0.152l-1.355,1.378
		l-3.293-1.08l-0.858-0.345l-0.953,0.894l-1.388,1.935l-0.012,1.89l4.241,1.21l1.3,0.215l1.36,0.603l0.77,0.549l1.008,0.493
		l1.048,1.041l1.065,0.907l0.787,0.973l0.877,0.894l-0.119,0.22l-0.2,0.477l-0.252,0.352l0.171,0.238l-0.323,0.602l0.228,2.458
		l0.171,1.376l0.228,3.064l0.019,2.649l-0.116,1.462l-0.406,1.536l-0.257,0.556l-0.176,0.236l-1.279,0.883l-0.958,0.97l-0.808,1.454
		l-0.535,1.64l-0.293,0.658l-0.937,1.586l0.982,1.097l1.094,1.708l0.216,0.745l0.124,1.796l0.961,0.609l1.372,0.52l1.319,0.213
		l2.401,0.124l0.193-0.153l0.273-0.099l0.335,0.041l0.159,0.093l0.128,0.148l0.133,0.367l0.047,0.864l-0.466,0.461l0.055,1.698
		l0.126,0.986l0.91,3.78l0.497,1.542l-2.346,0.22l-3.012,0.063l-0.314,0.79l-0.625,1.046l-1.852-0.018l-1.196,0.075l-0.563,0.112
		l-1.022,0.392l-2.969,1.992l-0.944,0.986l-1.07,0.936l0.423,1.28l0.202,0.436l0.33,0.422l0.514,0.46l0.699,0.796l0.207,0.392
		l0.066,0.454l-0.057,0.449l-0.571,1.098l-1.688,0.523l-2.817,0.607l-1.971,0.238l-0.523-0.035l-0.794-0.152l-0.533-0.023
		l-0.801,0.102l-1.678,0.349l-0.116-1.405l-0.281-1.568l-1.538-1.554l-0.989-0.738l-1.474-1.362l-1.025-0.726l-0.953-0.946
		l-0.73-1.04l-0.597-0.738l-0.711-1.251l-0.554-1.186l-0.697-1.255l-1.155-1.489l-0.54-0.435l-0.485-0.207l-0.566-0.11l-1.108-0.064
		l-0.523-0.961l-0.763-1.665l-0.188-0.498l-0.276-0.996l-1.307-0.619l-1.548-0.734l-0.447-0.297l-0.373-0.449l-0.126-0.275
		l-0.147-0.59l-0.2-2.534l-0.328-1.744l-0.273-0.831l-0.632-1.219l-0.637-0.956l-0.48-1.077l-1.182-1.628l-1.101-1.096l-1.365-0.147
		l-1.115-0.041l-0.511-0.121l-0.509-0.196l-1.519-1.141l-0.354-0.35l-0.68-0.794l-0.257-1.941l-0.342-0.864l-0.568-0.699
		l-1.096-0.823l-0.414-0.382l-0.333-0.461l-0.204-0.483l-0.162-0.758l0.059-0.998l-0.038-0.526l-0.566-4.024l-0.887-3.115
		l-0.666-1.554l-0.989,0.515l-0.903,0.653l-0.689,0.21l-0.514-0.021l-0.449-0.17l-0.383-0.287l-0.245-0.41l-0.24-0.7l-0.242-0.493
		l-0.592-0.67l-0.513-0.331l-0.271-0.105l-0.563-0.126l-0.872-0.083l-1.122-0.701l-0.478-0.488l-0.502-0.438l-0.851-1.021
		l-0.285-0.661l-0.271-1.299l-0.057-0.27l-0.39-2.259l-0.048-0.887l0.062-0.59l0.162-0.581l0.806-2.194l0.33-0.564l0.784-0.877
		l0.949-0.151l0.376-0.129l0.514-0.317l0.616-0.666l0.271-0.513l0.181-0.521l1.07-0.806l0.872-1.045l0.447-0.414l0.506-0.35
		l1.36-0.555l1.678-0.404l1.122-0.388l0.956-0.106l1.852-0.618l1.046-0.499l0.426-0.262l1.02-0.915l0.903-1.033l0.266-0.432
		l0.663-1.299l0.732-2.064l0.24-0.422l0.197-0.211l0.459-0.265l0.464-0.089l0.461,0.02l1.262,0.229l0.528,0.003l0.266-0.067
		l0.761-0.421l1.897-1.488l-0.811-0.931l-0.668-0.597l-1.861-1.083l-1.873-0.883l-1.652-0.492l-2.972-1.412l-1.888-0.585
		l-1.88-0.872l-1.279-0.743l-0.359-0.308l-0.228-0.336l-0.112-0.266l-0.098-0.569l0.029-0.578l0.188-0.66l0.461-0.873l0.937-0.995
		l1.02-1.413l0.1-0.485l0.625-0.862l0.59-0.575l0.44-0.501l0.502-0.438l0.792-0.899l0.216-0.301l0.447-1.114l0.29-1.497l0.128-0.439
		l0.285-0.748l0.19-0.337l0.887-1.039l1.008-0.915l1.462-0.809l1.255-0.779L372.355,185.47z"/>
	<path class="st0" d="M82.016,199.677l0.037-0.751l0.143-0.935l0.359-0.717l0.706-0.481l3.018-0.656l0.932-0.428l2.781-2.163
		l0.461-0.184l0.944-0.102l0.461-0.154l1.155-0.995l1.006-0.136l1.978,0.446l1.001-0.024l0.414-0.134l0.402-0.21l0.364-0.321
		l0.297-0.461l0.109-0.506l0.005-1.034l0.207-0.4l0.825-0.499l1.783-0.544l0.854-0.669l1.645-2.096l0.611-0.593l0.849-0.41
		l2.708-0.032l0.773-0.239l2.225-1.221l0.861,0.007l1.947,0.413l0.773-0.232l0.385-0.603l0.174-0.742l0.238-0.742l0.568-0.611
		l2.315-0.941l0.62-0.638l1.16-2.191l0.609-0.598l1.614-1l1.712-0.634l1.743-0.206l3.744,0.76l2.211-0.101l1.93-1.122l1.189-2.591
		l0.059-0.677l0.01-0.645l0.097-0.574l0.311-0.456l0.466-0.283l0.585-0.173l0.544,0.102l0.352,0.546l0.44,1.415l0.559,0.925
		l0.727,0.575l0.956,0.359l0.877,0.641l1.317,2.011l0.872,0.493l0.509-0.056l0.537-0.229l0.509-0.372l0.411-0.475l0.261-0.589
		l0.157-1.208l0.157-0.584l0.825-0.628l1.417-0.273l1.457,0.111l0.934,0.53l0.283,1.298l-0.014,1.737l0.426,1.437l0.254,0.724
		l0.195,0.418l0.264,0.255l0.454,0.232l1.434,0.401l0.787-0.023l1.132-0.013l5.363-0.346l2.641,0.893l8.065,0.353l8.065,0.353
		l0.485,0.279l0.338,0.462l0.112,0.563l0.036,1.322l0.92,2.3l0.178,0.89l0.109,3.726l0.278,1.865l0.233,0.92l0.323,0.751
		l0.535,0.616l1.914,0.837l0.385,0.358l0.157,0.458l0.086,0.519l0.157,0.545l0.271,0.434l0.991,0.96l0.24,0.446l0.411,1.029
		l0.257,0.361l0.485,0.163l0.609-0.094l2.194-0.807l4.03-0.198l0.739,0.189l0.618,0.568l0.54,1.145l0.404,0.821l0.155,0.229
		l1.105,0.639l6.402-0.078l1.036,0.316l1.044,0.873l0.38,0.421l0.357,0.305l-0.414,0.604l0.064,1.158l0.321,1.549l0.176,1.914
		l-0.029,0.555l-0.024,0.16l-0.074,0.281l-0.428,1.217l-0.214,0.805l0.014,0.913l0.264,1.107l0.568,1.34l0.264,0.77l0.285,1.396
		l0.164,0.426l0.397,0.615l0.661,0.477l1.441,0.801l0.573,0.488l0.414,0.684l0.273,0.605l0.19,1.026l-0.086,1.913l-2.004,4.003
		l-0.224,1.049l0.043,1.15l0.178,0.966l0.086,0.933l-0.093,0.815l-0.342,0.872l-0.219,0.758l-0.078,0.748l0.069,1.153l-0.014,0.368
		l-0.333,1.328l-0.846,1.639l-0.73,0.36l-1.869,0.022l-1.013,0.228l-1.788,1.653l-1.624,0.894l-2.788,1.543l-3.038,0.837
		l-3.901,0.458l-2.133-0.275l-0.121-0.088l-1.039-0.675l-0.68-0.195l-2.784,0.086l-0.991-0.219l-6.535-2.697l-0.972,0.01
		l-9.542,5.069l-0.616,0.75l-1.039,1.746l-0.792,0.765l-0.932,0.661l-1.212,1.406l-1.367,3.704l-2.102-1.134l-0.504-0.434
		l-1.486-1.588l-0.528-0.39l-0.021-0.026l-0.095-0.137l-0.164-0.295l-0.071-0.176l-0.114-0.387l-0.162-0.859l-0.097-0.893
		l-0.045-0.208l-0.062-0.187l-0.093-0.205l-0.121-0.216l-0.435-0.475l-1.859-1.025l-0.318-0.235l-0.109-0.119l-0.15-0.118
		l-0.24-0.108l-1.174-0.22l-0.718,0.079l-0.889,0.324l-1.148,0.901l-0.946,1.104l-1.067,0.966l-1.124,0.419l-2.534-0.596
		l-8.361-2.031l-0.366,0.158l-1.048,0.825l-0.549,0.077l-0.475-0.396l-0.454-0.906l-0.815-2.36l-0.497-0.996l-0.632-0.726
		l-0.556-0.111l-0.428,0.062l-0.571,0.271l-0.404-0.033l-0.447-0.258l-1.574-6.064l-0.288-0.597l-0.368-0.395l-0.582-0.377
		l-0.785-0.168l-0.849,0.139l-1.051,0.435l-2.266,1.406l-0.746,0.727l-1.422,2.438l-2.254,3.02l-1.31,1.127l-1.044,0.428
		l-0.014-0.695l0.143-0.862l-0.036-0.277l-0.078-0.276l-0.114-0.258l-0.747-2.87l-0.333-0.786l-0.119-0.213l-0.228-0.298
		l-0.711-0.724l-0.542-0.905l-0.178-0.234l-0.162-0.169l-0.292-0.168l-1.683-0.554l-0.563-0.391l-0.368-0.325l-1.357-3.112
		l-0.54-1.54l-0.078-0.134l-0.214-0.165l-0.176-0.202l-1.445-2.271l-0.145-0.304l-0.076-0.265l-0.024-0.214l-0.005-0.206
		l0.019-0.197l0.069-0.37l0.019-0.194l0.005-0.208l-0.107-0.991l-0.09-0.383l-0.124-0.193l-0.162-0.116l-0.571-0.083l-2.287-0.323
		l-1.348-0.047l-0.606-0.326l-0.102-0.119l-0.097-0.153l-0.378-0.87l-0.128-0.369l-0.04-0.15l-0.043-0.263l0.05-0.231l0.107-0.364
		l-0.195-0.57l-0.264-0.565l-2.47-2.048l-4.243-2.151l-0.639-0.605l-0.207-0.242l-0.155-0.213l-0.145-0.363l-0.121-0.396
		l-0.15-0.367l-0.176-0.351l-0.064-0.188l-0.392-1.73l-0.34-0.787l-1.51-2.439l-0.143-0.306l-0.078-0.448l-0.029-0.231l-0.021-0.866
		l-0.029-0.221l-0.223-1.1l-0.659-2.227l-0.58-1.539l-0.14-0.24l-0.136-0.187l-0.25-0.231l-1.251-0.754L82.016,199.677z"/>
	<path class="st0" d="M412.148,190.052l0.638-0.623l0.657-0.409l1.571-0.458l2.365,0.136l0.77-0.169l0.506-0.344l0.907-0.885
		l0.579-0.177l2.128,0.02l0.666-0.205l1.392-0.923l0.519-0.212l0.751-0.125l2.665,0.352l0.647-0.06l0.634-0.177l0.588-0.289
		l2.516-2.164l0.868-0.527l1.154-0.14l7.147,1.969l3.218-0.252l0.628,0.164l1.108,0.485l1.139,0.257l1.239,0.007l0.617,0.138
		l1.243,1.023l0.1,0.239v0.333l0.027,0.343l0.086,0.285l0.178,0.164l1.826,0.233l0.59,0.27l0.926,0.717l0.485,0.264l0.519,0.076
		l4.484-1.357l2.494-0.283l2.491,0.317l2.062,0.706l0.969,0.573l3.408,2.963l0.856,0.459l0.208,0.332l0.352,1.34l0.186,0.345
		l0.463,0.519l0.17,0.249l0.13,0.378l0.212,0.847l0.2,0.378l0.303,0.282l0.7,0.339l0.32,0.226l1.147,1.132l0.637,0.459l0.752,0.322
		l0.689-0.067l0.587-0.311l0.562-0.087l1.362,1.213l8.401,0.15l0.352,0.164l0.136,0.063l0.838,0.621l0.483,0.155l0.719-0.096
		l0.271,0.018l1.086,0.377l1.111,0.072l0.229,0.362l-0.089,0.925l-0.189,0.609l-0.204,0.492l-0.126,0.542l0.053,0.754l0.406,1.704
		l0.132,1.316l-0.021,0.454l-0.126,0.432l-0.518,1.343l0.014,0.456l0.277,0.242l0.539,0.075l0.918-0.074l0.3,0.264l-0.19,0.786
		l-0.052,0.561l0.24,0.552l0.39,0.458l1.691,1.241l0.466,0.255l1.92,0.245l0.609,0.275l0.326,0.357l0.207,0.452l0.178,0.489
		l0.227,0.472l1.328,1.633l3.193,2.825l1.481,1.023l0.734,0.06l-0.788,3.514l-0.328,3.596l-0.892-0.051l-0.732,0.035l-2.651,0.352
		l-0.799,0.24l-1.652,0.775l-1.45,0.904l-0.38,0.352l-0.568,0.645l-0.834,0.79l-2.18-1.556l-0.54-0.273l-0.832-0.31l-0.59-0.16
		l-0.934-0.105l-1.683,0.034l-0.649,0.098l-1.381,0.352l-0.72,0.283l-1.662,1.197l-1.638,1.593l1.208,2.21l0.335,0.479l0.675,0.576
		l1.46,0.693l0.44,0.271l0.204,0.202l0.278,0.498l0.1,0.548l-0.09,0.843l-0.523,1.381l-0.397,1.415l-0.468,1.124l-0.335,1.024
		l-0.254,0.462l-0.197,0.201l-0.475,0.248l-0.494,0.048l-1.186-0.163l-0.461,0.012l-0.418,0.177l-0.706,0.516l-0.97,0.451
		l-1.367,0.489l-2.76,0.873l-0.963-1.2l-0.39-0.336l-0.464-0.241l-0.542-0.2l-0.849-0.103l-0.861,0.088l-1.788,0.448l-0.466,0.067
		l-1.636-0.101l-0.756,0.122l-0.411,0.228l-0.656,0.552l-0.585,0.639l-0.965,0.91l-0.663,0.341l-0.811,0.214l-0.754-0.031
		l-2.102-0.44l-0.877-0.37l-1.286-0.7l-0.233-0.571l-0.447-0.42l-3.564-1.744l-2.817-1.644l-0.713,0.562l-0.575,0.373l-1.077,0.434
		l-1.181-0.734l-0.414-0.376l-0.245-0.299l0.475-1.252l0.392-1.413l0.002-0.874l-0.145-0.573l-0.14-0.282l-0.378-0.493l-0.746-0.547
		l-0.787-0.258l-2.218-0.48l-4.232,1.053l-1.526,0.525l-0.552,0.262l-1.115,0.76l-1.538,1.192l0.304,0.962l0.395,1.828l0.449,1.118
		l-1.536,0.847l-1.602,0.73l-1.265,0.713l-0.77,0.524l-0.466,0.176l-1.355,0.248l-0.547,0.153l-1.484,0.775l-0.559,0.389
		l-0.426,0.212l-0.509,0.088l-0.542-0.016l-1.229-0.323l-1.493-0.668l-1.657-0.463l-1.108-0.388l-1.624-0.729l-4.063-1.62
		l-0.171-1.376l-0.228-2.458l0.323-0.602l-0.171-0.238l0.252-0.352l0.2-0.477l0.119-0.22l-0.877-0.894l-0.787-0.973l-1.065-0.907
		l-1.048-1.041l2.149-1.387l1.041-0.887l0.763-0.767l0.302-0.383l0.169-0.504l-0.019-0.529l-0.193-0.524l-0.704-1.339l-0.254-0.917
		l0.411-1.728l0.359-2.677l0.59-2.393l0.373-2.308l0.473-1.344l0.604-1.091l0.497-1.893l0.114-0.758l0.078-1.192l0.024-3.699
		l1.398-1.435l-0.571-1.146l-0.535-0.804l-2.572-2.848l-0.882-1.229l-0.278-0.706l-0.14-0.742l-0.064-1.144l0.038-1.951l1.06-0.065
		l0.48-0.115l0.404-0.223l0.221-0.264l0.152-0.293l-1.376-1.447l-0.074-1.247l-0.095-0.604l-0.359-1.175l-0.262-0.568l-1.731-2.398
		l-2.254-1.971L412.148,190.052z M458.525,216.752l-0.739-0.123l-1.16-0.391l-0.979-0.477l-0.944-0.682l-1.079-0.486l-0.749-0.534
		l-1.013-0.413l-0.823-0.194l0.188-0.852l0.459-1.086l1.296-1.546l0.202-0.349l0.074-0.223l0.09-0.491l0.038-0.804l-0.147-1.99
		l-1.911,0.613l-0.223,0.172l-0.1,0.122l-0.628,1.36l-0.513,0.713l-0.342,0.338l-0.328,0.143l-1.343,0.993l-0.181,0.264
		l-0.533,1.072l-0.273,0.356l-0.59,0.54l0.133,1.126l0.456,0.956l0.064,0.734l0.138,0.667l0.433,0.757l0.143,0.398l0.066,0.395
		l0.012,0.077l0.033,0.797l-0.107,1.511l-0.107,0.65l-0.59,3.553l-0.338,2.76l-0.525,2.485l-0.38,0.956l1.41,0.572l0.896,0.254
		l2.463,0.418l0.566,0.03l0.566-0.055l0.535-0.167l0.259-0.139l0.452-0.35l0.877-0.907l1.433-0.905l1.384-0.484l0.58-0.105
		l1.196-0.088l0.756,1.1l1.094,0.799l0.777,0.42l2.998,1.151l2.603-0.771l1.94-0.789l-0.078-2.7l-0.335-1.966l0.162-1.89
		l0.264-1.809l0.102-2.24l-0.095-1.346l-0.19-0.701l-0.28-0.665l-0.295-0.404l-0.623-0.617l-0.378-0.268l-0.863-0.355l-0.751-0.499
		l-0.687-0.335l-2.672-0.955l-0.825,1.333l-0.516,0.603l-0.882,0.749l-0.483,0.17L458.525,216.752z"/>
	<path class="st0" d="M208.069,203.594l0.078,0.067l0.461,0.196l0.459-0.103l0.38-0.397l0.599-0.96l0.478-0.325l2.22-0.333
		l0.941-0.447l0.863-1.237l0.661-0.668l0.925-0.302l0.901,0.185l0.578,0.79v0.006l0.283,1l0.418,0.722l0.544,0.218l0.656-0.499
		l0.25-0.447l0.29-0.392l0.314-0.333l0.338-0.272l0.33-0.183l0.345-0.031l0.347,0.074l0.342,0.137l0.002,0.002l0.005,0.002
		l0.002,0.002l3.433,1.558l1.048,0.82l0.97,1.013l0.528,0.332l0.611,0.09l0.604-0.203l1.143-0.794l0.594-0.275l0.658-0.017
		l0.473,0.227l0.354,0.496l0.316,0.786l0.347,0.645l0.392,0.151l0.442-0.192l0.497-0.374l1.248-1.297l0.499-0.144l6.148,0.967
		l0.844,0.764l0.837,1.5l0.345,0.374l0.644,0.245l0.014,0.164l0.062,0.317l0.109,0.387l0.133,0.363l0.185,0.379l0.854,1.269
		l0.128,0.381l-0.212,0.437l-0.521,0.524l-2.028,1.383l-1.84,1.709l-1.117,1.394l-0.307,0.516l-0.316,0.795l-0.178,0.583
		l-0.228,1.08l-0.007,0.838l0.033,0.59l0.345,1.312l0.601,0.837l4.805,4.497l1.162,0.755l1.888,0.511l4.348,0.285l2.37,0.07
		l1.334,0.614l6.996,5.167l0.509,0.241l1.079,0.087l1.493-0.424l0.735-0.339l0.642-0.192l2.246-0.163l3.193,0.421l1.633,0.573
		l0.841,0.515l1.001,0.776l0.532,0.277l0.49,0.116l0.875-0.085l0.604-0.154l1.305-0.864l1.222-1.761l1.103-2.413l7.158-0.752
		l0.416,0.4l0.178,0.482l0.178,0.81l0.418,4.282l0.345,2.096l0.554,1.806l0.235,0.664l-0.021,0.449l-0.433,1.6l-0.364,0.999
		l-0.404,0.892l-1.659,2.707l-0.164,0.471l-0.102,0.556l-0.048,0.761l0.074,1.028l0.226,1.273l1.4,4.981l0.159,2.271l-7.132,3.31
		l-1.353,0.182l-0.713,0.328l-0.663,0.728l-0.768,1.608l-0.69,0.795l-1.013,0.643l-1.771,0.588l-4.835,0.139l-0.675,0.199
		l-0.561,0.292l-0.438,0.503l-0.311,0.458l-0.592,1.768l0.202,0.89l0.818,2.044l0.3,1.19l0.05,0.927l-0.128,0.762l-0.994,3.253
		l-0.076,0.787l0.093,0.656l0.278,0.551l0.727,0.415l0.644,0.251l3.371,0.371l0.078,0.296l0.017,0.252l-0.005,0.349l-0.136,0.956
		l-0.147,0.58l-0.271,0.714l-0.392,0.815l-0.697,1.086l-1.01,1.128l-0.321,0.552l-0.033,0.785l0.202,0.623l0.121,0.716l-0.3,0.978
		l-0.628,1.359l-1.933,2.812l-1.322,0.626l-1.455,0.33l-2.152,0.014l-0.789,0.125l-0.694,0.401l-0.366,0.678l-0.164,0.926
		l-0.086,1.054l-0.221,1.01l-3.54,11.175l-0.982,2.406l-0.135,0.701l0.055,1.898l-1.847-0.459l-1.671-1.084l-1.103-0.736
		l-1.001-0.012l-0.402,0.125l-0.173,0.093l-0.109,0.13l-0.307,0.577l-0.202,0.263l-1.215,1.087l-0.792,0.493l-0.378,0.099
		l-0.57,0.069l-0.304-0.021l-0.226-0.057l-0.559-0.324l-0.342-0.148l-0.169-0.028l-2.494-0.055l-1.136-0.173l-0.117-0.313
		l-0.14-0.488l0.097-1.159l-0.207-0.532l-1.629-1.845l-0.656-1.081l-0.433-1.071l-0.185-0.881l-0.223-2.14l-1.964-0.957
		l-0.792-0.545l-0.815-0.098l-5.972,1.853l-0.801-0.044l-0.19-1.986l-0.333-0.755l-0.506-1.417l-0.478-2.348l-0.478-0.842
		l-1.357-1.724l-0.542-1.234l-0.499-1.728l-0.342-0.482l-0.492-0.531l-0.773-0.419l-0.335-0.095L222,293.931l-8.394-5.367
		l-1.521-1.125l-1.441-1.388l-0.24-0.122l-0.732-0.24l-0.82-0.396l-0.939-0.749l-5.853-0.347l-0.663,0.273l-0.953,0.584
		l-0.818-0.131l-0.409-0.333l-0.262-0.301l-0.271-0.395l-0.297-0.665l-0.395-0.649l-0.511-0.706l-0.433-0.474l-0.682-0.349
		l-1.976-0.618l-0.689,0.042l-0.718-0.054l-0.2,0.035l-0.868,0.339l-0.387,0.088l-2.684,0.087l-3.029-0.298l-2.698-0.954
		l-1.605-0.24l-0.25-0.073l-0.283-0.177l-0.742-0.64l-0.594-0.371l-0.984-0.417l-1.203-0.251l-0.803-0.026l-0.675,0.164
		l-2.152,1.503l-3.036,1.626l-2.867,1.108l-5.61,0.658l-2.049-3.63l-2.755-3.808l-0.243-0.648l0.01-0.957l-0.074-0.943l-0.262-1.236
		l-0.513-1.278l-0.949-3.184l1.666-1.073l1.189-1.026l2.729-2.939l0.754-1.07l0.357-0.773l0.064-0.239l0.045-0.311l-0.002-0.609
		l0.019-0.336l0.038-0.263l0.112-0.329l0.064-0.134l0.064-0.104l0.038-0.114l0.033-0.156l-0.04-0.236l-0.043-0.129l-0.273-0.293
		l-0.704-0.538l1.367-3.704l1.212-1.406l0.932-0.661l0.792-0.765l1.039-1.746l0.616-0.75l9.542-5.069l0.972-0.01l6.535,2.697
		l0.991,0.219l2.784-0.086l0.68,0.195l1.039,0.675l0.121,0.088l2.133,0.275l3.901-0.458l3.038-0.837l2.788-1.543l1.624-0.894
		l1.788-1.653l1.013-0.228l1.869-0.022l0.73-0.36l0.846-1.639l0.333-1.328l0.014-0.368l-0.069-1.153l0.078-0.748l0.219-0.758
		l0.342-0.872l0.093-0.815l-0.086-0.933l-0.178-0.966l-0.043-1.15l0.224-1.049l2.004-4.003l0.086-1.913l-0.19-1.026l-0.273-0.605
		l-0.414-0.684l-0.573-0.488l-1.441-0.801l-0.661-0.477l-0.397-0.615l-0.164-0.426l-0.285-1.396l-0.264-0.77l-0.568-1.34
		l-0.264-1.107l-0.014-0.913l0.214-0.805l0.428-1.217l0.074-0.281l0.024-0.16l0.029-0.555l-0.176-1.914l-0.321-1.549l-0.064-1.158
		L208.069,203.594z"/>
	<path class="st0" d="M509.227,223.77l0.885,0.073l3.281-0.618l2.482,0.022l1.645-0.292l2.357,0.739l0.577-0.042l2.359-0.62
		l2.9,0.286l0.58,0.212l0.561,0.325l1.258,0.496l0.466,0.215l0.908-0.097l0.261,0.193l0.083,0.211l0.095,0.629l0.105,0.264
		l0.402,0.224l0.561,0.242l4.883-0.372l1.298,0.532l0.754,0.832l0.333,0.031l1.861,0.464l6.172,1.821l1.003-0.12l0.996-0.411
		l0.944-0.662l0.83-0.871l0.359-0.493l0.233-0.251l0.254,0.06l1.174,1.318l0.414,0.284l1.31,0.36l2.194,1.372l0.951,0.302
		l0.991,0.078l0.996-0.111l2.522-0.87l2.865-1.582l3.98-2.966l3.105-1.103l0.418-0.281l0.673-0.867l0.402-0.332l0.559-0.102
		l0.514,0.19l1.025,0.56l0.573,0.117l0.566-0.009l0.561-0.131l2.598-1.391l1.025-0.351l8.492-0.548l2.213-0.993l0.079,0.121
		l1.662,2.448l0.109,0.246l0.012,0.154l-0.1,0.214l-0.207,0.328l-0.352,0.381l-0.102,0.142l-0.093,0.184l0.086,1.562l0.763,4.765
		l0.835,2.598l0.119,0.932l-0.021,0.712l-0.537,1.719l-0.247,0.759l0.395,1.239l0.892,2.131l4.455,8.332l1.386,3.536l0.399,1.399
		l0.309,1.928l-0.059,2.053l-0.544,1.457l-0.311,2.333l0.556,5.89l1.189,2.342l0.314,0.494l0.953,2.013l0.989,4.306l-1.688,0.317
		l-0.164,0.058l-0.566,0.368l-0.33,0.12l-1.174,0.118l-7.068,2.71l-1.317,0.908l-0.485,0.464l-0.406,0.487l-0.333,0.501
		l-0.228,0.462l-0.181,0.515l-0.131,0.545l-0.102,0.698l-0.147,1.685l-0.017,1.066l0.143,1.565l0.442,2.016l-2.748-0.181
		l-2.919-0.572l-0.428,0.015l-0.369,0.086l-1.001,0.443l-0.998,0.66l-0.713,0.616l-2.315,2.719l-0.794,1.366l-0.357,0.847
		l-0.271,0.979l-0.749,6.323l-0.618,2.293l-1.617,3.21l-2.123,3.744l-0.568,1.204l-0.361,1.28l-0.078,2.64l0.071,0.721l0.219,1.095
		l0.718,2.494l0.147,0.721l0.069,0.679l-0.107,0.656l-0.209,0.517l-1.453,2.15l-0.231,0.571l-0.1,0.422l0.133,1.02l-4.391,4.061
		l-1.564,1.116l-1.298-0.031l-1.54-0.588l-4.807-2.957l-2.009-1.95l-0.72-1.255l-0.644-2.001l-0.437-0.982l-0.449-0.695
		l-3.754-3.912l-1.281-1.999l-0.68-1.285l-0.63-0.666l-0.554-0.317l-1.343-0.084l-0.946,0.117l-0.266,0.399l-0.012,1.027
		l0.632,3.064l0.014,0.625l-0.086,0.606l-0.894,3.06l-0.716,1.684l-0.176,0.28l-3.604,3.003l-1.11,0.687l-0.996,0.364l-5.725,0.609
		l-2.315-0.27l-3.395-2.377l-0.611-0.628l-0.487-0.74l-0.77-1.891l-0.585-1.066l-2.114-2.119l-0.744-1.553l-0.107-0.285l-0.164-0.56
		l-0.036-0.316v-0.641l0.043-0.422l0.135-0.718l0.223-0.663l1.714-3.234l0.399-1.089l0.169-0.866l0.052-0.689l-0.036-0.905
		l-0.128-0.961l-0.233-0.909l-0.335-0.468l-0.406-0.109l-0.402,0.187l-0.409,0.408l-0.799,1.225l-0.164,0.116l-0.2,0.061
		l-0.242-0.236l-0.069-0.229l0.114-2.401l-0.067-0.691l-0.1-0.522l-0.425-1.332l-2.791-1.267l-1.569-1.183l-0.766-0.757
		l-0.749-0.971l-0.307-0.636l-0.347-1.31l-0.968-2.672l-0.278-0.475l-0.742-0.799l-0.221-0.403l-0.49-1.925l-0.031-0.368
		l-0.119-0.212l-1.45-1.512l-0.174-0.258l-0.269-0.683l-0.449-1.512l-0.138-0.253l-0.219-0.169l-0.288-0.144l-0.257-0.222
		l-0.109-0.396l0.152-0.594l0.321-0.462l0.278-0.548l0.036-0.849l-0.119-0.39l-0.295-0.468l-0.057-0.434l0.081-0.333l0.195-0.204
		l0.235-0.169l0.202-0.226l0.841-1.633l0.171-0.573l0.038-0.363l0.017-0.772l0.024-0.18l0.105-0.336l-0.155-0.258l-0.226-0.251
		l-0.117-0.324l0.033-1.083l-0.033-0.447l-0.3-1.404l0.121-0.383l0.404-0.679l0.088-0.461l1.543-0.298l1.115-0.385l0.535-0.241
		l0.98-0.562l0.414-0.275l0.994-0.913l1.367-1.393l0.834-0.693l0.359-0.249l0.825-0.411l0.193-0.153l0.299-0.398l0.34-0.751
		l0.376-1.66l0.475-1.374l0.513-0.857l0.395-0.408l0.307-0.238l0.392-0.801l0.373-1.12l0.112-0.867l-0.062-0.874l-0.428-2.024
		l-0.63-1.677l-0.323-1.417l-0.559-2.02l-0.784-4.063l-0.357-1.136l-0.48-1.171l-0.159-0.511l-0.285-1.75l-0.162-0.567l-0.861-1.634
		l-0.97-2.401l-0.856-1.47l-0.896-1.011l-1.403-1.368l-0.437-0.489l-0.495-0.446l-0.454-0.512l-0.59-0.541l-0.708-0.899l0.328-3.596
		L509.227,223.77z"/>
	<path class="st0" d="M458.525,216.752l0.537-0.042l0.483-0.17l0.882-0.749l0.516-0.603l0.825-1.333l2.672,0.955l0.687,0.335
		l0.751,0.499l0.863,0.355l0.378,0.268l0.623,0.617l0.295,0.404l0.28,0.665l0.19,0.701l0.095,1.346l-0.102,2.24l-0.264,1.809
		l-0.162,1.89l0.335,1.966l0.078,2.7l-1.94,0.789l-2.603,0.771l-2.998-1.151l-0.777-0.42l-1.094-0.799l-0.756-1.1l-1.196,0.088
		l-0.58,0.105l-1.384,0.484l-1.433,0.905l-0.877,0.907l-0.452,0.35l-0.259,0.139l-0.535,0.167l-0.566,0.055l-0.566-0.03
		l-2.463-0.418l-0.896-0.254l-1.41-0.572l0.38-0.956l0.525-2.485l0.338-2.76l0.59-3.553l0.107-0.65l0.107-1.511l-0.033-0.797
		l-0.012-0.077l-0.066-0.395l-0.143-0.398l-0.433-0.757l-0.138-0.667l-0.064-0.734l-0.456-0.956l-0.133-1.126l0.59-0.54l0.273-0.356
		l0.533-1.072l0.181-0.264l1.343-0.993l0.328-0.143l0.342-0.338l0.513-0.713l0.628-1.36l0.1-0.122l0.223-0.172l1.911-0.613
		l0.147,1.99l-0.038,0.804l-0.09,0.491l-0.074,0.223l-0.202,0.349l-1.296,1.546l-0.459,1.086l-0.188,0.852l0.823,0.194l1.013,0.413
		l0.749,0.534l1.079,0.486l0.944,0.682l0.979,0.477l1.16,0.391L458.525,216.752z"/>
	<path class="st0" d="M505.979,285.129l-0.278,0.548l-0.321,0.462l-0.152,0.594l0.109,0.396l0.257,0.222l0.288,0.144l0.219,0.169
		l0.138,0.253l0.449,1.512l0.269,0.683l0.174,0.258l1.45,1.512l0.119,0.212l0.031,0.368l0.49,1.925l0.221,0.403l0.742,0.799
		l0.278,0.475l0.968,2.672l0.347,1.31l0.307,0.636l0.749,0.971l0.766,0.757l1.569,1.183l-1.595,3.932l-0.297,0.373l-0.811,0.789
		l-1.647,0.958l-3.659,1.738l-2.819-0.345l-3.54-0.7l-2.028,0.023l-1.49,0.283l-1.108,0.321l-1.048,0.616l-2.318,0.448l-0.114,1.329
		l-0.205,1.269l-0.147,2.045l-0.095,0.552l-0.197,0.524l-0.169,0.249l-0.435,0.407l-0.262,0.15l-0.535,0.172l-1.961,0.264
		l-1.063,0.385l-0.461,0.311l-0.195,0.204l-1.182,1.767l-0.328,0.367l-0.435,0.261l-2.342,0.944l-1.139,0.328l-0.582,0.097
		l-3.671,0.126l-1.838,0.214l-1.429-0.934l-0.989-0.913l-1.322-1.381l-0.97-0.889l-1.445-0.824l-0.773-0.258l-2.32-0.443
		l-1.522-0.059l-2.004,0.055l-4.419-0.062l-4.374-0.007l-0.292-0.711l-0.157-0.233l-0.409-0.405l-0.492-0.281l-2.437-0.741
		l-0.787-0.368l-1.113-0.683l-1.41-1.407l-0.44-0.302l-0.25-0.097l-0.537-0.098l-0.841,0.042l-1.498,0.404l-0.927,0.352
		l-2.049,2.886l-0.476,0.528l-1.709,2.262l-1.823,3.387l-1.091-1.004l-0.901-0.645l-0.54-0.457l-1.396-0.808l-1.612-0.639
		l-2.206-0.723l-2.144-0.789l-2.025,2.617l-0.823,0.788l-1.3,0.944l-3.062,2.666l-0.502-0.536l-0.635-0.8l-0.991-0.935l-2.981-2.063
		l-0.345-0.297l-0.228-0.312l-0.195-0.512l-0.09-0.551l-0.036-3.227l-0.067-0.567l-0.178-0.634l-0.254-0.634l-0.597-0.919
		l-0.48-1.074l-0.418-0.529l-0.737-1.099l-0.901-1.117l0.972-1.019l0.549-0.48l0.437-0.207l0.621-0.096l0.193-1.474l0.04-0.85
		l-0.064-0.775l-0.143-0.523l-0.197-0.493l-0.242-0.426l-0.884-0.967l-1.419-1.29l-0.884-0.973l-0.245-0.425l-0.378-1.03
		l-0.345-1.989l-0.052-0.902l0.043-1.13l0.571-1.098l0.057-0.449l-0.066-0.454l-0.207-0.392l-0.699-0.796l-0.514-0.46l-0.33-0.422
		l-0.202-0.436l-0.423-1.28l1.07-0.936l0.944-0.986l2.969-1.992l1.022-0.392l0.563-0.112l1.196-0.075l1.852,0.018l0.625-1.046
		l0.314-0.79l3.012-0.063l2.346-0.22l-0.497-1.542l-0.91-3.78l-0.126-0.986l-0.055-1.698l0.466-0.461l-0.047-0.864l-0.133-0.367
		l-0.128-0.148l-0.159-0.093l-0.335-0.041l-0.273,0.099l-0.193,0.153l-2.401-0.124l-1.319-0.213l-1.372-0.52l-0.961-0.609
		l-0.124-1.796l-0.216-0.745l-1.094-1.708l-0.982-1.097l0.937-1.586l0.293-0.658l0.535-1.64l0.808-1.454l0.958-0.97l1.279-0.883
		l0.176-0.236l0.257-0.556l0.406-1.536l0.116-1.462l-0.019-2.649l-0.228-3.064l4.063,1.62l1.624,0.729l1.108,0.388l1.657,0.463
		l1.493,0.668l1.229,0.323l0.542,0.016l0.509-0.088l0.426-0.212l0.559-0.389l1.484-0.775l0.547-0.153l1.355-0.248l0.466-0.176
		l0.77-0.524l1.265-0.713l1.602-0.73l1.536-0.847l-0.449-1.118l-0.395-1.828l-0.304-0.962l1.538-1.192l1.115-0.76l0.552-0.262
		l1.526-0.525l4.232-1.053l2.218,0.48l0.787,0.258l0.746,0.547l0.378,0.493l0.14,0.282l0.145,0.573l-0.002,0.874l-0.392,1.413
		l-0.475,1.252l0.245,0.299l0.414,0.376l1.181,0.734l1.077-0.434l0.575-0.373l0.713-0.562l2.817,1.644l3.564,1.744l0.447,0.42
		l0.233,0.571l1.286,0.7l0.877,0.37l2.102,0.44l0.754,0.031l0.811-0.214l0.663-0.341l0.965-0.91l0.585-0.639l0.656-0.552
		l0.411-0.228l0.756-0.122l1.636,0.101l0.466-0.067l1.788-0.448l0.861-0.088l0.849,0.103l0.542,0.2l0.464,0.241l0.39,0.336
		l0.963,1.2l2.76-0.873l1.367-0.489l0.97-0.451l0.706-0.516l0.418-0.177l0.461-0.012l1.186,0.163l0.494-0.048l0.475-0.248
		l0.197-0.201l0.254-0.462l0.335-1.024l0.468-1.124l0.397-1.415l0.523-1.381l0.09-0.843l-0.1-0.548l-0.278-0.498l-0.204-0.202
		l-0.44-0.271l-1.46-0.693l-0.675-0.576l-0.335-0.479l-1.208-2.21l1.638-1.593l1.662-1.197l0.72-0.283l1.381-0.352l0.649-0.098
		l1.683-0.034l0.934,0.105l0.59,0.16l0.832,0.31l0.54,0.273l2.18,1.556l0.834-0.79l0.568-0.645l0.38-0.352l1.45-0.904l1.652-0.775
		l0.799-0.24l2.651-0.352l0.732-0.035l0.892,0.051l0.708,0.899l0.59,0.541l0.454,0.512l0.495,0.446l0.437,0.489l1.403,1.368
		l0.896,1.011l0.856,1.47l0.97,2.401l0.861,1.634l0.162,0.567l0.285,1.75l0.159,0.511l0.48,1.171l0.357,1.136l0.784,4.063
		l0.559,2.02l0.323,1.417l0.63,1.677l0.428,2.024l0.062,0.874l-0.112,0.867l-0.373,1.12l-0.392,0.801l-0.307,0.238l-0.395,0.408
		l-0.513,0.857l-0.475,1.374l-0.376,1.66l-0.34,0.751l-0.299,0.398l-0.193,0.153l-0.825,0.411l-0.359,0.249l-0.834,0.693
		l-1.367,1.393l-0.994,0.913l-0.414,0.275l-0.98,0.562l-0.535,0.241l-1.115,0.385l-1.543,0.298l-3.034-0.158l-1.652,1.654
		l-0.704,0.896l-0.333,0.621l-0.523,1.469l-0.264,1.105l-0.076,0.928l0.074,0.627l0.404,1.455l0.214,1.374l0.756,1.107l0.433,0.365
		l0.506,0.24L505.979,285.129z M470.395,264.023l-0.544-0.126l-1.31-0.599l-0.611-0.177l-1.928-0.364l-2.403-0.613l0.116-0.008
		l-5.398-1.027l0.453,1.534l0.361,1.621l0.697,2.314l0.188,4.503l0.566,0.749l0.319,0.534l0.395,1.045l0.307,1.169v2.687
		l0.105,0.615l0.231,0.554l0.185,0.239l0.554,0.354l1.909,0.447l0.804,0.382l3.438-0.339l2.691-0.481l0.57-0.024l1.781,0.109
		l0.913,0.141l0.884,0.346l0.806,0.597l1.771,1.554l0.582,0.335l0.651,0.203l1.374,0.143l1.752-0.055l1.075-0.164l1.186-0.348
		l0.088-0.801l0.63-3.216l0.254-1.644l0.552-2.248l0.026-0.536l-0.138-0.515l-0.342-0.452l-0.659-0.403l-1.464-0.547l-1.498-0.296
		l-0.582-0.191l-0.525-0.31l-0.454-0.395l-0.38-0.448l-0.599-0.869l-0.687-0.735l-1.424-2.308l-1.167-1.426l-0.492-0.876
		l-0.602-1.252l-2.273,0.947l-1.899,0.603L470.395,264.023z"/>
	<path class="st0" d="M350.146,235.236l0.271,1.299l0.285,0.661l0.851,1.021l0.502,0.438l0.478,0.488l1.122,0.701l0.872,0.083
		l0.563,0.126l0.271,0.105l0.513,0.331l0.592,0.67l0.242,0.493l0.24,0.7l0.245,0.41l0.383,0.287l0.449,0.17l0.514,0.021l0.689-0.21
		l0.903-0.653l0.989-0.515l0.666,1.554l0.887,3.115l0.566,4.024l0.038,0.526l-0.059,0.998l0.162,0.758l0.204,0.483l0.333,0.461
		l0.414,0.382l1.096,0.823l0.568,0.699l0.342,0.864l0.257,1.941l0.68,0.794l0.354,0.35l1.519,1.141l0.509,0.196l0.511,0.121
		l1.115,0.041l1.365,0.147l1.101,1.096l1.182,1.628l0.48,1.077l0.637,0.956l0.632,1.219l0.273,0.831l0.328,1.744l0.2,2.534
		l0.147,0.59l0.126,0.275l0.373,0.449l0.447,0.297l1.548,0.734l1.307,0.619l0.276,0.996l0.188,0.498l0.763,1.665l0.523,0.961
		l1.108,0.064l0.566,0.11l0.485,0.207l0.54,0.435l1.155,1.489l0.697,1.255l0.554,1.186l0.711,1.251l0.597,0.738l0.73,1.04
		l0.953,0.946l1.025,0.726l1.474,1.362l0.989,0.738l1.538,1.554l0.281,1.568l0.116,1.405l-2.43,1.535l-1.082,0.311l-3.566,0.128
		l-4.072-0.469l-0.875-0.327l-0.518-0.416l-1.229-2.738l-0.461-0.766l-0.656-0.659l-3.949-1.478l-0.604-0.077l-1.262,0.012
		l-1.864-1.086l-0.321-0.084l-0.604-0.049l-0.371,0.288l-0.193,0.538l0.093,0.678l0.233,0.662l0.297,0.549l0.385,0.443l0.478,0.26
		l0.506,0.205l0.368,0.319l-0.078,0.994l-1.365,3.118l-0.939,1.556l-1.781,1.185l-0.25,0.492l-0.247,0.711l-0.093,1.635
		l-0.395,1.907l-1.193,0.506l-0.618-0.142l-0.578-0.429l-0.433-0.499l-0.934-1.438l-0.585-0.576l-0.556-0.216l-0.647,0.044
		l-2.71,1.158l-4.79,1.359l-1.607,1.174l-0.632,0.752l-1.039,0.726l-12.364,2.795l-1.431-1.442l-0.525-0.231l-2.869,0.645
		l-1.06,0.056l-2.537-0.452l-0.839,0.024l-1.657,0.607l-1.752,0.028l-0.485-0.313l-0.319-0.435l-0.321-0.788l-0.487-1.541
		l-0.38-0.668l-0.775-0.596l-0.716-0.297l-1.215-0.301l-0.231-0.122l-0.212-0.336l-0.335-1.217l-0.283-0.808l-0.544-0.952
		l-0.359-0.814l-0.257-2.1l-0.25-0.304l-0.473-0.06l-0.718,0.115l-8.042,2.444l-2.08,0.509l-0.452-0.047l-0.416-0.297l-0.288-0.538
		l-0.135-0.823l0.009-0.687l0.055-0.631l-0.026-0.486l-0.121-0.504l-0.269-0.634l-0.2-0.608l-0.121-0.934l0.029-0.855l0.197-1.683
		l0.045-0.868l-0.095-0.85l-0.288-0.875l-0.571-0.787l-1.726-1.395l-0.692-0.688l-0.38-0.53l-0.33-0.858l-0.169-1.014l0.043-2.701
		l-0.551,0.058l-1.633,0.972l-0.601,0.612l-0.418,0.522l-0.404,0.379l-0.466,0.263l-1.488,0.241l-0.597,0.2l-0.468,0.362
		l-1.16,1.505l-0.461,0.355l-0.383,0.21l-0.697,0.276l-1.892,0.319l-2.819,0.042l-0.704-0.012l-0.611-0.227l-4.003-2.639
		l-0.471-0.52l-0.252-0.616l-0.052-2.224l-0.525-1.46l-0.321-0.376l-0.307-0.255l-0.376-0.22l-0.399-0.141l-0.406-0.044
		l-1.852,0.244l-2.304,0.661l-0.887,0.578l-1.512,1.386l-3.371-0.371l-0.644-0.251l-0.727-0.415l-0.278-0.551l-0.093-0.656
		l0.076-0.787l0.994-3.253l0.128-0.762l-0.05-0.927l-0.3-1.19l-0.818-2.044l-0.202-0.89l0.592-1.768l0.311-0.458l0.438-0.503
		l0.561-0.292l0.675-0.199l4.835-0.139l1.771-0.588l1.013-0.643l0.69-0.795l0.768-1.608l0.663-0.728l0.713-0.328l1.353-0.182
		l7.132-3.31l1.985,2.146l0.732,0.457l0.525,0.068l0.637-0.143l0.68-0.532l0.421-0.541l0.316-0.488l0.283-0.311l0.304-0.111
		l0.452,0.177l0.471,0.286l0.504,0.23l0.54,0.118l5.133-0.465l0.464-0.121l0.342-0.377l0.25-0.749l0.319-2.862l0.202-0.71
		l0.254-0.518l0.511-0.368l0.487-0.177l2.163,0.118l0.844,0.362l3.461,2.059l0.62,0.229l0.697,0.128l0.851-0.099l0.666-0.37
		l0.311-0.811l-0.04-0.641l-0.138-0.732l0.238-0.637l0.604-0.418l2.163-0.4l2.018-0.657l1.008-0.786l-0.504-0.729l-0.24-0.248
		l-0.133-0.1l-0.145-0.075l-0.442-0.065l-0.307-0.119l-0.128-0.098l-0.109-0.109l-0.171-0.243l-0.226-0.482l-0.114-0.365
		l-0.078-0.498l-0.026-0.381l-0.252-0.566l-0.038-0.238l0.069-0.445l0.093-0.404l0.226-0.621l0.178-0.346l0.017-0.319l-0.043-0.188
		l-0.064-0.164l0.014-0.157l0.086-0.162l0.452-0.408l0.114-0.146l-0.029-0.128l-0.086-0.115l-0.347-0.157l-0.033-0.17l0.133-0.292
		l0.347-0.576l0.428-0.424l0.307-0.379l0.14-0.214l-0.007-0.223l-0.088-0.146l-0.021-0.17l0.059-0.181l0.473-0.28l0.342-0.139
		l0.922-0.665l0.285-0.136l0.271-0.087l0.135,0.005l0.171-0.049l0.162-0.098l0.509-0.434l0.143-0.201l0.176-0.346l0.009-0.195
		l-0.007-0.112l-0.452-0.708l-2.731-1.516l-0.25-0.207l-0.176-0.219l-0.078-0.364l0.071-0.201l0.045-0.477l0.095-0.428l0.321-0.327
		l0.43,0.499l0.485,0.04l2.696-0.655l0.126-0.272l0.012-0.312l0.036-0.236l0.373-0.447l0.865-0.627l0.402-0.487l0.29-0.476
		l0.081-0.287l0.04-0.678l0.038-0.171l0.074-0.153l0.114-0.167l0.107-0.195l0.273-0.289l0.585-0.126l0.639,0.35l7.082,3.808
		l5.342,3.927l0.78,0.415l2.541,0.161L350.146,235.236z"/>
	<path class="st0" d="M416.059,231.523l0.254,0.917l0.704,1.339l0.193,0.524l0.019,0.529l-0.169,0.504l-0.302,0.383l-0.763,0.767
		l-1.041,0.887l-2.149,1.387l-1.008-0.493l-0.77-0.549l-1.36-0.603l-1.3-0.215l-4.241-1.21l0.012-1.89l1.388-1.935l0.953-0.894
		l0.858,0.345l3.293,1.08l1.355-1.378l0.245-0.152l0.561-0.194l0.602-0.062l0.93,0.116l0.597,0.212L416.059,231.523z"/>
	<path class="st0" d="M417.999,323.432l0.635,0.8l0.502,0.536l3.062-2.666l1.3-0.944l0.823-0.788l2.025-2.617l2.144,0.789
		l2.206,0.723l1.612,0.639l1.396,0.808l0.54,0.457l0.901,0.645l1.091,1.004l1.823-3.387l1.709-2.262l0.476-0.528l2.049-2.886
		l0.927-0.352l1.498-0.404l0.841-0.042l0.537,0.098l0.25,0.097l0.44,0.302l1.41,1.407l1.113,0.683l0.787,0.368l2.437,0.741
		l0.492,0.281l0.409,0.405l0.157,0.233l0.292,0.711l4.374,0.007l4.419,0.062l2.004-0.055l1.522,0.059l2.32,0.443l0.773,0.258
		l1.445,0.824l0.97,0.889l1.322,1.381l0.989,0.913l1.429,0.934l1.838-0.214l3.671-0.126l0.582-0.097l1.139-0.328l2.342-0.944
		l0.435-0.261l0.328-0.367l1.182-1.767l0.195-0.204l0.461-0.311l1.063-0.385l1.961-0.264l0.535-0.172l0.262-0.15l0.435-0.407
		l0.169-0.249l0.197-0.524l0.095-0.552l0.147-2.045l0.205-1.269l0.114-1.329l2.318-0.448l0.345,1.475l0.492,0.64l0.635,0.609
		l0.711,0.307l0.946,0.221l1.588,0.014l1.136,0.163l-0.209,0.286l-2.23,1.913l-0.516,0.637l-0.212,0.491l0.052,0.451l0.397,0.595
		l3.654,3.927l0.894,1.395l0.566,1.616l0.216,0.988l0.064,0.676l-0.071,2.226l-0.649,4.96l-0.088,1l0.226,1.157l0.266,0.467
		l0.297,0.428l0.832,1.475l0.628,0.685l0.661,0.319l3.126-1.124l0.863,0.058l-1.305,3.947l-0.556,3.35l-0.086,2.445l0.442,6.694
		l1.688,10.597l0.49,1.781l0.009,0.69l-0.193,0.363l-0.49,0.163l-0.892-0.032l-0.376,0.039l-0.399,0.143l-0.856,0.649l-0.713,1.133
		l-1.072,2.1l-2.242,1.36l-8.161,1.049l-1.731,0.158l-0.582,0.266l-0.435,0.591l-0.326,1.229l-0.661,5.263l-0.357,0.957
		l-0.328,0.603l-1.21,0.882l-3.725,1.203l-2.296,0.318l-0.442-0.053l-1.664-0.823l-1.053-0.168l-0.67,0.03l-13.177,4.552
		l-1.636,0.854l-2.011,1.648l-1.695,0.752l-1.058,0.316l-2.042,0.346l-7.194,1.129l-0.694-0.172l-1.769-0.782l-1.776-1.045
		l-1.838-1.503l-0.406-0.67l-0.326-0.819l-0.031-0.688l0.021-0.62l-0.292-0.787l-0.649-1.317l-1.526-2.127l-2.907-5.372
		l-0.456-0.308l-1.374-0.359l-6.557-0.653l-9.471-1.016l-10.223-1.648l-1.695-0.538l-0.587-0.493l-0.552-0.705l-0.941-1.931
		l-0.007-0.348l0.021-0.242l0.105-0.365l0.114-0.766v-0.379l-0.045-0.25l-0.095-0.291l-0.078-0.355l-0.012-0.212l0.005-0.212
		l0.024-0.198l0.04-0.18l0.204-0.466l0.052-0.17l0.033-0.19v-0.207l-0.078-1.26l0.007-0.43l0.059-0.598v-0.189l-0.021-0.146
		l-0.119-0.237l-0.471-0.686l-7.569-0.145l-0.062-2.126l0.193-0.708l0.233-0.659l0.568-1.217l-0.292-0.942l-2.475-2.345
		l-0.941-1.266l-0.454-0.823l-0.254-0.719l-0.162-0.787l-0.088-0.769l0.005-0.647l0.128-0.606l0.235-0.585l0.87-1.251l1.3-1.279
		l0.547-0.379l0.58-0.262l1.533-0.264l5.149-0.582l1.127-1.883l0.121-2.313l1.001-4.84l0.038-0.462l0.154-2.321l0.124-0.321
		l0.245-0.412l0.38-0.209l0.647-0.23l2.965-0.197l1.49-0.602l0.485-0.591l0.319-0.614l0.299-0.74l1.398-1.746l0.183-0.764
		l0.043-1.607l0.14-0.746l0.162-0.517L417.999,323.432z"/>
	<path class="st0" d="M407.501,293.912l-0.043,1.13l0.052,0.902l0.345,1.989l0.378,1.03l0.245,0.425l0.884,0.973l1.419,1.29
		l0.884,0.967l0.242,0.426l0.197,0.493l0.143,0.523l0.064,0.775l-0.04,0.85l-0.193,1.474l-0.621,0.096l-0.437,0.207l-0.549,0.48
		l-0.972,1.019l0.901,1.117l0.737,1.099l0.418,0.529l0.48,1.074l0.597,0.919l0.254,0.634l0.178,0.634l0.067,0.567l0.036,3.227
		l0.09,0.551l0.195,0.512l0.228,0.312l0.345,0.297l2.981,2.063l0.991,0.935l-1.208,1.325l-0.162,0.517l-0.14,0.746l-0.043,1.607
		l-0.183,0.764l-1.398,1.746l-0.299,0.74l-0.319,0.614l-0.485,0.591l-1.49,0.602l-2.965,0.197l-0.647,0.23l-0.38,0.209l-0.245,0.412
		l-0.124,0.321l-0.154,2.321l-0.038,0.462l-1.001,4.84l-0.121,2.313l-1.127,1.883l-5.149,0.582l-1.533,0.264l-0.58,0.262
		l-0.547,0.379l-1.3,1.279l-0.87,1.251l-0.235,0.585l-0.128,0.606l-0.005,0.647l0.088,0.769l0.162,0.787l0.254,0.719l0.454,0.823
		l0.941,1.266l2.475,2.345l0.292,0.942l-0.568,1.217l-0.233,0.659l-0.193,0.708l0.062,2.126l-0.135,0.516l-0.228,0.587l-1.598,3.125
		l-0.502,0.704l-0.663,0.744l-3.923,3.02l-4.738,2.585l-0.663,1.227l-3.98,8.631l-0.347,1.04l-0.383,1.564l-0.423,0.908l-0.34,0.53
		l-1.129,1.013l-0.295,0.908l0.014,1.034l1.431,3.937l0.188,0.837l-0.04,0.544l-8.565-0.704l-11.582,0.897l-6.704,2.14l-1.788,0.791
		l-3.763-15.118l-0.685-1.891l-1.048-2.327l-0.292-0.817l-0.119-0.58l0.04-0.472l0.102-0.35l0.896-2.235l0.573-1.842l-0.461-0.896
		l-2.078-1.31l-0.908-0.781l-1.445-0.892l-2.86-0.902l-0.597-0.385l-0.459-0.534l-0.278-0.627l-0.226-0.705l-0.316-1.476
		l-0.185-1.254l-0.278-3.447l-0.119-0.545l-0.05-0.46l0.071-1.007l-0.038-0.729l-0.29-1.692l-0.012-0.621l0.131-0.522l0.231-0.434
		l1.339-1.245l1.051-1.506l0.849-2.08l0.019-0.802l-0.033-1.734l0.982-3.536l0.057-1.292l-0.107-1.112l-0.29-1.719l-0.071-2.818
		l0.157-0.814l0.3-0.762l0.361-0.694l0.404-0.588l0.464-0.406l1.241-0.478l0.689-0.37l0.604-0.489l0.409-0.558l0.176-0.418
		l0.119-0.606l0.036-1.364l-0.185-1.718l-0.235-0.745l-0.29-0.583l-0.335-0.318l-0.247-0.596l0.411-0.914l2.009-2.62l0.124-0.583
		l-0.145-0.493l-0.295-0.457l-0.204-0.575l-0.114-0.572l-0.2-2.688l-2.149-2.72l-2.608-2.584l-0.302-0.427l-0.82-1.722l12.364-2.795
		l1.039-0.726l0.632-0.752l1.607-1.174l4.79-1.359l2.71-1.158l0.647-0.044l0.556,0.216l0.585,0.576l0.934,1.438l0.433,0.499
		l0.578,0.429l0.618,0.142l1.193-0.506l0.395-1.907l0.093-1.635l0.247-0.711l0.25-0.492l1.781-1.185l0.939-1.556l1.365-3.118
		l0.078-0.994l-0.368-0.319l-0.506-0.205l-0.478-0.26l-0.385-0.443l-0.297-0.549l-0.233-0.662l-0.093-0.678l0.193-0.538l0.371-0.288
		l0.604,0.049l0.321,0.084l1.864,1.086l1.262-0.012l0.604,0.077l3.949,1.478l0.656,0.659l0.461,0.766l1.229,2.738l0.518,0.416
		l0.875,0.327l4.072,0.469l3.566-0.128l1.082-0.311l2.43-1.535l1.678-0.349l0.801-0.102l0.533,0.023l0.794,0.152l0.523,0.035
		l1.971-0.238l2.817-0.607L407.501,293.912z"/>
	<path class="st0" d="M507.27,272.909l-0.088,0.461l-0.404,0.679l-0.121,0.383l0.3,1.404l0.033,0.447l-0.033,1.083l0.117,0.324
		l0.226,0.251l0.155,0.258l-0.105,0.336l-0.024,0.18l-0.017,0.772l-0.038,0.363l-0.171,0.573l-0.841,1.633l-0.202,0.226
		l-0.235,0.169l-0.195,0.204l-0.081,0.333l0.057,0.434l0.295,0.468l0.119,0.39l-0.036,0.849l-2.907-0.535l-0.506-0.24l-0.433-0.365
		l-0.756-1.107l-0.214-1.374l-0.404-1.455l-0.074-0.627l0.076-0.928l0.264-1.105l0.523-1.469l0.333-0.621l0.704-0.896l1.652-1.654
		L507.27,272.909z"/>
	<path class="st0" d="M470.395,264.023l0.832-0.069l1.899-0.603l2.273-0.947l0.602,1.252l0.492,0.876l1.167,1.426l1.424,2.308
		l0.687,0.735l0.599,0.869l0.38,0.448l0.454,0.395l0.525,0.31l0.582,0.191l1.498,0.296l1.464,0.547l0.659,0.403l0.342,0.452
		l0.138,0.515l-0.026,0.536l-0.552,2.248l-0.254,1.644l-0.63,3.216l-0.088,0.801l-1.186,0.348l-1.075,0.164l-1.752,0.055
		l-1.374-0.143l-0.651-0.203l-0.582-0.335l-1.771-1.554l-0.806-0.597l-0.884-0.346l-0.913-0.141l-1.781-0.109l-0.57,0.024
		l-2.691,0.481l-3.438,0.339l-0.804-0.382l-1.909-0.447l-0.554-0.354l-0.185-0.239l-0.231-0.554l-0.105-0.615v-2.687l-0.307-1.169
		l-0.395-1.045l-0.319-0.534l-0.566-0.749l-0.188-4.503l-0.697-2.314l-0.361-1.621l-0.453-1.534l5.398,1.027l-0.116,0.008
		l2.403,0.613l1.928,0.364l0.611,0.177l1.31,0.599L470.395,264.023z"/>
</g>
<g id="Copyright">
	<text transform="matrix(1 0 0 1 681.6426 577.5916)" class="st1 st2"> Vemaps.com</text>
</g>
</svg>
