<svg width="199" height="201" fill="none" xmlns="http://www.w3.org/2000/svg"><path d="M178.717 100.335a26.714 26.714 0 00-.037-1.095c-.008-.45-.03-.9-.053-1.35-.03-.616-.067-1.231-.12-1.839a40.638 40.638 0 00-.142-1.688 20.43 20.43 0 00-.098-.975c-.03-.3-.06-.6-.097-.893-.045-.345-.083-.697-.135-1.043-.06-.487-.128-.975-.21-1.462a25.215 25.215 0 00-.12-.773c-.053-.323-.105-.645-.166-.968-.03-.218-.075-.435-.112-.653-.053-.3-.113-.607-.173-.907-.075-.353-.142-.706-.217-1.05a61.155 61.155 0 00-.36-1.636 72.82 72.82 0 00-.428-1.733 63.749 63.749 0 00-.518-1.928c-.172-.593-.345-1.178-.525-1.763-.007-.015-.007-.03-.015-.045a49.291 49.291 0 00-.577-1.763c-.015-.068-.038-.135-.06-.203-.195-.57-.398-1.133-.601-1.695a69.074 69.074 0 00-1.905-4.704 23.717 23.717 0 00-.443-.998 50.633 50.633 0 00-.817-1.725c-.218-.45-.443-.908-.676-1.35a53.07 53.07 0 00-.757-1.449 77.675 77.675 0 00-1.838-3.226c-.21-.345-.421-.697-.638-1.035A64.85 64.85 0 00165.333 58l-10.608 10.608-10.795 10.788.833-22.243-22.252.825 21.404-21.404c-.39-.262-.788-.525-1.186-.78-.255-.165-.51-.33-.765-.488-.315-.202-.63-.405-.953-.592-.112-.068-.225-.135-.33-.203a75.81 75.81 0 00-1.508-.893 58.503 58.503 0 00-1.327-.742c-.203-.113-.406-.218-.608-.33a42.189 42.189 0 00-1.418-.743 62.208 62.208 0 00-1.71-.855 83.434 83.434 0 00-2.026-.938c-.39-.173-.78-.345-1.178-.51a61.899 61.899 0 00-2.618-1.066c-.368-.15-.743-.292-1.126-.427l-.427-.158c-.383-.135-.765-.27-1.148-.397a64.113 64.113 0 00-2.416-.788c-.495-.158-.99-.308-1.493-.45-.157-.045-.315-.09-.472-.128a36.999 36.999 0 00-1.561-.42 42.536 42.536 0 00-1.695-.413 41.171 41.171 0 00-1.673-.375c-.345-.075-.698-.142-1.05-.217-.301-.06-.608-.12-.908-.165-.218-.045-.435-.09-.653-.12-.322-.06-.645-.113-.968-.165a23.7 23.7 0 00-.772-.12c-.488-.083-.976-.15-1.463-.21-.345-.053-.698-.09-1.043-.136-.293-.037-.593-.067-.893-.097a21.445 21.445 0 00-.975-.098 41.247 41.247 0 00-1.688-.142 49.37 49.37 0 00-1.838-.12c-.45-.023-.9-.045-1.351-.053-.367-.022-.727-.03-1.095-.037-.54-.008-1.08-.015-1.62-.015-43.505 0-78.773 35.267-78.773 78.773 0 .54.008 1.08.015 1.62.007.368.015.728.037 1.095.008.45.03.901.053 1.351.03.615.068 1.23.12 1.838.038.562.083 1.133.143 1.688.022.322.06.652.097.975.03.3.06.6.098.893.045.345.082.697.135 1.043.06.487.127.975.21 1.462.037.263.075.518.12.773.052.323.105.645.165.968.03.218.075.435.12.653.045.3.105.607.165.907.075.353.143.706.218 1.051.112.562.24 1.118.375 1.673.127.57.262 1.133.412 1.695.128.525.27 1.043.42 1.561.038.157.083.315.128.472.142.503.293.998.45 1.493.248.81.51 1.621.788 2.416.127.383.262.765.397 1.148l.158.427c.135.383.277.758.428 1.126.24.637.495 1.275.757 1.898.165.397.33.795.51 1.185a.31.31 0 00.045.105c.18.42.368.848.563 1.26.195.436.398.871.608 1.298.135.285.277.57.42.856.33.682.675 1.357 1.035 2.025.158.3.323.593.48.885a75.704 75.704 0 002.183 3.729 80.82 80.82 0 001.546 2.386l5.109-5.109 5.499-5.499 63.746-63.746-5.184-5.177 33.032-1.253-1.261 33.025-5.169-5.177-63.745 63.746-10.608 10.608a65.02 65.02 0 002.385 1.546c.338.217.69.427 1.035.637a75.46 75.46 0 004.674 2.596c.443.233.9.458 1.35.675.57.285 1.149.556 1.726.818.33.158.66.3.998.443a70.346 70.346 0 004.704 1.905 107 107 0 001.695.6c.068.023.135.045.203.06.585.203 1.17.398 1.763.578.015.008.03.008.045.015.585.18 1.17.353 1.763.525a67.596 67.596 0 001.928.518c.578.15 1.155.293 1.733.428.54.127 1.088.247 1.635.36.346.075.698.142 1.05.217.3.06.609.12.909.173.217.037.435.082.652.112.323.06.645.113.968.165.255.045.51.083.773.12.487.083.975.15 1.463.21.345.053.697.091 1.043.136.292.037.592.067.892.097.323.038.645.075.976.098.555.06 1.125.105 1.688.142.607.053 1.222.09 1.838.12.45.023.9.045 1.35.053.368.022.728.03 1.095.037.54.008 1.08.015 1.62.015 43.506 0 78.773-35.267 78.773-78.772 0-.541 0-1.081-.015-1.621zm-114.4-51.682l-10.075.435 4.096 4.103 8.012 8.013-29.521 29.52s-.008.016-.008.023v.015a64.7 64.7 0 00-.975 11.194l41.052-41.052-5.184-5.184 33.43-1.276v4.494l-18.5.833 11.86 11.86-62.583 62.584a71.435 71.435 0 01-7.66-32.259c0-39.597 32.102-71.699 71.699-71.699 11.606 0 22.559 2.761 32.259 7.66l-5.679 5.68-13.587 13.593V46.552l-48.636 2.1zM99.96 173.646c-11.606 0-22.567-2.761-32.267-7.66l5.679-5.679 56.904-56.904 11.868 11.869.826-18.5h4.501l-1.276 33.422-5.184-5.184-41.051 41.051c3.826 0 7.569-.33 11.208-.975h.022l29.521-29.528 8.013 8.012 4.096 4.104.435-10.076 2.101-48.636h-10.638l13.593-13.594 5.687-5.68c4.892 9.694 7.652 20.662 7.652 32.268 0 39.588-32.094 71.69-71.69 71.69zM55.764 177.945l2.453 1.268.196 7.547-.165 1.523.037.022.81-1.673 2.829-5.491 1.898.975-4.817 9.333-2.453-1.268-.105-7.787.067-1.283-.037-.023-.81 1.673-2.836 5.499-1.89-.975 4.816-9.333.007-.007zM68.458 183.917l2.28.84.278 11.298-2.25-.833-.015-2.513-4.067-1.5-1.643 1.905-2.138-.787 7.563-8.403-.008-.007zm-2.543 5.889l2.843 1.05.038-4.561-.03-.015-2.851 3.526zM74.692 186.137l7.952 1.981-.45 1.808-2.94-.735-2.086 8.387-2.063-.518 2.085-8.387-2.94-.735.45-1.808-.008.007zM81.812 198.561l1.816-10.346 2.093.368-1.816 10.345-2.093-.367zM92.233 189.273c.982.083 1.845.368 2.58.848a4.466 4.466 0 011.666 1.988c.367.84.51 1.831.412 2.956-.097 1.125-.405 2.07-.915 2.843-.51.773-1.17 1.328-1.988 1.673-.81.345-1.71.473-2.693.39-.983-.09-1.846-.367-2.588-.848-.736-.48-1.29-1.147-1.666-1.988-.367-.847-.51-1.83-.412-2.955.097-1.126.405-2.071.915-2.844.51-.765 1.17-1.328 1.98-1.673s1.71-.472 2.694-.39h.015zm-.128 1.493c-.45-.037-.9.03-1.35.195-.45.173-.848.525-1.208 1.073-.353.548-.578 1.32-.668 2.333-.09 1.013 0 1.816.248 2.416.247.6.592 1.02 1.005 1.268.413.247.84.382 1.29.427.315.03.645 0 .983-.075.338-.075.66-.24.975-.495.316-.255.593-.63.818-1.125.233-.503.375-1.133.443-1.913.09-1.013 0-1.816-.248-2.416-.255-.6-.593-1.02-1.005-1.268a3.097 3.097 0 00-1.29-.427l.007.007zM98.572 189.828l2.753-.097 3.864 6.482.6 1.403h.045l-.113-1.861-.217-6.174 2.13-.075.368 10.495-2.761.098-3.901-6.737-.57-1.148h-.045l.112 1.853.218 6.182-2.13.075-.368-10.496h.015zM112.586 188.838l2.4-.383 5.755 9.723-2.371.375-1.245-2.19-4.284.675-.51 2.468-2.251.353 2.498-11.028.008.007zm.66 6.384l2.993-.472-2.19-3.999h-.03l-.766 4.471h-.007zM119.923 187.495l2.055-.547 2.243 8.439 4.029-1.072.458 1.71-6.092 1.621-2.701-10.151h.008zM131.664 183.947l3.03-1.351c.518-.232 1.058-.42 1.628-.577.571-.158 1.208-.203 1.913-.143.706.06 1.396.33 2.079.825.682.495 1.26 1.283 1.74 2.363.465 1.043.66 1.981.593 2.806-.068.825-.308 1.516-.72 2.078a5.595 5.595 0 01-1.388 1.366c-.518.345-1.043.637-1.576.877l-3.031 1.351-4.268-9.595zm2.663.75l2.836 6.362 1.11-.495c.93-.413 1.538-.938 1.816-1.561.277-.623.375-1.193.285-1.71a5.806 5.806 0 00-.376-1.313c-.157-.36-.405-.751-.72-1.156-.322-.405-.81-.72-1.455-.93-.653-.21-1.441-.112-2.371.308l-1.11.495h-.015zM146.165 188.718l-5.041-9.213 1.868-1.02 5.042 9.213-1.869 1.02zM149.811 186.257l-.795-1.665a7.05 7.05 0 001.358-.338 5.103 5.103 0 001.163-.532c.42-.271.697-.593.825-.968s.097-.713-.09-.998a1.205 1.205 0 00-.48-.458 1.452 1.452 0 00-.593-.15c-.21-.007-.473 0-.773.045-.3.038-.615.083-.945.12-.6.06-1.11.083-1.538.06a2.728 2.728 0 01-1.163-.315c-.352-.187-.66-.487-.922-.907a3.467 3.467 0 01-.458-1.201c-.098-.472-.03-.983.21-1.538.233-.555.713-1.065 1.44-1.53.946-.608 1.876-1.021 2.769-1.238l.72 1.538c-.885.157-1.621.427-2.213.803-.503.322-.788.645-.855.96-.06.322-.023.593.127.825.21.33.48.51.818.555.337.045.728.03 1.163-.045.787-.127 1.41-.21 1.875-.232a3.18 3.18 0 011.411.27c.472.202.892.592 1.252 1.155.211.33.346.683.421 1.065.067.383.045.788-.068 1.208-.112.42-.338.84-.683 1.261-.337.42-.802.825-1.388 1.2-.727.465-1.59.81-2.588 1.028v.022zM151.207 173.301l2.453-1.906c1.215-.945 2.266-1.32 3.151-1.117.885.202 1.568.615 2.048 1.23.345.443.563.938.653 1.5.097.563.022 1.133-.225 1.718-.248.586-.676 1.118-1.298 1.606l-1.081.84 2.424 3.114-1.681 1.305-6.452-8.282.008-.008zm4.696 2.566l.773-.6c.442-.345.69-.743.743-1.186a1.66 1.66 0 00-.368-1.23c-.278-.353-.615-.563-1.028-.623-.413-.06-.863.098-1.343.473l-.773.6 2.004 2.566h-.008zM160.209 165.799l1.748-1.696 10.308 4.637-1.725 1.673-2.273-1.073-3.114 3.016 1.006 2.31-1.636 1.591-4.306-10.451-.008-.007zm4.217 4.839l2.175-2.108-4.096-2.011-.022.023 1.943 4.096zM164.906 161.133l5.236-6.302 1.433 1.185-1.935 2.333 6.647 5.522-1.358 1.635-6.647-5.521-1.936 2.333-1.433-1.185h-.007zM181.89 152.468l1.553.892a8.562 8.562 0 01-1.147 2.506 6.31 6.31 0 01-1.463 1.553c-.563.42-1.171.72-1.823.885a4.599 4.599 0 01-2.048.038c-.713-.143-1.418-.45-2.124-.931a5.898 5.898 0 01-1.628-1.59 4.791 4.791 0 01-.772-1.936c-.113-.69-.068-1.402.135-2.145.195-.743.547-1.486 1.05-2.228a7.633 7.633 0 011.598-1.726l1.44 1.088c-.577.39-1.08.893-1.492 1.508-.406.593-.646 1.208-.728 1.838a3.13 3.13 0 00.285 1.808c.27.57.728 1.073 1.358 1.5.697.473 1.365.713 2.003.728.638.008 1.208-.142 1.703-.465a4.33 4.33 0 001.26-1.245c.435-.646.72-1.336.84-2.078zM175.656 146.616l.991-1.883 3.743 1.973 1.988-3.774-3.743-1.973.99-1.883 9.288 4.899-.991 1.883-4.021-2.123-1.988 3.774 4.021 2.123-.99 1.883-9.288-4.899zM189.933 141.559l-9.655-4.133.84-1.958 9.655 4.133-.84 1.958zM181.876 133.87l.87-2.619 7.42-1.372 1.522-.075.016-.045-1.779-.541-5.866-1.943.667-2.025 9.971 3.301-.87 2.625-7.675 1.313-1.275.135-.015.045 1.778.541 5.866 1.943-.667 2.018-9.971-3.301h.008zM187.142 115.407l1.816.488c-.578.802-.975 1.74-1.193 2.82-.15.736-.12 1.396.083 1.973a3.037 3.037 0 001.042 1.426c.488.375 1.081.623 1.771.765.675.135 1.305.128 1.89-.015a2.932 2.932 0 001.493-.885c.405-.443.683-1.02.826-1.741.112-.562.135-1.035.075-1.425l-2.454-.495-.42 2.108-1.613-.323.84-4.193 5.455 1.095c.105 1.395.052 2.633-.165 3.713-.233 1.148-.653 2.086-1.268 2.814-.616.727-1.358 1.223-2.236 1.478-.878.255-1.831.285-2.858.075-.893-.18-1.643-.48-2.258-.908a4.471 4.471 0 01-1.411-1.553 5.153 5.153 0 01-.593-1.996 7.99 7.99 0 01.136-2.288c.225-1.118.57-2.093 1.05-2.926l-.008-.007zM196.197 100.943l1.794-.083c.27.908.397 1.823.367 2.731a6.382 6.382 0 01-.405 2.093c-.248.66-.6 1.23-1.065 1.718a4.65 4.65 0 01-1.711 1.125c-.675.263-1.44.383-2.295.353-.818-.022-1.561-.18-2.229-.473a4.824 4.824 0 01-1.688-1.215 4.997 4.997 0 01-1.035-1.883c-.225-.735-.33-1.545-.3-2.446a7.536 7.536 0 01.428-2.31l1.8.15a5.595 5.595 0 00-.457 2.07c-.023.721.097 1.366.367 1.943a3.137 3.137 0 001.2 1.373c.533.338 1.186.518 1.951.54.84.023 1.538-.127 2.078-.457.548-.33.945-.765 1.193-1.306.248-.54.383-1.11.405-1.725a5.292 5.292 0 00-.398-2.206v.008zM187.742 99.285l-.397-6.257 1.86-.12.263 4.134 2.363-.15-.24-3.759 1.718-.112.24 3.758 2.678-.172-.262-4.134 1.86-.12.398 6.257-10.481.667v.008zM187.255 91.64l-.458-2.716 5.912-4.689 1.313-.78v-.045l-1.838.353-6.092 1.035-.36-2.1 10.353-1.756.465 2.723-6.167 4.757-1.065.712v.045l1.83-.352 6.1-1.035.352 2.1-10.353 1.756.008-.008zM185.529 81.872l-2.236-7.885 1.793-.51.826 2.919 8.312-2.364.578 2.049-8.313 2.355.826 2.919-1.793.51.007.007zM182.956 73.147l-2.258-5.851 1.733-.668 1.493 3.864 2.213-.856-1.358-3.51 1.613-.624 1.358 3.511 2.506-.967-1.493-3.864 1.733-.668 2.258 5.852-9.798 3.781zM179.963 65.593l-1.681-3.316c-.6-1.186-.773-2.131-.51-2.836.262-.705.75-1.238 1.455-1.598.645-.33 1.231-.398 1.756-.218.532.18.975.488 1.343.923l.022-.015a1.282 1.282 0 01.038-.735c.09-.233.24-.48.45-.743l2.851-3.368 1.08 2.123-2.356 2.715c-.247.286-.39.556-.435.818-.045.263.008.54.158.84l.367.72 3.856-1.957.961 1.898-9.363 4.756.008-.007zm.502-2.641l2.573-1.306-.517-1.02c-.285-.563-.63-.9-1.036-1.005-.405-.113-.765-.083-1.072.075-.323.165-.556.42-.706.78-.15.36-.067.84.248 1.456l.518 1.02h-.008zM13.04 149.519l-3.121-6.092 7.69-3.938-.548-1.065 3.616-1.854.96 1.869-1.965 1.005 2.88 5.626 1.966-1.005.96 1.868-3.616 1.853-.547-1.073a8.55 8.55 0 00-1.943.083 8.93 8.93 0 00-1.673.443c-.526.195-1.08.45-1.666.75l-2.993 1.53zm-.488-5.041l1.223 2.393 1.335-.683a25.988 25.988 0 011.77-.832 8.894 8.894 0 011.614-.488 7.452 7.452 0 011.808-.128l-1.718-3.353-6.032 3.091zM8.471 140.187l-.728-2.004 5.072-1.853 2.415-.832-.015-.045-1.695-.18-7.292-1.253-.878-2.393 9.865-3.601.728 2.003-5.086 1.86-2.401.825.015.045 1.74.128 7.248 1.298.877 2.393-9.865 3.601v.008zM10.887 119.323l1.703-.548a8.443 8.443 0 011.072 2.536c.173.72.225 1.425.165 2.131a5.085 5.085 0 01-.577 1.943c-.323.6-.773 1.11-1.358 1.538-.585.427-1.29.742-2.116.945a6.05 6.05 0 01-2.273.135 4.705 4.705 0 01-1.95-.735c-.586-.383-1.08-.9-1.493-1.546-.413-.645-.728-1.403-.938-2.273a7.721 7.721 0 01-.195-2.348l1.77-.33a5.477 5.477 0 00.105 2.116c.165.697.458 1.29.863 1.778.405.487.915.825 1.523 1.012.608.188 1.283.188 2.026.015.817-.195 1.448-.525 1.883-.99.435-.465.705-.99.81-1.575a4.287 4.287 0 00-.068-1.771 5.092 5.092 0 00-.967-2.018l.015-.015zM2.244 118.648l-1.058-8.35 10.42-1.313.27 2.116-8.71 1.102.518 4.127 8.71-1.103.27 2.108-10.42 1.313zM1.036 107.387l-.15-6.272 1.86-.045.098 4.141 2.371-.06-.09-3.766 1.725-.045.09 3.766 2.686-.067-.097-4.141 1.86-.045.15 6.272-10.495.255-.008.007zM.879 99.435l.54-8.178 1.86.12-.202 3.024 8.62.57-.143 2.123-8.62-.57-.202 3.023-1.86-.12.007.008zM1.621 89.457l.36-2.1 3.534.6c.51.09.93.037 1.268-.158.33-.195.57-.72.72-1.576.105-.6.127-1.26.082-1.98l-4.929-.84.36-2.1 10.354 1.762-.36 2.1-3.684-.622c.015.72-.023 1.38-.128 1.973-.15.878-.36 1.583-.637 2.108-.278.525-.586.908-.938 1.133-.345.225-.698.36-1.05.39a4.51 4.51 0 01-1.133-.052l-3.819-.653v.015zM3.677 78.496l1.666-6.046 1.793.495-1.103 3.99 2.288.631.998-3.631 1.665.458-.997 3.63 2.588.713 1.103-3.99 1.793.494-1.666 6.047-10.128-2.783v-.008zM6.13 70.034l1.103-2.904c.547-1.44 1.253-2.31 2.108-2.595.855-.285 1.658-.293 2.393-.015.518.195.968.51 1.343.938.375.427.608.96.705 1.582.098.623 0 1.306-.27 2.041l-.48 1.275 3.69 1.396-.75 1.988-9.82-3.714-.022.008zm5.341-.255l.345-.915c.203-.526.203-.998.015-1.403a1.642 1.642 0 00-.952-.863c-.42-.158-.818-.158-1.2 0-.383.165-.683.532-.9 1.103l-.346.915 3.046 1.155-.008.008zM9.649 61.016l.968-1.898 4.809 2.453 2.25 1.2.023-.037-1.02-1.365-4.044-6.197 1.163-2.273 9.355 4.779-.968 1.898-4.824-2.468-2.236-1.193-.022.045 1.088 1.365 3.983 6.197-1.162 2.273-9.356-4.779H9.65zM16.25 43.446l1.103-.578c.705 1.05.668 2.146-.105 3.286-.773 1.14-1.778 1.576-3.008 1.313l.127-1.237c.683.15 1.268-.136 1.748-.848.48-.713.525-1.358.135-1.936zm-.885 6.797l1.193-1.763 4.471 3.031 2.086 1.47.022-.037-.847-1.478-3.256-6.647 1.433-2.108 8.695 5.89-1.193 1.762-4.487-3.038-2.07-1.463-.03.037.915 1.486 3.188 6.64-1.432 2.107-8.695-5.889h.007zM22.35 40.288l1.395-1.606 3.196 2.776 2.798-3.218-3.196-2.776 1.396-1.606 7.93 6.887-1.396 1.606-3.436-2.978-2.798 3.218 3.436 2.978-1.396 1.606-7.93-6.887zM33.423 28.442l1.905-1.56 4.014 1.485.713.352.037-.03-.18-.787-.66-4.232 1.74-1.425 1.036 7.225 2.7 3.293-1.65 1.35-2.716-3.315-6.932-2.349-.007-.007zM42.605 21.097l1.786-1.155 2.303 3.549 3.579-2.319-2.304-3.548 1.786-1.156 5.71 8.816-1.786 1.155-2.469-3.819-3.578 2.318 2.468 3.819-1.785 1.155-5.71-8.815zM53.979 14.18l6.144-3.008 3.796 7.765 1.073-.526 1.785 3.654-1.883.923-.967-1.98-5.68 2.775.968 1.98-1.883.923-1.785-3.653 1.08-.525a9.155 9.155 0 00-.045-1.943 9.018 9.018 0 00-.413-1.68 15.178 15.178 0 00-.72-1.674l-1.478-3.016.008-.015zm5.049-.397L56.62 14.96l.66 1.342c.33.683.6 1.276.795 1.786a8.6 8.6 0 01.457 1.62c.106.57.136 1.178.098 1.808l3.383-1.658-2.978-6.091-.007.015zM66.455 15.058l-.578-1.628 4.164-1.478c-.315-.578-.803-1.043-1.47-1.388-.668-.345-1.568-.322-2.709.083a6.214 6.214 0 00-1.995 1.14l-.72-1.53A9.13 9.13 0 0165.72 8.86c1.095-.39 2.063-.502 2.896-.337.832.165 1.515.48 2.048.937.532.458.93.916 1.2 1.373.27.458.465.848.578 1.17.397 1.118.51 2.154.345 3.099a4.546 4.546 0 01-1.23 2.43c-.653.676-1.501 1.201-2.536 1.569a8.614 8.614 0 01-2.814.472l-.352-1.755c.9.06 1.785-.06 2.655-.368.683-.24 1.208-.578 1.584-1.005.367-.428.592-.885.66-1.38.067-.496.022-.99-.143-1.486l-4.164 1.478h.008zM82.622 12.875l.548 1.703a8.436 8.436 0 01-2.536 1.073 6.64 6.64 0 01-2.13.165 5.08 5.08 0 01-1.944-.578 4.64 4.64 0 01-1.538-1.358c-.427-.585-.743-1.29-.945-2.115a5.9 5.9 0 01-.128-2.274 4.704 4.704 0 01.736-1.95c.382-.585.9-1.08 1.545-1.493.645-.413 1.403-.728 2.28-.938a7.721 7.721 0 012.349-.195l.33 1.77a5.474 5.474 0 00-2.116.106 4.284 4.284 0 00-1.778.862 3.147 3.147 0 00-1.012 1.523c-.188.608-.188 1.283-.015 2.026.195.818.525 1.448.99 1.89.465.436.99.706 1.575.81.585.098 1.17.076 1.77-.067a5.188 5.188 0 002.019-.96zM83.282 4.232l2.108-.262.525 4.201 4.232-.533-.525-4.2 2.108-.263 1.305 10.42-2.108.263-.563-4.51-4.231.534.563 4.508-2.108.263-1.306-10.42zM94.663 3.002l2.13-.037.09 5.401v2.55h.046l.727-1.545 3.571-6.482 2.551-.045.173 10.503-2.131.038-.09-5.417V5.433h-.037l-.691 1.598-3.6 6.422-2.551.037-.173-10.503-.015.015zM106.989 3.062l2.116.248-.623 5.364-.337 2.528h.045l.922-1.433 4.397-5.957 2.535.293-1.215 10.435-2.116-.247.623-5.38.338-2.512h-.045l-.901 1.492-4.418 5.89-2.536-.293 1.215-10.435v.007zm6.437-2.348l1.02.705c-.607 1.11-1.59 1.583-2.963 1.426-1.365-.158-2.221-.848-2.558-2.064l1.155-.457c.188.675.705 1.065 1.561 1.163.855.097 1.448-.158 1.785-.773zM123.749 5.718l7.87 2.288-.518 1.786-2.911-.848-2.415 8.297-2.041-.593 2.416-8.297-2.911-.848.517-1.785h-.007zM138.116 10.414c.908.383 1.643.908 2.205 1.598.563.69.886 1.486.983 2.4.098.916-.075 1.899-.51 2.942-.435 1.043-1.013 1.853-1.733 2.43a4.438 4.438 0 01-2.401.99c-.877.083-1.77-.067-2.685-.442-.916-.383-1.651-.915-2.206-1.598a4.484 4.484 0 01-.983-2.4c-.097-.923.075-1.899.51-2.941.436-1.043 1.013-1.854 1.733-2.431a4.44 4.44 0 012.401-.99c.878-.083 1.771.067 2.686.442zm.307 6.715l-5.289-2.206c-.36 1.148-.375 2.04-.03 2.678.345.638.826 1.08 1.456 1.343.262.113.555.18.863.218.315.03.645 0 .99-.105s.698-.308 1.043-.623.667-.75.96-1.305h.007zm.623-1.613c.188-.728.225-1.343.105-1.853-.12-.51-.33-.908-.63-1.2-.3-.293-.623-.51-.975-.66a3.084 3.084 0 00-1.156-.234c-.412-.007-.847.128-1.298.398-.45.27-.862.728-1.245 1.373l5.207 2.176h-.008zM145.168 13.753l3.008 1.688c.413.232.818.525 1.208.87s.675.795.848 1.335c.172.54.082 1.126-.278 1.763-.353.638-.78 1.028-1.26 1.186a2.684 2.684 0 01-1.411.09l-.015.022c.51.39.84.885.983 1.478.143.593.053 1.185-.285 1.786-.225.397-.54.742-.945 1.02-.405.277-.953.405-1.643.375-.691-.03-1.508-.308-2.454-.84l-2.888-1.62 5.139-9.16-.007.007zm-1.036 6.196l-1.44 2.566 1.035.578c.353.195.683.307.983.337.3.03.57-.015.81-.142.24-.128.42-.308.563-.563.48-.855.172-1.59-.915-2.198l-1.036-.578zm2.086-3.72l-1.275 2.28.907.51c.548.308.991.39 1.328.263.338-.135.585-.33.735-.6.158-.285.203-.608.135-.96-.067-.353-.405-.69-.997-1.029l-.826-.465h-.007z" fill="#fff"/></svg>