<svg width="199" height="201" viewBox="0 0 199 201" fill="none" xmlns="http://www.w3.org/2000/svg">
<path d="M178.717 100.335C178.71 99.9674 178.702 99.6074 178.68 99.2397C178.672 98.7896 178.65 98.3395 178.627 97.8894C178.597 97.2742 178.56 96.659 178.507 96.0513C178.47 95.4887 178.425 94.9185 178.365 94.3633C178.342 94.0332 178.305 93.7107 178.267 93.3881C178.237 93.088 178.207 92.7879 178.17 92.4953C178.125 92.1502 178.087 91.7976 178.035 91.4525C177.975 90.9649 177.907 90.4772 177.825 89.9896C177.787 89.727 177.75 89.4719 177.705 89.2169C177.652 88.8943 177.6 88.5717 177.539 88.2491C177.509 88.0315 177.464 87.814 177.427 87.5964C177.374 87.2963 177.314 86.9887 177.254 86.6886C177.179 86.336 177.112 85.9834 177.037 85.6383C176.924 85.0907 176.804 84.543 176.677 84.0029C176.542 83.4252 176.399 82.8475 176.249 82.2699C176.099 81.6772 175.942 81.092 175.776 80.5069C175.761 80.4468 175.746 80.3943 175.731 80.3418C175.559 79.7491 175.386 79.164 175.206 78.5788C175.199 78.5638 175.199 78.5488 175.191 78.5338C175.011 77.9411 174.816 77.3559 174.614 76.7708C174.599 76.7033 174.576 76.6357 174.554 76.5682C174.359 75.9981 174.156 75.4354 173.953 74.8727C173.743 74.3026 173.526 73.7324 173.308 73.1697C172.911 72.1569 172.491 71.1592 172.048 70.1689C171.905 69.8313 171.763 69.5012 171.605 69.1711C171.343 68.5934 171.073 68.0158 170.788 67.4456C170.57 66.9955 170.345 66.5378 170.112 66.0952C169.865 65.6076 169.617 65.1274 169.355 64.6473C168.769 63.5595 168.154 62.4792 167.517 61.4214C167.307 61.0763 167.096 60.7237 166.879 60.3861C166.376 59.5758 165.866 58.7806 165.333 58.0004L154.725 68.6084L143.93 79.3965L144.763 57.1526L122.511 57.9779L143.915 36.5742C143.525 36.3116 143.127 36.0491 142.729 35.794C142.474 35.6289 142.219 35.4639 141.964 35.3063C141.649 35.1038 141.334 34.9012 141.011 34.7137C140.899 34.6462 140.786 34.5786 140.681 34.5111C140.179 34.2035 139.676 33.9109 139.173 33.6184C138.731 33.3633 138.288 33.1157 137.846 32.8757C137.643 32.7631 137.44 32.6581 137.238 32.5456C136.773 32.2905 136.3 32.0429 135.82 31.8028C135.257 31.5103 134.687 31.2252 134.11 30.9476C133.442 30.625 132.767 30.3174 132.084 30.0098C131.694 29.8373 131.304 29.6647 130.906 29.4997C130.043 29.1246 129.173 28.772 128.288 28.4344C127.92 28.2843 127.545 28.1418 127.162 28.0067L126.735 27.8492C126.352 27.7142 125.97 27.5791 125.587 27.4516C124.792 27.174 123.982 26.9114 123.171 26.6639C122.676 26.5063 122.181 26.3563 121.678 26.2137C121.521 26.1687 121.363 26.1237 121.206 26.0862C120.688 25.9362 120.17 25.7936 119.645 25.6661C119.083 25.516 118.52 25.381 117.95 25.2535C117.395 25.1184 116.84 24.9909 116.277 24.8784C115.932 24.8033 115.579 24.7358 115.227 24.6608C114.926 24.6008 114.619 24.5408 114.319 24.4957C114.101 24.4507 113.884 24.4057 113.666 24.3757C113.344 24.3157 113.021 24.2632 112.698 24.2107C112.443 24.1656 112.188 24.1281 111.926 24.0906C111.438 24.0081 110.95 23.9406 110.463 23.8806C110.118 23.828 109.765 23.7905 109.42 23.7455C109.127 23.708 108.827 23.678 108.527 23.648C108.205 23.6105 107.874 23.573 107.552 23.5505C106.997 23.4904 106.427 23.4454 105.864 23.4079C105.256 23.3554 104.641 23.3179 104.026 23.2879C103.576 23.2654 103.126 23.2429 102.675 23.2354C102.308 23.2129 101.948 23.2054 101.58 23.1979C101.04 23.1904 100.5 23.1829 99.9597 23.1829C56.4547 23.1829 21.187 58.4505 21.187 101.956C21.187 102.496 21.1945 103.036 21.202 103.576C21.2095 103.944 21.217 104.304 21.2395 104.671C21.247 105.121 21.2695 105.572 21.292 106.022C21.3221 106.637 21.3596 107.252 21.4121 107.86C21.4496 108.422 21.4946 108.993 21.5546 109.548C21.5771 109.87 21.6146 110.2 21.6521 110.523C21.6822 110.823 21.7122 111.123 21.7497 111.416C21.7947 111.761 21.8322 112.113 21.8847 112.459C21.9447 112.946 22.0122 113.434 22.0948 113.921C22.1323 114.184 22.1698 114.439 22.2148 114.694C22.2673 115.017 22.3198 115.339 22.3799 115.662C22.4099 115.88 22.4549 116.097 22.4999 116.315C22.5449 116.615 22.6049 116.922 22.6649 117.222C22.74 117.575 22.8075 117.928 22.8825 118.273C22.995 118.835 23.1226 119.391 23.2576 119.946C23.3851 120.516 23.5202 121.079 23.6702 121.641C23.7978 122.166 23.9403 122.684 24.0903 123.202C24.1279 123.359 24.1729 123.517 24.2179 123.674C24.3604 124.177 24.5105 124.672 24.668 125.167C24.9156 125.977 25.1782 126.788 25.4557 127.583C25.5833 127.966 25.7183 128.348 25.8534 128.731L26.0109 129.158C26.1459 129.541 26.2885 129.916 26.4385 130.284C26.6786 130.921 26.9337 131.559 27.1962 132.182C27.3613 132.579 27.5263 132.977 27.7064 133.367C27.7139 133.405 27.7289 133.435 27.7514 133.472C27.9315 133.892 28.119 134.32 28.3141 134.732C28.5091 135.168 28.7117 135.603 28.9217 136.03C29.0568 136.315 29.1993 136.6 29.3419 136.886C29.672 137.568 30.0171 138.243 30.3772 138.911C30.5347 139.211 30.6997 139.504 30.8573 139.796C31.3224 140.644 31.8026 141.484 32.2977 142.31C32.5453 142.722 32.7928 143.127 33.0404 143.525C33.5431 144.328 34.0532 145.123 34.5859 145.911L39.6948 140.802L45.1939 135.303L108.94 71.5568L103.756 66.3803L136.788 65.1274L135.527 98.1519L130.358 92.9754L66.6126 156.721L56.0045 167.329C56.7848 167.862 57.58 168.372 58.3902 168.875C58.7278 169.092 59.0804 169.302 59.4255 169.512C60.4833 170.15 61.5636 170.765 62.6514 171.35C63.1316 171.613 63.6117 171.861 64.0994 172.108C64.542 172.341 64.9996 172.566 65.4497 172.783C66.0199 173.068 66.5976 173.339 67.1752 173.601C67.5053 173.759 67.8354 173.901 68.173 174.044C69.1633 174.486 70.1611 174.907 71.1739 175.304C71.7366 175.522 72.3067 175.739 72.8769 175.949C73.4395 176.152 74.0022 176.354 74.5724 176.549C74.6399 176.572 74.7074 176.594 74.7749 176.609C75.3601 176.812 75.9453 177.007 76.5379 177.187C76.5529 177.195 76.5679 177.195 76.5829 177.202C77.1681 177.382 77.7533 177.555 78.346 177.727C78.3985 177.742 78.451 177.757 78.511 177.772C79.0962 177.937 79.6813 178.095 80.274 178.245C80.8517 178.395 81.4293 178.538 82.007 178.673C82.5472 178.8 83.0948 178.92 83.6425 179.033C83.9876 179.108 84.3402 179.175 84.6928 179.25C84.9929 179.31 85.3005 179.37 85.6005 179.423C85.8181 179.46 86.0357 179.505 86.2532 179.535C86.5758 179.595 86.8984 179.648 87.221 179.7C87.4761 179.745 87.7312 179.783 87.9937 179.82C88.4814 179.903 88.969 179.97 89.4566 180.03C89.8018 180.083 90.1544 180.121 90.4995 180.166C90.792 180.203 91.0921 180.233 91.3922 180.263C91.7148 180.301 92.0374 180.338 92.3675 180.361C92.9226 180.421 93.4928 180.466 94.0555 180.503C94.6631 180.556 95.2783 180.593 95.8935 180.623C96.3436 180.646 96.7938 180.668 97.2439 180.676C97.6115 180.698 97.9716 180.706 98.3392 180.713C98.8794 180.721 99.4195 180.728 99.9597 180.728C143.465 180.728 178.732 145.461 178.732 101.956C178.732 101.415 178.732 100.875 178.717 100.335ZM64.3169 48.6527L54.2415 49.0878L58.3377 53.1915L66.35 61.2038L36.829 90.7248C36.829 90.7248 36.8215 90.7398 36.8215 90.7473V90.7623C36.1838 94.3933 35.8462 98.1369 35.8462 101.956L76.898 60.9037L71.714 55.7197L105.144 54.4444V58.9382L86.6433 59.7709L98.5042 71.6318L35.9213 134.215C31.0298 124.515 28.2615 113.561 28.2615 101.956C28.2615 62.3591 60.3633 30.2574 99.9597 30.2574C111.566 30.2574 122.519 33.0182 132.219 37.9171L126.54 43.5962L112.953 57.1901V46.5521L64.3169 48.6527ZM99.9597 173.646C88.3538 173.646 77.3932 170.885 67.6929 165.986L73.372 160.307L130.276 103.403L142.144 115.272L142.97 96.7715H147.471L146.195 130.194L141.011 125.01L99.9597 166.061C103.786 166.061 107.529 165.731 111.168 165.086H111.19L140.711 135.558L148.724 143.57L152.82 147.674L153.255 137.598L155.356 88.9618H144.718L158.311 75.3679L163.998 69.6887C168.89 79.3815 171.65 90.3497 171.65 101.956C171.65 141.544 139.556 173.646 99.9597 173.646Z" fill="white"/>
<path d="M55.7643 177.945L58.2175 179.213L58.4126 186.76L58.2475 188.283L58.285 188.305L59.0953 186.632L61.9236 181.141L63.8216 182.116L59.0052 191.449L56.552 190.181L56.447 182.394L56.5145 181.111L56.477 181.088L55.6668 182.761L52.831 188.26L50.9404 187.285L55.7568 177.952L55.7643 177.945Z" fill="white"/>
<path d="M68.458 183.917L70.7386 184.757L71.0162 196.055L68.7656 195.222L68.7506 192.709L64.6844 191.209L63.0414 193.114L60.9033 192.327L68.4655 183.924L68.458 183.917ZM65.9148 189.806L68.7581 190.856L68.7956 186.295L68.7656 186.28L65.9148 189.806Z" fill="white"/>
<path d="M74.6921 186.137L82.6444 188.118L82.1943 189.926L79.2534 189.191L77.1679 197.578L75.1048 197.06L77.1904 188.673L74.2495 187.938L74.6996 186.13L74.6921 186.137Z" fill="white"/>
<path d="M81.812 198.561L83.6275 188.215L85.7206 188.583L83.9051 198.928L81.812 198.561Z" fill="white"/>
<path d="M92.2326 189.273C93.2154 189.356 94.0781 189.641 94.8133 190.121C95.5485 190.601 96.1112 191.269 96.4788 192.109C96.8464 192.949 96.989 193.94 96.8914 195.065C96.7939 196.19 96.4863 197.135 95.9762 197.908C95.466 198.681 94.8058 199.236 93.9881 199.581C93.1779 199.926 92.2776 200.054 91.2948 199.971C90.312 199.881 89.4493 199.604 88.7066 199.123C87.9714 198.643 87.4162 197.976 87.0411 197.135C86.6735 196.288 86.5309 195.305 86.6285 194.18C86.726 193.054 87.0336 192.109 87.5437 191.336C88.0539 190.571 88.7141 190.008 89.5243 189.663C90.3345 189.318 91.2348 189.191 92.2176 189.273H92.2326ZM92.105 190.766C91.6549 190.729 91.2048 190.796 90.7547 190.961C90.3045 191.134 89.9069 191.486 89.5468 192.034C89.1942 192.582 88.9691 193.354 88.8791 194.367C88.7891 195.38 88.8791 196.183 89.1267 196.783C89.3743 197.383 89.7194 197.803 90.132 198.051C90.5446 198.298 90.9722 198.433 91.4224 198.478C91.7374 198.508 92.0675 198.478 92.4051 198.403C92.7427 198.328 93.0653 198.163 93.3804 197.908C93.6955 197.653 93.9731 197.278 94.1981 196.783C94.4307 196.28 94.5733 195.65 94.6408 194.87C94.7308 193.857 94.6408 193.054 94.3932 192.454C94.1381 191.854 93.8005 191.434 93.3879 191.186C92.9753 190.939 92.5402 190.804 92.0975 190.759L92.105 190.766Z" fill="white"/>
<path d="M98.5716 189.828L101.325 189.731L105.189 196.213L105.789 197.616H105.834L105.721 195.755L105.504 189.581L107.634 189.506L108.002 200.001L105.241 200.099L101.34 193.362L100.77 192.214H100.725L100.837 194.067L101.055 200.249L98.9242 200.324L98.5566 189.828H98.5716Z" fill="white"/>
<path d="M112.586 188.838L114.986 188.455L120.741 198.178L118.37 198.553L117.125 196.363L112.841 197.038L112.331 199.506L110.08 199.859L112.578 188.831L112.586 188.838ZM113.246 195.222L116.239 194.75L114.049 190.751H114.019L113.253 195.222H113.246Z" fill="white"/>
<path d="M119.923 187.495L121.978 186.948L124.221 195.387L128.25 194.315L128.708 196.025L122.616 197.646L119.915 187.495H119.923Z" fill="white"/>
<path d="M131.664 183.947L134.694 182.596C135.212 182.364 135.752 182.176 136.322 182.019C136.893 181.861 137.53 181.816 138.235 181.876C138.941 181.936 139.631 182.206 140.314 182.701C140.996 183.196 141.574 183.984 142.054 185.064C142.519 186.107 142.714 187.045 142.647 187.87C142.579 188.695 142.339 189.386 141.927 189.948C141.521 190.511 141.056 190.961 140.539 191.314C140.021 191.659 139.496 191.951 138.963 192.191L135.932 193.542L131.664 183.947ZM134.327 184.697L137.163 191.059L138.273 190.564C139.203 190.151 139.811 189.626 140.089 189.003C140.366 188.38 140.464 187.81 140.374 187.293C140.284 186.782 140.156 186.34 139.998 185.98C139.841 185.62 139.593 185.229 139.278 184.824C138.956 184.419 138.468 184.104 137.823 183.894C137.17 183.684 136.382 183.782 135.452 184.202L134.342 184.697H134.327Z" fill="white"/>
<path d="M146.165 188.718L141.124 179.505L142.992 178.485L148.034 187.698L146.165 188.718Z" fill="white"/>
<path d="M149.811 186.257L149.016 184.592C149.451 184.532 149.901 184.419 150.374 184.254C150.847 184.097 151.237 183.917 151.537 183.722C151.957 183.451 152.234 183.129 152.362 182.754C152.49 182.379 152.459 182.041 152.272 181.756C152.137 181.538 151.972 181.388 151.792 181.298C151.612 181.208 151.409 181.156 151.199 181.148C150.989 181.141 150.726 181.148 150.426 181.193C150.126 181.231 149.811 181.276 149.481 181.313C148.881 181.373 148.371 181.396 147.943 181.373C147.516 181.351 147.133 181.246 146.78 181.058C146.428 180.871 146.12 180.571 145.858 180.151C145.648 179.82 145.49 179.415 145.4 178.95C145.302 178.478 145.37 177.967 145.61 177.412C145.843 176.857 146.323 176.347 147.05 175.882C147.996 175.274 148.926 174.861 149.819 174.644L150.539 176.182C149.654 176.339 148.918 176.609 148.326 176.985C147.823 177.307 147.538 177.63 147.471 177.945C147.411 178.267 147.448 178.538 147.598 178.77C147.808 179.1 148.078 179.28 148.416 179.325C148.753 179.37 149.144 179.355 149.579 179.28C150.366 179.153 150.989 179.07 151.454 179.048C151.919 179.025 152.384 179.115 152.865 179.318C153.337 179.52 153.757 179.91 154.117 180.473C154.328 180.803 154.463 181.156 154.538 181.538C154.605 181.921 154.583 182.326 154.47 182.746C154.358 183.166 154.132 183.586 153.787 184.007C153.45 184.427 152.985 184.832 152.399 185.207C151.672 185.672 150.809 186.017 149.811 186.235V186.257Z" fill="white"/>
<path d="M151.207 173.301L153.66 171.395C154.875 170.45 155.926 170.075 156.811 170.278C157.696 170.48 158.379 170.893 158.859 171.508C159.204 171.951 159.422 172.446 159.512 173.008C159.609 173.571 159.534 174.141 159.287 174.726C159.039 175.312 158.611 175.844 157.989 176.332L156.908 177.172L159.332 180.286L157.651 181.591L151.199 173.309L151.207 173.301ZM155.903 175.867L156.676 175.267C157.118 174.922 157.366 174.524 157.419 174.081C157.464 173.631 157.343 173.226 157.051 172.851C156.773 172.498 156.436 172.288 156.023 172.228C155.61 172.168 155.16 172.326 154.68 172.701L153.907 173.301L155.911 175.867H155.903Z" fill="white"/>
<path d="M160.209 165.799L161.957 164.103L172.265 168.74L170.54 170.413L168.267 169.34L165.153 172.356L166.159 174.666L164.523 176.257L160.217 165.806L160.209 165.799ZM164.426 170.638L166.601 168.53L162.505 166.519L162.483 166.542L164.426 170.638Z" fill="white"/>
<path d="M164.906 161.133L170.142 154.831L171.575 156.016L169.64 158.349L176.287 163.871L174.929 165.506L168.282 159.985L166.346 162.318L164.913 161.133H164.906Z" fill="white"/>
<path d="M181.89 152.468L183.443 153.36C183.188 154.276 182.806 155.108 182.296 155.866C181.883 156.481 181.395 156.999 180.833 157.419C180.27 157.839 179.662 158.139 179.01 158.304C178.357 158.469 177.667 158.484 176.962 158.342C176.249 158.199 175.544 157.892 174.838 157.411C174.156 156.954 173.616 156.421 173.21 155.821C172.805 155.221 172.55 154.576 172.438 153.885C172.325 153.195 172.37 152.483 172.573 151.74C172.768 150.997 173.12 150.254 173.623 149.512C174.066 148.852 174.606 148.274 175.221 147.786L176.661 148.874C176.084 149.264 175.581 149.767 175.169 150.382C174.763 150.975 174.523 151.59 174.441 152.22C174.358 152.85 174.448 153.45 174.726 154.028C174.996 154.598 175.454 155.101 176.084 155.528C176.781 156.001 177.449 156.241 178.087 156.256C178.725 156.264 179.295 156.114 179.79 155.791C180.285 155.468 180.713 155.056 181.05 154.546C181.485 153.9 181.77 153.21 181.89 152.468Z" fill="white"/>
<path d="M175.656 146.616L176.647 144.733L180.39 146.706L182.378 142.932L178.635 140.959L179.625 139.076L188.913 143.975L187.922 145.858L183.901 143.735L181.913 147.509L185.934 149.632L184.944 151.515L175.656 146.616Z" fill="white"/>
<path d="M189.933 141.559L180.278 137.426L181.118 135.468L190.773 139.601L189.933 141.559Z" fill="white"/>
<path d="M181.876 133.87L182.746 131.251L190.166 129.879L191.688 129.804L191.704 129.759L189.925 129.218L184.059 127.275L184.726 125.25L194.697 128.551L193.827 131.176L186.152 132.489L184.877 132.624L184.862 132.669L186.64 133.21L192.506 135.153L191.839 137.171L181.868 133.87H181.876Z" fill="white"/>
<path d="M187.142 115.407L188.958 115.895C188.38 116.697 187.983 117.635 187.765 118.715C187.615 119.451 187.645 120.111 187.848 120.688C188.05 121.266 188.403 121.739 188.89 122.114C189.378 122.489 189.971 122.737 190.661 122.879C191.336 123.014 191.966 123.007 192.551 122.864C193.137 122.722 193.639 122.421 194.044 121.979C194.449 121.536 194.727 120.959 194.87 120.238C194.982 119.676 195.005 119.203 194.945 118.813L192.491 118.318L192.071 120.426L190.458 120.103L191.298 115.91L196.753 117.005C196.858 118.4 196.805 119.638 196.588 120.718C196.355 121.866 195.935 122.804 195.32 123.532C194.704 124.259 193.962 124.755 193.084 125.01C192.206 125.265 191.253 125.295 190.226 125.085C189.333 124.905 188.583 124.605 187.968 124.177C187.352 123.749 186.887 123.232 186.557 122.624C186.227 122.016 186.032 121.349 185.964 120.628C185.897 119.901 185.942 119.143 186.1 118.34C186.325 117.222 186.67 116.247 187.15 115.414L187.142 115.407Z" fill="white"/>
<path d="M196.197 100.943L197.991 100.86C198.261 101.768 198.388 102.683 198.358 103.591C198.336 104.334 198.201 105.031 197.953 105.684C197.705 106.344 197.353 106.914 196.888 107.402C196.423 107.89 195.852 108.265 195.177 108.527C194.502 108.79 193.737 108.91 192.882 108.88C192.064 108.858 191.321 108.7 190.653 108.407C189.993 108.122 189.431 107.71 188.965 107.192C188.5 106.667 188.155 106.044 187.93 105.309C187.705 104.574 187.6 103.764 187.63 102.863C187.653 102.068 187.795 101.295 188.058 100.553L189.858 100.703C189.581 101.34 189.423 102.038 189.401 102.773C189.378 103.494 189.498 104.139 189.768 104.716C190.031 105.294 190.436 105.752 190.968 106.089C191.501 106.427 192.154 106.607 192.919 106.629C193.759 106.652 194.457 106.502 194.997 106.172C195.545 105.842 195.942 105.407 196.19 104.866C196.438 104.326 196.573 103.756 196.595 103.141C196.618 102.361 196.483 101.625 196.197 100.935V100.943Z" fill="white"/>
<path d="M187.742 99.2848L187.345 93.028L189.205 92.9079L189.468 97.0416L191.831 96.8916L191.591 93.133L193.309 93.0205L193.549 96.7791L196.227 96.6065L195.965 92.4728L197.825 92.3528L198.223 98.6096L187.742 99.2773V99.2848Z" fill="white"/>
<path d="M187.255 91.6401L186.797 88.9243L192.709 84.2355L194.022 83.4552V83.4102L192.184 83.7628L186.092 84.7981L185.732 82.6975L196.085 80.942L196.55 83.6653L190.383 88.4217L189.318 89.1344V89.1794L191.148 88.8268L197.248 87.7915L197.6 89.8921L187.247 91.6476L187.255 91.6401Z" fill="white"/>
<path d="M185.529 81.8723L183.293 73.9875L185.086 73.4774L185.912 76.3957L194.224 74.0325L194.802 76.0806L186.489 78.4363L187.315 81.3546L185.522 81.8648L185.529 81.8723Z" fill="white"/>
<path d="M182.956 73.1472L180.698 67.2956L182.431 66.6279L183.924 70.4915L186.137 69.6362L184.779 66.1252L186.392 65.5025L187.75 69.0135L190.256 68.0458L188.763 64.1822L190.496 63.5145L192.754 69.3661L182.956 73.1472Z" fill="white"/>
<path d="M179.963 65.5926L178.282 62.2766C177.682 61.0913 177.509 60.146 177.772 59.4408C178.034 58.7356 178.522 58.2029 179.227 57.8428C179.872 57.5127 180.458 57.4452 180.983 57.6253C181.515 57.8053 181.958 58.1129 182.326 58.548L182.348 58.533C182.288 58.278 182.303 58.0304 182.386 57.7978C182.476 57.5653 182.626 57.3177 182.836 57.0551L185.687 53.6866L186.767 55.8098L184.411 58.5255C184.164 58.8106 184.021 59.0807 183.976 59.3433C183.931 59.6058 183.984 59.8834 184.134 60.1835L184.501 60.9037L188.357 58.9457L189.318 60.8437L179.955 65.6001L179.963 65.5926ZM180.465 62.9518L183.038 61.6464L182.521 60.6261C182.236 60.0635 181.891 59.7259 181.485 59.6208C181.08 59.5083 180.72 59.5383 180.413 59.6959C180.09 59.8609 179.857 60.116 179.707 60.4761C179.557 60.8362 179.64 61.3163 179.955 61.9315L180.473 62.9518H180.465Z" fill="white"/>
<path d="M13.0398 149.519L9.91895 143.427L17.6087 139.489L17.061 138.424L20.677 136.57L21.6373 138.439L19.6718 139.444L22.5526 145.07L24.5181 144.065L25.4784 145.933L21.8624 147.786L21.3147 146.713C20.6095 146.668 19.9643 146.698 19.3717 146.796C18.779 146.893 18.2238 147.044 17.6987 147.239C17.1735 147.434 16.6184 147.689 16.0332 147.989L13.0398 149.519ZM12.5522 144.478L13.7751 146.871L15.1104 146.188C15.7856 145.843 16.3783 145.566 16.8809 145.356C17.3836 145.145 17.9237 144.988 18.4939 144.868C19.0641 144.755 19.6642 144.71 20.3019 144.74L18.5839 141.387L12.5522 144.478Z" fill="white"/>
<path d="M8.471 140.187L7.74329 138.183L12.8147 136.33L15.2304 135.498L15.2154 135.453L13.5199 135.273L6.22785 134.02L5.3501 131.627L15.2154 128.026L15.9431 130.029L10.8567 131.889L8.45599 132.714L8.471 132.759L10.2115 132.887L17.4586 134.185L18.3363 136.578L8.471 140.179V140.187Z" fill="white"/>
<path d="M10.8867 119.323L12.5897 118.775C13.0923 119.578 13.4524 120.426 13.6625 121.311C13.835 122.031 13.8875 122.736 13.8275 123.442C13.76 124.139 13.5724 124.785 13.2499 125.385C12.9273 125.985 12.4771 126.495 11.892 126.923C11.3068 127.35 10.6016 127.665 9.77636 127.868C8.98113 128.063 8.22341 128.101 7.5032 128.003C6.7905 127.898 6.13781 127.658 5.55264 127.268C4.96747 126.885 4.47233 126.368 4.05971 125.722C3.64709 125.077 3.332 124.319 3.12194 123.449C2.93439 122.676 2.87437 121.896 2.92689 121.101L4.6974 120.771C4.59236 121.461 4.62988 122.166 4.80242 122.887C4.96747 123.584 5.26006 124.177 5.66517 124.665C6.07029 125.152 6.58044 125.49 7.18811 125.677C7.79579 125.865 8.47098 125.865 9.21369 125.692C10.0314 125.497 10.6616 125.167 11.0967 124.702C11.5319 124.237 11.8019 123.712 11.907 123.127C12.012 122.541 11.982 121.956 11.8394 121.356C11.6594 120.598 11.3368 119.923 10.8717 119.338L10.8867 119.323Z" fill="white"/>
<path d="M2.24384 118.648L1.18604 110.298L11.6065 108.985L11.8766 111.101L3.1666 112.203L3.68425 116.33L12.3943 115.227L12.6643 117.335L2.24384 118.648Z" fill="white"/>
<path d="M1.03627 107.387L0.88623 101.115L2.74677 101.07L2.84429 105.211L5.21498 105.151L5.12495 101.385L6.85045 101.34L6.94047 105.106L9.62624 105.039L9.52872 100.898L11.3893 100.853L11.5393 107.125L1.04378 107.38L1.03627 107.387Z" fill="white"/>
<path d="M0.878596 99.4348L1.41875 91.2574L3.27929 91.3775L3.07673 94.4009L11.6967 94.971L11.5542 97.0941L2.93419 96.524L2.73163 99.5473L0.871094 99.4273L0.878596 99.4348Z" fill="white"/>
<path d="M1.62109 89.4569L1.9812 87.3563L5.51471 87.9565C6.02486 88.0465 6.44498 87.994 6.78258 87.7989C7.11267 87.6039 7.35274 87.0787 7.50279 86.2235C7.60782 85.6233 7.63032 84.9631 7.58531 84.2429L2.65639 83.4027L3.0165 81.3021L13.3695 83.0651L13.0094 85.1657L9.32581 84.543C9.34081 85.2632 9.3033 85.9234 9.19827 86.5161C9.04823 87.3938 8.83817 88.099 8.56059 88.6242C8.28301 89.1493 7.97542 89.5319 7.62282 89.757C7.27772 89.9821 6.92512 90.1171 6.57252 90.1471C6.21992 90.1771 5.83731 90.1621 5.43969 90.0946L1.62109 89.4419V89.4569Z" fill="white"/>
<path d="M3.67725 78.4963L5.34273 72.4495L7.13574 72.9447L6.03292 76.9358L8.32108 77.566L9.31887 73.935L10.9843 74.3926L9.98656 78.0236L12.5748 78.7363L13.6776 74.7452L15.4706 75.2403L13.8052 81.2871L3.67725 78.5038V78.4963Z" fill="white"/>
<path d="M6.12988 70.0338L7.2327 67.1305C7.78036 65.6901 8.48556 64.8198 9.34081 64.5347C10.1961 64.2497 10.9988 64.2422 11.734 64.5197C12.2516 64.7148 12.7018 65.0299 13.0769 65.4575C13.452 65.8851 13.6846 66.4178 13.7821 67.0405C13.8796 67.6631 13.7821 68.3458 13.512 69.0811L13.0319 70.3564L16.7229 71.7518L15.9727 73.7399L6.15239 70.0263L6.12988 70.0338ZM11.4714 69.7788L11.8165 68.8635C12.0191 68.3383 12.0191 67.8657 11.8315 67.4606C11.644 67.0555 11.3214 66.7629 10.8787 66.5978C10.4586 66.4403 10.061 66.4403 9.6784 66.5978C9.29579 66.7629 8.99571 67.1305 8.77814 67.7007L8.43304 68.6159L11.4789 69.7713L11.4714 69.7788Z" fill="white"/>
<path d="M9.64893 61.0163L10.6167 59.1182L15.4256 61.5714L17.6762 62.7718L17.6987 62.7343L16.6784 61.3689L12.6348 55.1721L13.7976 52.8989L23.1528 57.6778L22.185 59.5758L17.3611 57.1076L15.1255 55.9148L15.103 55.9598L16.1908 57.3252L20.1745 63.522L19.0116 65.7951L9.65643 61.0163H9.64893Z" fill="white"/>
<path d="M16.2503 43.4462L17.3531 42.8685C18.0583 43.9188 18.0208 45.0142 17.2481 46.1545C16.4754 47.2948 15.4701 47.7299 14.2397 47.4674L14.3673 46.2295C15.05 46.3796 15.6351 46.0945 16.1153 45.3818C16.5954 44.6691 16.6404 44.0239 16.2503 43.4462ZM15.3651 50.2432L16.5579 48.4802L21.0292 51.511L23.1148 52.9815L23.1373 52.9439L22.2896 51.466L19.0336 44.8191L20.4665 42.711L29.1615 48.6002L27.9687 50.3632L23.4824 47.3248L21.4118 45.8619L21.3818 45.8994L22.2971 47.3848L25.4855 54.0243L24.0526 56.1324L15.3576 50.2432H15.3651Z" fill="white"/>
<path d="M22.3496 40.2877L23.745 38.6823L26.9409 41.4581L29.7392 38.2397L26.5433 35.4639L27.9387 33.8584L35.8685 40.7454L34.4731 42.3508L31.0371 39.3725L28.2388 42.5909L31.6748 45.5693L30.2794 47.1747L22.3496 40.2877Z" fill="white"/>
<path d="M33.4229 28.4419L35.3284 26.8815L39.3421 28.3669L40.0548 28.7195L40.0923 28.6895L39.9122 27.9017L39.252 23.6705L40.9925 22.2451L42.0278 29.4697L44.7286 32.7631L43.0781 34.1135L40.3623 30.7976L33.4304 28.4494L33.4229 28.4419Z" fill="white"/>
<path d="M42.6055 21.0973L44.391 19.9419L46.6941 23.4905L50.2727 21.1723L47.9695 17.6238L49.755 16.4684L55.4642 25.2835L53.6787 26.4388L51.2104 22.6202L47.6319 24.9384L50.1001 28.757L48.3146 29.9123L42.6055 21.0973Z" fill="white"/>
<path d="M53.9787 14.1802L60.123 11.1719L63.9191 18.9366L64.9919 18.4115L66.7774 22.065L64.8943 22.9878L63.9266 21.0072L58.2474 23.783L59.2152 25.7636L57.3322 26.6863L55.5466 23.0328L56.627 22.5076C56.6795 21.8024 56.6645 21.1572 56.5819 20.5646C56.4919 19.9719 56.3569 19.4092 56.1693 18.8841C55.9818 18.3589 55.7417 17.7963 55.4491 17.2111L53.9712 14.1952L53.9787 14.1802ZM59.0277 13.7826L56.6195 14.9605L57.2796 16.3034C57.6097 16.986 57.8798 17.5787 58.0749 18.0889C58.2774 18.599 58.4275 19.1392 58.5325 19.7093C58.6375 20.2795 58.6675 20.8872 58.63 21.5174L62.0135 19.8594L59.0351 13.7676L59.0277 13.7826Z" fill="white"/>
<path d="M66.4549 15.058L65.8773 13.43L70.041 11.9521C69.7259 11.3744 69.2382 10.9093 68.5705 10.5642C67.9029 10.2191 67.0026 10.2416 65.8623 10.6467C65.097 10.9168 64.4369 11.2994 63.8667 11.7871L63.1465 10.2566C63.8967 9.67144 64.7519 9.20631 65.7197 8.86121C66.815 8.4711 67.7828 8.35857 68.6156 8.52361C69.4483 8.68866 70.131 9.00375 70.6636 9.46138C71.1963 9.91902 71.5939 10.3766 71.864 10.8343C72.1341 11.2919 72.3291 11.682 72.4417 12.0046C72.8393 13.1224 72.9518 14.1577 72.7868 15.103C72.6217 16.0483 72.2091 16.8585 71.5564 17.5337C70.9037 18.2089 70.056 18.7341 69.0207 19.1017C68.1429 19.4092 67.2127 19.5668 66.2074 19.5743L65.8548 17.8188C66.755 17.8788 67.6403 17.7588 68.5105 17.4512C69.1932 17.2111 69.7184 16.8735 70.0935 16.4459C70.4611 16.0183 70.6862 15.5606 70.7537 15.0655C70.8212 14.5704 70.7762 14.0752 70.6111 13.5801L66.4474 15.058H66.4549Z" fill="white"/>
<path d="M82.6219 12.8749L83.1696 14.5779C82.3668 15.0805 81.5191 15.4406 80.6338 15.6507C79.9136 15.8232 79.2084 15.8758 78.5032 15.8157C77.8055 15.7482 77.1603 15.5607 76.5602 15.2381C75.9675 14.9155 75.4498 14.4654 75.0222 13.8802C74.5946 13.295 74.2795 12.5898 74.0769 11.7646C73.8819 10.9693 73.8444 10.2116 73.9494 9.49142C74.0544 8.77872 74.2945 8.12603 74.6846 7.54086C75.0672 6.95569 75.5849 6.46055 76.2301 6.04793C76.8752 5.63531 77.633 5.32022 78.5107 5.11016C79.2834 4.92261 80.0637 4.86259 80.8589 4.91511L81.189 6.68561C80.4988 6.58058 79.7936 6.6181 79.0734 6.79065C78.3757 6.95569 77.783 7.24828 77.2954 7.65339C76.8077 8.05851 76.4701 8.56866 76.2826 9.17633C76.095 9.78401 76.095 10.4592 76.2676 11.2019C76.4626 12.0196 76.7927 12.6498 77.2579 13.0925C77.723 13.5276 78.2481 13.7977 78.8333 13.9027C79.4185 14.0002 80.0036 13.9777 80.6038 13.8352C81.3615 13.6551 82.0367 13.3325 82.6219 12.8749Z" fill="white"/>
<path d="M83.2822 4.23243L85.3903 3.96985L85.9155 8.17106L90.1467 7.63841L89.6216 3.4372L91.7297 3.17462L93.035 13.5951L90.9269 13.8577L90.3643 9.3489L86.133 9.88155L86.6957 14.3903L84.5876 14.6529L83.2822 4.23243Z" fill="white"/>
<path d="M94.6631 3.00203L96.7937 2.96452L96.8837 8.36607V10.9168H96.9287L97.6564 9.37136L101.227 2.8895L103.778 2.84448L103.951 13.3475L101.82 13.385L101.73 7.96846V5.43273H101.693L101.002 7.03069L97.4014 13.4525L94.8506 13.49L94.6781 2.98702L94.6631 3.00203Z" fill="white"/>
<path d="M106.989 3.06208L109.105 3.30965L108.482 8.67369L108.145 11.2019H108.19L109.112 9.76901L113.509 3.81229L116.044 4.10488L114.829 14.5404L112.713 14.2928L113.336 8.91376L113.674 6.40054H113.629L112.728 7.89347L108.31 13.7827L105.774 13.4901L106.989 3.05458V3.06208ZM113.426 0.713904L114.446 1.41911C113.839 2.52943 112.856 3.00206 111.483 2.84452C110.118 2.68697 109.262 1.99677 108.925 0.781423L110.08 0.323792C110.268 0.998986 110.785 1.3891 111.641 1.48663C112.496 1.58415 113.089 1.32908 113.426 0.713904Z" fill="white"/>
<path d="M123.749 5.71783L131.619 8.00599L131.101 9.79151L128.19 8.94376L125.775 17.2411L123.734 16.6485L126.15 8.35109L123.239 7.50335L123.756 5.71783H123.749Z" fill="white"/>
<path d="M138.116 10.4142C139.024 10.7968 139.759 11.3219 140.321 12.0121C140.884 12.7023 141.207 13.4975 141.304 14.4128C141.402 15.3281 141.229 16.3109 140.794 17.3537C140.359 18.3965 139.781 19.2067 139.061 19.7844C138.341 20.362 137.538 20.6921 136.66 20.7746C135.783 20.8572 134.89 20.7071 133.975 20.332C133.059 19.9494 132.324 19.4167 131.769 18.734C131.214 18.0514 130.884 17.2486 130.786 16.3334C130.689 15.4106 130.861 14.4353 131.296 13.3925C131.732 12.3497 132.309 11.5395 133.029 10.9618C133.75 10.3841 134.552 10.0541 135.43 9.97153C136.308 9.889 137.201 10.039 138.116 10.4142ZM138.423 17.1286L133.134 14.923C132.774 16.0708 132.759 16.9635 133.104 17.6012C133.449 18.2389 133.93 18.6815 134.56 18.9441C134.822 19.0566 135.115 19.1242 135.423 19.1617C135.738 19.1917 136.068 19.1617 136.413 19.0566C136.758 18.9516 137.111 18.7491 137.456 18.434C137.801 18.1189 138.123 17.6837 138.416 17.1286H138.423ZM139.046 15.5156C139.234 14.7879 139.271 14.1727 139.151 13.6626C139.031 13.1524 138.821 12.7548 138.521 12.4622C138.221 12.1697 137.898 11.9521 137.546 11.8021C137.193 11.652 136.803 11.577 136.39 11.5695C135.978 11.562 135.543 11.697 135.092 11.9671C134.642 12.2372 134.23 12.6948 133.847 13.34L139.054 15.5156H139.046Z" fill="white"/>
<path d="M145.168 13.7526L148.176 15.4406C148.589 15.6732 148.994 15.9658 149.384 16.3109C149.774 16.656 150.059 17.1061 150.232 17.6462C150.404 18.1864 150.314 18.7716 149.954 19.4092C149.601 20.0469 149.174 20.437 148.694 20.5946C148.206 20.7521 147.741 20.7821 147.283 20.6846L147.268 20.7071C147.778 21.0972 148.108 21.5924 148.251 22.185C148.394 22.7777 148.304 23.3704 147.966 23.9706C147.741 24.3682 147.426 24.7133 147.021 24.9909C146.616 25.2684 146.068 25.396 145.378 25.366C144.687 25.336 143.87 25.0584 142.924 24.5257L140.036 22.9053L145.175 13.7451L145.168 13.7526ZM144.132 19.9494L142.692 22.5151L143.727 23.0928C144.08 23.2879 144.41 23.4004 144.71 23.4304C145.01 23.4604 145.28 23.4154 145.52 23.2879C145.76 23.1603 145.94 22.9803 146.083 22.7252C146.563 21.87 146.255 21.1347 145.168 20.5271L144.132 19.9494ZM146.218 16.2283L144.943 18.509L145.85 19.0191C146.398 19.3267 146.841 19.4092 147.178 19.2817C147.516 19.1467 147.763 18.9516 147.913 18.6815C148.071 18.3965 148.116 18.0739 148.048 17.7213C147.981 17.3687 147.643 17.0311 147.051 16.6935L146.225 16.2283H146.218Z" fill="white"/>
</svg>
