<?xml version="1.0" encoding="iso-8859-1"?>
<!-- Uploaded to: SVG Repo, www.svgrepo.com, Generator: SVG Repo Mixer Tools -->
<svg fill="currentColor" height="800px" width="800px" version="1.1" id="Layer_1" xmlns="http://www.w3.org/2000/svg" xmlns:xlink="http://www.w3.org/1999/xlink"
	 viewBox="0 0 512 512" xml:space="preserve">
<g>
	<g>
		<path d="M421.867,249.081H311.165l-7.547-83.027H44.3L12.851,512h299.485h22.729h110.703L421.867,249.081z M82.212,207.568
			h183.494l3.774,41.514H78.438L82.212,207.568z M194.716,470.487v-41.514h-41.513v41.514H58.31l16.354-179.892h198.591
			l16.354,179.892H194.716z M331.293,470.487L314.94,290.595h69.018l16.354,179.892H331.293z"/>
	</g>
</g>
<g>
	<g>
		<path d="M436.879,41.513c-16.539,0-23.854-6.27-34.925-15.76C388.566,14.279,371.906,0,340.011,0
			c-31.895,0-48.556,14.279-61.942,25.754c-11.073,9.49-18.388,15.76-34.927,15.76c-16.538,0-23.852-6.268-34.923-15.76
			C194.834,14.281,178.175,0.001,146.284,0C96.688,0,56.338,40.35,56.338,89.946v34.595h41.513V89.946
			c0-26.706,21.727-48.432,48.431-48.432c16.535,0.001,23.85,6.27,34.92,15.76c13.385,11.474,30.045,25.754,61.94,25.754
			c31.895,0,48.556-14.279,61.942-25.754c11.072-9.49,18.388-15.76,34.927-15.76c16.539,0,23.854,6.27,34.925,15.76
			c13.387,11.474,30.046,25.754,61.942,25.754c11.445,0,20.757,9.311,20.757,20.757c0,11.445-9.311,20.757-20.757,20.757h-13.838
			c-52.119,0-89.946,34.917-89.946,83.027h41.513c0-28.678,24.326-41.513,48.432-41.513h13.838c34.336,0,62.27-27.934,62.27-62.27
			C499.149,69.448,471.214,41.513,436.879,41.513z"/>
	</g>
</g>
</svg>
