<?xml version="1.0" encoding="UTF-8"?>
<svg viewBox="0 0 209 209" xmlns="http://www.w3.org/2000/svg">
<path d="m124.96 199.49c-10 2.34-29.36 2.85-38.94 1.04-30.19-5.72-55.69-24.22-70.03-50.82-15.73-29.16-15.73-64.26 0-93.42 20.03-37.15 61.18-57.54 102.51-50.82 56.4 9.18 93.76 64.32 80.97 119.49-8.53 36.81-37.61 65.9-74.51 74.53zm-34.46-3.14c7.08 1.14 28.09-0.23 35.97-2.35 33.22-8.94 58.62-34.45 67.69-68 3.29-12.16 3.27-33.72-0.04-46-9.07-33.65-35.42-59.91-68.3-68.06-27.63-6.85-57.67-0.61-79.75 16.55-46.16 35.88-49.59 101.93-7.41 142.65 13.46 12.98 32.01 22.01 51.84 25.21zm49.89-78.3c-5.63 2.56-18.32 2.65-23.39 0.17-5.92-2.91-15.04-9.16-15.64-10.73-0.32-0.82-1-1.49-1.52-1.49-0.51 0-2.6-1.61-4.63-3.58-4.85-4.72-16.35-12.31-20.38-13.47-3.56-1.02-10.09 0.46-11.96 2.71-0.62 0.74-1.57 1.34-2.12 1.34-0.84 0-6.69 5.87-13.21 13.25-1.7 1.93-3.32 2.18-5.43 0.84-0.41-0.26-0.71-0.45-0.82-0.71-0.29-0.73 0.89-2.05 5.35-7.04l0.11-0.12c1.79-2 3.25-3.89 3.25-4.19 0-1.89 11.16-8.79 15.95-9.87 5.97-1.33 15.08-0.08 18.13 2.5 0.87 0.74 2.08 1.34 2.7 1.34s1.48 0.59 1.92 1.3c0.44 0.72 2.37 2.27 4.3 3.45 1.93 1.17 4.07 3.06 4.76 4.19s1.7 2.06 2.24 2.06 2.22 1.26 3.74 2.8c3.6 3.65 12.71 10.2 14.18 10.2 0.63 0 2.27 0.74 3.65 1.64 2.67 1.74 11.32 1.49 15.06-0.44 1.03-0.53 3.07-1.53 4.55-2.21 1.47-0.69 5.01-3.44 7.86-6.12s5.55-4.87 5.99-4.87c1.61 0 3.97 1.23 3.97 2.07 0 1.26-9.27 9.93-10.61 9.93-0.63 0-1.72 0.7-2.43 1.55s-3.21 2.43-5.57 3.5z" fill="#020202"/>
</svg>
